<svg id="e3BNj8tpQFa1" xmlns="http://www.w3.org/2000/svg" xmlns:xlink="http://www.w3.org/1999/xlink" viewBox="0 0 1112.51 1271.17" shape-rendering="geometricPrecision" text-rendering="geometricPrecision"><defs><radialGradient id="e3BNj8tpQFa19-fill" cx="0" cy="0" r="496.23" spreadMethod="pad" gradientUnits="userSpaceOnUse" gradientTransform="translate(502.31 781.1)"><stop id="e3BNj8tpQFa19-fill-0" offset="0%" stop-color="#fff"/><stop id="e3BNj8tpQFa19-fill-1" offset="9%" stop-color="#ffecd8"/><stop id="e3BNj8tpQFa19-fill-2" offset="21%" stop-color="#ffd4a7"/><stop id="e3BNj8tpQFa19-fill-3" offset="33%" stop-color="#ffc07d"/><stop id="e3BNj8tpQFa19-fill-4" offset="46%" stop-color="#ffb05a"/><stop id="e3BNj8tpQFa19-fill-5" offset="59%" stop-color="#ffa340"/><stop id="e3BNj8tpQFa19-fill-6" offset="72%" stop-color="#ff9a2d"/><stop id="e3BNj8tpQFa19-fill-7" offset="86%" stop-color="#ff9421"/><stop id="e3BNj8tpQFa19-fill-8" offset="100%" stop-color="#ff931e"/></radialGradient><radialGradient id="e3BNj8tpQFa24-fill" cx="0" cy="0" r="496.23" spreadMethod="pad" gradientUnits="userSpaceOnUse" gradientTransform="translate(527.86 620.07)"><stop id="e3BNj8tpQFa24-fill-0" offset="0%" stop-color="#fff"/><stop id="e3BNj8tpQFa24-fill-1" offset="9%" stop-color="#ffecd8"/><stop id="e3BNj8tpQFa24-fill-2" offset="21%" stop-color="#ffd4a7"/><stop id="e3BNj8tpQFa24-fill-3" offset="33%" stop-color="#ffc07d"/><stop id="e3BNj8tpQFa24-fill-4" offset="46%" stop-color="#ffb05a"/><stop id="e3BNj8tpQFa24-fill-5" offset="59%" stop-color="#ffa340"/><stop id="e3BNj8tpQFa24-fill-6" offset="72%" stop-color="#ff9a2d"/><stop id="e3BNj8tpQFa24-fill-7" offset="86%" stop-color="#ff9421"/><stop id="e3BNj8tpQFa24-fill-8" offset="100%" stop-color="#ff931e"/></radialGradient><radialGradient id="e3BNj8tpQFa35-fill" cx="0" cy="0" r="507.98" spreadMethod="pad" gradientUnits="userSpaceOnUse" gradientTransform="translate(587.23 490.07)"><stop id="e3BNj8tpQFa35-fill-0" offset="0%" stop-color="#fff"/><stop id="e3BNj8tpQFa35-fill-1" offset="0%" stop-color="#fffefe"/><stop id="e3BNj8tpQFa35-fill-2" offset="19%" stop-color="#ffe4dc"/><stop id="e3BNj8tpQFa35-fill-3" offset="39%" stop-color="#ffcfc2"/><stop id="e3BNj8tpQFa35-fill-4" offset="58%" stop-color="#ffc0af"/><stop id="e3BNj8tpQFa35-fill-5" offset="78%" stop-color="#ffb7a3"/><stop id="e3BNj8tpQFa35-fill-6" offset="100%" stop-color="#ffb5a0"/></radialGradient></defs><g><rect width="852.476731" height="718.938551" rx="0" ry="0" transform="translate(260.033269-1.297724)" fill="#fff" stroke-width="0"/><path id="e3BNj8tpQFa4" d="M403.27,345.58c0,0,51.09,110.98,43.77,253.13s-73.58,5.44-73.58,5.44-18.68-43.45-19.7-49.37-11.4-36.59-7.84-45.33s14.24-64.37,14.85-72.59s31.23-89.34,31.23-89.34" transform="translate(16.145684 23.546131)" fill="#ffbfce" fill-rule="evenodd"/><path id="e3BNj8tpQFa5" d="M482.218578,576.998658C398.365169,566.674835,608.190942,505.079326,738.22,620.18s-191.201085,8.940844-177.909179,14.390939l-78.092243-57.572281Z" transform="matrix(.717064-.283891 0.368108 0.929783-67.504523 349.890316)" fill="#ffe477" fill-rule="evenodd"/><g><rect width="171.320459" height="276.928961" rx="0" ry="0" transform="matrix(3.328755 0 0 5.27118-116.095874-132.229411)" fill="#fff" stroke-width="0"/><rect width="1169.811207" height="628.272061" rx="0" ry="0" transform="translate(9.45033 699.24093)" fill="#fff" stroke-width="0"/><rect width="90.355693" height="126.642853" rx="0" ry="0" transform="translate(412.582299 632.853802)" fill="#fff" stroke-width="0"/><rect width="49.167099" height="34.428828" rx="0" ry="0" transform="translate(708.973569 683.212)" fill="#fff" stroke-width="0"/><rect width="140.641777" height="194.855701" rx="0" ry="0" transform="matrix(.868066 0.496449-.496449 0.868066 420.887589 215.00458)" fill="#fff" stroke-width="0"/></g></g><g transform="translate(21.028454 133.169853)"><g><path d="M746.22,1040.23c-13.93,3.1-27.73-5.68-30.83-19.6L643.104478,692.179392C640.004478,678.249392,651.54,680.2,665.47,677.11c1.89-.42,3.78-.62,5.63-.62c11.84,0,16.27-8.032117,18.95,3.997883L765.83,1009.41c3.1,13.93-5.68,27.73-19.61,30.82Z" transform="translate(-11.564478-113.937881)" fill="#933523"/><g transform="translate(-11.564478-113.937881)" clip-path="url(#e3BNj8tpQFa16)"><clipPath id="e3BNj8tpQFa16"><path d="M746.22,1040.23c-13.93,3.1-27.73-5.68-30.83-19.6l-69.53-312.7c-3.1-13.93,5.68-27.73,19.61-30.82c1.89-.42,3.78-.62,5.63-.62c11.84,0,22.51,8.19,25.19,20.22l69.54,312.7c3.1,13.93-5.68,27.73-19.61,30.82Z" transform="translate(.000001 0.000001)" fill="#933523"/></clipPath><g><path d="M0.28,694.75c2.18,9.41,5.11,20.04,11.18,29.53c4.97,7.77,11.44,13.78,19.62,17.8c4.3,2.11,8.86,3.68,13.19,5.74c7.42,3.52,14.91,6.95,22.09,10.92c8.6,4.76,8.8,5.2,17.26-2.84c8.65-8.22,16.08-16.83,19.31-28.66.9-3.31,2.64-6.39,4.05-9.54c6.18-13.74,15.64-24.19,29.26-30.76c8-3.86,15.73-8.32,23.56-12.56c1.78-.96,2.21-4,.66-5.3-16.31-13.72-25.75-32.07-33.8-51.37-3.72-8.93-7.48-17.84-11.31-26.72-1.09-2.53-4.22-3.4-6.96-2.45-8.56,2.96-16.17,7.62-22.7,13.84-13.01,12.37-27.18,23.2-41.63,33.74-11.69,8.54-22.22,18.5-31.47,29.71-3.92,4.75-7.14,10.12-10.38,15.39-2.23,3.64-2.58,7.84-1.95,13.53h.02ZM128.42,587.67c6.04,14.71,12.35,29.31,18.96,43.76c4.96,10.83,12.32,19.86,21.75,27.21c5.95,4.64,11.73,6.71,18.75,2.46c3.51-2.13,7.35-3.68,11.07-5.45c15.52-7.37,31.53-13.34,48.22-17.41c5.32-1.29,10.57-2.85,15.84-4.37c1.92-.55,3.95-4.35,3.95-6.71c0-7.89-2.13-15.12-6.9-21.34-3.35-4.37-6.8-8.8-10.87-12.44-15.77-14.11-20.45-32.33-19.2-52.59c1.5-24.2,2.63-48.46,7.26-72.35.53-2.72,1.29-5.38,1.84-8.09c2.53-12.48,9.94-21,20.94-26.65c17.44-8.96,35.27-10.71,53.34-2.29c8.07,3.75,15.93,8.03,23.58,12.6c12.41,7.43,25.21,13.76,38.93,18.43c20.18,6.87,38.99,16.78,57.07,28.14c6.39,4.01,12.8,8.01,19.25,11.93c2.92,1.78,5.28,1.54,7.38-.5c2.58-2.49,4.59-5.35,3.34-9.12-.86-2.58-2.11-5.13-3.63-7.38-22.18-32.9-48.17-61.99-81.12-84.34-12.86-8.72-26.77-13.76-42-15.27-23.33-2.31-46.53-1.45-69.27,4.68-7.21,1.94-14.33,4.79-20.95,8.29-12.17,6.42-24.68,11.83-37.61,16.48-21.32,7.66-41.27,18.46-61.53,28.52-2.45,1.22-4.73,2.78-7.05,4.25-10.51,6.61-17.07,15.81-18.13,28.58-.52,6.2-1.22,12.41-1.42,18.63-.25,7.62-.06,15.25-.06,20.08-.37,9.04-.67,15.27-.86,21.51-.54,17.58,2.48,34.55,9.13,50.75ZM266.86,377.03c4.74-.58,9.46-1.4,14.18-2.12c22.37-4.56,44.68-4.16,67.13-.12c13.77,2.48,26.18,7.77,37.43,15.9c21.17,15.28,41.83,31.16,57.62,52.55c2.83,3.83,6.43,7.11,9.91,10.39.75.71,2.97.94,3.72.35c10.31-8.12,19.33-17.5,26.11-28.87c2.82-4.73,5.15-9.75,7.71-14.64c4.16-7.93,8.16-15.95,12.55-23.75c4.77-8.46,8.57-17.29,11.36-26.59.69-2.31-.74-5.72-3.04-7-2.4-1.32-4.77-2.73-7.27-3.82-10.08-4.42-19.37-10.19-28.26-16.67-1.66-1.21-3.46-2.23-5.09-3.49-13.48-10.43-28.21-12.97-44.48-7.99-5.18,1.59-10.71,2.14-16.13,2.69-8.95.9-17.71-.12-26.13-3.57-5.06-2.07-10.27-3.79-15.26-6.02-11.2-5.01-22.52-4.68-34.04-1.44-8.62,2.42-16.82,5.8-24.33,10.71-18.5,12.11-34.96,26.53-47.97,44.69-1.86,2.6-5.47,5.35-3.22,8.91c1.72,2.72,4.96.21,7.49-.1h.01Zm207.12,79.32c-2.51,2.32-4.65,5.06-6.89,7.67-2.07,2.41-2.41,5.09-.92,7.56c1.78,2.95,3.61,5.87,5.55,8.71c2,2.92,4.44,3.7,6.92,2.3c8.35-4.72,16.64-9.55,25.01-14.22c9.14-5.09,16.71-11.92,22.98-20.33c3.29-4.41,6.72-8.74,10.15-13.05c7.49-9.4,16.96-16.15,28.16-20.04c25.52-8.87,51.28-13.84,78.43-7.22c11.94,2.91,24.19,4.08,34.87,11.07c4.07,2.67,6.5,1.13,6.12-7.28-.18-.85-.86-5.63-2.17-10.23-4.57-15.94-9.35-31.82-14.08-47.72-3.38-11.35-8.44-21.87-15.05-31.66-11.43-16.95-27.55-26.51-47.03-30.58-3.17-.66-6.8-.09-10.03.7-6.71,1.63-12.65,5.11-18.37,8.96-12.01,8.08-22.81,17.6-32.93,27.97-4.9,5.01-8.72,10.82-10.84,17.43-7.66,23.81-19.29,45.69-30.55,67.84-7.9,15.54-16.44,30.28-29.32,42.14l-.01-.02Zm234.99-5.31c9.89,10.88,13.85,23.59,11.78,38.26-.68,4.8-1.24,9.61-1.67,14.44-1.55,17.48,1.6,34.41,6.04,51.16.27,1.02,2.11,2.44,3.02,2.3c3.32-.5,6.66-1.29,9.81-2.5c9.9-3.8,20.14-4.07,30.34-2.62c12.83,1.83,25.89,2.25,38.46,5.92c1.95.57,4.03.67,6.05,1c2.42.4,5.84-1.69,6.46-4.03c5.27-20.13,9.99-40.33,7.38-64.63-.82-5.78-1.02-14.71.62-23.69c1.26-6.89.3-13.72-1.25-20.57-2.61-11.52-6.11-22.73-10.85-33.48-2.21-5.01-5.16-9.78-8.38-14.2-3.79-5.2-9.18-8.33-15.64-8.85-5.44-.44-10.91-.64-16.36-.5-4.77.12-9.63.37-14.27,1.4-29.67,6.63-32.13,7.79-51.36,27.3-3.37,3.42-6.59,7-9.68,10.68-2.18,2.59-2.23,9.22-.09,11.82c3.06,3.71,6.35,7.23,9.58,10.78l.01.01Zm51.74,113.6c-12.14-.78-22.89,3.09-33.22,8.9-2.54,1.43-4.07,3.7-4.87,6.4-1.58,5.31-2.95,10.69-4.48,16.01-3.56,12.41-9.58,22.94-21.39,29.21-2.39,1.27-4.5,3.11-6.7,4.73-1.82,1.34-1.76,4.04.08,4.92c14.91,7.16,30.57,12.09,46.66,15.47c10.13,2.13,20.47.89,30.7.22c28.06-2.12,54.36,4.47,79.53,16.54c8.09,3.88,15.6,8.59,21.63,15.51c5.96,6.84,7.72,14.75,5.21,23.24-1.75,5.93-4.29,11.73-7.25,17.16-8.29,15.16-16.7,30.27-25.58,45.08-11.14,18.6-26.52,33.44-42.72,47.44-5.79,5-12.69,8.11-19.57,11.25-7.46,3.42-14.82,7.06-22.19,10.68-1.83.9-2.2,4.1-.68,5.16c3.38,2.35,6.7,4.8,10.12,7.09c13.98,9.38,25.09,21.37,32.67,36.62c1.22,2.46,2.66,4.83,4.15,7.14c1.23,1.93,3.27,2.3,5.37,2.27.67,0,1.39-.14,2-.42c16.31-7.53,33.59-11.69,51.02-15.4c10.79-2.3,21.07-6.1,30.44-12.03c14.5-9.18,28.92-18.52,43.26-27.96c9.3-6.11,16.64-14.33,23.41-23.14c6.73-8.74,13.53-17.44,20.49-25.99c8.43-10.36,13.7-22.33,17.68-34.95c3.76-11.92,5.79-24.25,7.56-36.6.99-6.9.8-13.76-1.7-20.5-1.92-5.18-3.29-10.58-4.6-15.97-3.41-14.05-11.11-25.23-22.21-34.05-5.92-4.7-12.2-8.93-18.34-13.33-12.85-9.2-25.73-18.37-38.59-27.55-3.91-2.8-7.74-5.73-11.73-8.41-9.35-6.29-19.48-10.03-30.9-9.49-2.05.1-4.11-.12-6.16,0-11.88.63-23.09-1.99-33.87-6.9-3.12-1.42-6.34-2.62-9.43-4.09-20.85-9.93-43.16-12.79-65.81-14.24l.01-.02ZM980.02,857.98c-5.71-5.95-11.69-11.64-17.68-17.32-.93-.88-2.44-1.13-3.91-1.77-1.63.95-3.57,1.75-5.11,3.03-15.37,12.81-32.39,23.12-49.21,33.75-14.06,8.88-29.18,14.93-45.51,18.18-10.02,2-19.87,5.02-29.68,7.96-4.56,1.37-8.9,3.53-13.27,5.48-3.78,1.68-5.19,4.57-4.17,8.23c7.48,26.77,17.08,52.62,32.25,76.04.38.58.73,1.17,1.1,1.75c4.07,6.44,7.77,13.06,9.68,20.54c1.84,7.2,6.74,7.79,12.78,6.34c9.34-2.23,18.35-5.4,26.74-10.28c11.25-6.55,22.41-13.19,34.46-18.3c10.16-4.31,18.66-11.57,26.17-19.74c12.58-13.69,24.99-27.53,37.43-41.36c1.84-2.04,3.76-4.14,5.01-6.55c1.24-2.38,2.58-5.27,2.33-7.78-1.73-17.34-5.99-34.06-13.47-49.81-1.46-3.06-3.59-5.95-5.94-8.4v.01ZM845.73,1037.2c-1.05-14.86-5.84-28.25-13.94-40.72-12.49-19.21-21.38-40.18-28.02-62.16-4.2-13.92-9.39-27.43-15.69-40.57-10.48-21.83-28.6-34.81-49.32-44.9-1.65-.8-4.14-.72-5.95-.12-3.87,1.27-7.56,3.11-11.28,4.8-1.74.79-2.37,3.58-1.24,5.38c8.1,12.83,16.49,25.48,23.2,39.16c2.74,5.58,5.57,11.11,8.23,16.73c11.75,24.84,13.14,50.59,6.33,76.98-2.95,11.42-6.92,22.45-12.88,32.69-7.86,13.5-18.52,23.9-32.46,30.78-11.67,5.76-23.33,11.53-35.05,17.2-9.31,4.5-18.99,7.68-29.33,8.84-10.86,1.22-21.58,3.43-32.6,3.37-31.61-.17-58.67-11.25-81.29-33.66-4.22-4.18-7.35-9.66-13.21-11.98.18,1.87.06,3.91.91,5.38c2.41,4.17,5.24,8.1,8.1,11.98c6.54,8.88,13.47,17.48,19.72,26.56c5.7,8.29,12.9,13.65,22.37,17.13c19.26,7.07,38.18,15.08,57.18,22.87c7.6,3.11,14.96,6.8,22.53,10c15.8,6.67,31.91,12.5,48.71,15.91c12.84,2.61,24.97,7.07,36.86,12.42c8.75,3.94,17.5,7.85,26.27,11.72c8.8,3.88,17.95,6.6,27.32,8.75c10.12,2.32,19.05-.32,27.05-6.31c3.79-2.84,7.24-6.42,10.09-10.24c12.21-16.42,19.73-34.78,20.88-55.48c1.12-20.11.19-40.18-1.94-60.19-.44-4.13-1.27-8.23-1.56-12.37l.01.05Zm-324.89,1.63c.15.05.25.16.4.22-.02-.19-.03-.4-.05-.59l-.34.37h-.01Zm184.11,124.88c-2.59-.88-5.14-1.97-7.8-2.49-20.25-3.97-39.24-11.68-58.11-19.76-18.23-7.81-36.46-15.59-54.72-23.35-2.51-1.06-5.08-2.34-7.72-2.64-1.76-.21-4.43.55-5.44,1.87-7.13,9.26-14.03,18.73-20.81,28.26-2.79,3.92-4.92,8.32-7.69,12.26-6.71,9.56-13.67,18.94-20.34,28.52-.42.6.44,2.77,1.3,3.51c8.31,7.15,17.2,13.68,25.03,21.33c8.33,8.15,15.73,17.28,23.46,26.05c5,5.67,9.79,11.55,14.83,17.19c10.82,12.1,24.76,16.58,39.12,16.72c15.67-.24,27.95-5.3,37.97-15.84c8.1-8.52,15.16-17.84,20.73-28.23c9.12-17.05,16.68-34.84,23.36-53.01.24-.65.36-1.33.56-1.99c1.16-3.84-.32-7.25-3.71-8.39l-.02-.01Zm-176.8-6.93c8.67-14.12,17.36-28.22,27.51-41.34c1.96-2.53,1.92-5.69-.23-7.46-8.59-7.09-15.1-15.94-21.2-25.19-1.9-2.88-3.91-5.71-6.12-8.34-10.23-12.17-19.11-25.3-27.49-38.8-3.64-5.86-7.17-11.85-12.98-15.83-.96-.66-2.54-.51-3.84-.52-.62,0-1.3.39-1.85.77-9.13,6.11-18.03,12.59-27.41,18.27-9.44,5.71-14.93,13.97-17.81,24.38-.92,3.33-1.6,6.73-2.54,10.06-1.33,4.66-2.67,9.32-4.24,13.9-2.8,8.15-7.94,14.36-15.24,18.91-11.78,7.35-24.5,12.15-37.94,15.23-9.93,2.28-19.17.53-27.29-5.46-4.93-3.63-9.59-7.88-13.55-12.56-8.55-10.14-14.51-21.78-17.36-34.91-4.99-23-12.68-45.31-16.87-68.52-.86-4.75-2.6-9.32-4.01-13.96-.71-2.33-3.66-4.22-6.4-4.19-2.05.03-4.1.19-6.15.22-5.03.07-9.32,1.73-12.7,5.64-5.86,6.77-11.69,13.58-17.72,20.19-7.8,8.52-11.44,18.72-12.31,30.09-.37,4.83-.72,9.68-.77,14.53-.11,11.09-.04,22.17-.04,33.26h-.28c0,9.7,0,19.4,0,29.11c0,21.07,4.49,41.19,12.03,60.74c5.49,14.23,12.32,27.77,19.48,41.19c8.72,16.35,22.18,27.99,36.81,38.41c7.42,5.28,16.23,7.43,25.16,8.06c12.96.91,25.95,1.35,38.93,1.72c10.41.3,20.53-1.66,29.78-6.55c12.11-6.4,24.05-13.17,35.86-20.13c5.97-3.52,10.6-8.78,14.64-14.41c15.05-20.96,20.74-27.43,47.81-41.05c10.05-5.05,18.09-12.34,24.02-22.02.72-1.18,1.58-2.27,2.3-3.44h.01ZM232.07,1022.64c1.48-6.96,4.44-13.03,8.71-18.55c1.69-2.18,3.39-4.35,5.2-6.42c15.68-17.94,15.43-17.96-8.97-22.95-4-.81-8.07-1.53-12.14-1.79-10.91-.7-21.72-1.92-32.51-3.92-10.81-2-21.92-2.28-32.53.83-9.61,2.81-18.76,2.95-28.1-.48-1.89-.7-4.01-.77-6.03-1.08-2.39-.38-5.99,1.24-6.89,3.45-2.61,6.37-5.63,12.65-7.43,19.26-6.06,22.32-6.18,45.17-4.35,68.01.83,10.38,4.61,20.22,8.67,29.74c4.88,11.44,9.66,22.85,12.56,35.04c2.96,12.46,10.83,20.58,23.08,24c7.89,2.2,15.76,4.83,23.81,5.94c15.64,2.15,30.72,6.44,45.89,10.51c3.27.88,6.6,1.55,9.92,2.24c1.83.38,4.35-1.87,4.02-3.57-1.15-6.1-2.34-12.2-3.51-18.3-.22.02-.44.04-.66.06-.76-8.25-2.1-16.49-2.18-24.74-.23-24.21.02-48.43.15-72.65.05-8.34,1.57-16.49,3.3-24.63h-.01Zm27.86-374.13c-15.36,3.44-30.65,7.41-44.92,14.24-24.11,11.54-47.97,23.58-72.02,35.24-11.67,5.66-19.66,14.51-24.9,26.44-6.15,13.98-11.26,28.23-13.98,43.33-.89,4.94-.42,9.53,1.23,14.25c2.76,7.93,6.64,15.19,11.6,21.88c6.57,8.86,13.3,17.6,19.8,26.52c7.96,10.94,17.82,19.05,31.11,22.37c3.31.83,6.55,1.96,9.81,3c10.58,3.37,20.12,8.63,28.43,16.12c2.56,2.3,5.26,4.45,7.66,6.92c11.21,11.53,25.23,16.14,40.72,17.02c4.77.27,9.57.04,12.84.04c12.55,1.42,23.46,1.25,33.64-3.91c2.98-1.51,6.62-3.25,8.12-5.94c9.23-16.57,22.11-29.85,35.81-42.47c2.26-2.08,1.64-5.18-1.27-6.72-3.63-1.92-7.37-3.64-10.98-5.59-18.26-9.91-27.5-26.22-31.67-46.08-.28-1.34-.4-2.75-.4-4.13c0-16.89,14.51-45.26,31.05-50.48c2.58-.82,5.03-2.08,7.51-3.22c2-.92,2.42-3.75.77-4.87-10.25-6.9-20.67-13.56-30.73-20.72-6.13-4.36-12-9.2-17.51-14.35-9.72-9.09-16.65-20.17-20.64-32.99-2.2-7.04-6.11-6.99-11.06-5.89l-.02-.01ZM778.64,812.39c5.47-2.69,10.75-6.22,15.33-10.28c16.02-14.22,30.59-29.76,40.95-48.93c5.58-10.34,11.65-20.4,17.34-30.68c2.68-4.83,5.17-9.79,7.38-14.85c3.94-9.05,2.13-15.78-6.22-21.61-5.04-3.52-10.45-6.62-16.03-9.18-22.85-10.47-46.73-15.51-77.54-12.51-13.14,2.04-31.17-1.25-48.79-7.68-12.22-4.46-24.43-8.96-36.6-13.56-4.48-1.69-8.87-3.65-13.25-5.6-8.35-3.73-16-2.53-23.05,3.21-1.07.86-2.16,1.7-3.25,2.54-4.33,3.36-5.42,5.81-3.21,10.47c4.28,9.03,5.41,18.56,5.37,28.35-.04,9.01.04,18.04-.48,27.03-.54,9.37,3.35,16.13,10.83,20.94c11.08,7.13,20.44,16.26,29.59,25.63c3.35,3.43,6.55,7.12,9.24,11.09c6,8.83,5.93,18.14,1.07,27.5-4.21,8.09-10.5,14.49-16.61,21.05-5.62,6.04-11.59,11.83-14.7,19.8-.65,1.67.39,4.8,1.92,5.29.64.2,1.2.76,1.83.84c15.67,1.84,31.36,2.58,47.12,1.31c7.64-.61,14.63-3.39,21.49-6.58c16.79-7.79,33.66-15.43,50.27-23.59ZM489.58,961.46c-4.75.44-9.45,1.62-14.2,1.82-10.24.42-18.71-3.4-24.67-12.07-2.34-3.4-4.81-6.82-6.42-10.59-4.72-11.1-13.26-15-24.58-14.82-9.55.16-19.12,0-28.67-.39-6.11-.24-12.22-.97-18.28-1.8-6.42-.88-11.41-4.49-15.34-9.53-8.22-10.55-13.68-22.26-14.34-35.94-.17-3.41-.55-6.81-.95-10.2-.01-.1-1.38-.25-1.94,0-1.21.54-2.53,1.11-3.44,2.03-9.87,9.98-16.74,21.77-20.41,35.42-2.33,8.67-4.53,17.38-6.85,26.06-2.16,8.08-2.92,16.32-2.9,27.96.69,4.28,1.45,11.88,3.2,19.24c6.75,28.21,13.88,56.33,20.75,84.52c2.49,10.21,6.28,19.8,12.75,28.05c3.37,4.3,7.25,8.28,11.32,11.91c5.43,4.86,12.08,6.51,19.14,5.03c12.8-2.69,24.87-7.37,35.76-14.87c3.48-2.4,6.13-5.58,7.59-9.55c1.68-4.52,3.05-9.17,4.44-13.8s2.68-9.29,3.97-13.95c3.27-11.89,10.2-20.93,20.51-27.43c6.38-4.02,12.68-8.16,18.91-12.42c13.18-9,24.06-20.4,33.24-33.48c3.19-4.54,5.66-9.42,5.92-15.23.11-2.6-2-6.08-4.31-6.11-3.4-.04-6.82-.19-10.19.12l-.01.02Zm26.77-19.09c10.57-9.22,22.96-14.87,35.68-20.12c5.68-2.35,11.09-5.4,16.54-8.28c8.1-4.28,16.68-5.91,25.78-5.52c6.81.3,13.63.19,20.45.13c1.89-.02,5.27-4.01,5.01-5.88-.77-5.47-1.17-11.07-2.66-16.34-3.17-11.17,0-20.46,7.05-28.89c2.21-2.64,4.6-5.13,6.97-7.63c3.83-4.03,6.86-8.57,9.17-13.69c5.18-11.49,12.67-21.31,21.4-30.28c3.84-3.94,7.48-8.11,10.83-12.48c6.85-8.93,6.73-16.11-.64-24.17-8.37-9.15-17.02-18.04-27.2-25.22-3.36-2.37-6.72-4.79-9.9-7.41-6.73-5.54-10.41-12.87-10.9-21.57-.35-6.21.2-12.47.09-18.7-.17-8.99-.2-18.02-1-26.97-.73-8.21-5.55-13.89-12.81-17.55-5.64-2.84-11.61-4.13-17.83-4.26-5.46-.11-10.93-.03-16.4-.03v1.05c-6.15,0-12.3.14-18.44-.04-6.48-.19-12-2.93-16.22-7.82-3.6-4.16-6.86-8.64-10.05-13.12-6.86-9.66-15.27-17.75-24.41-25.1-2.1-1.69-4.69-2.77-7.11-4.01-2.04-1.05-6.26-.02-7.45,1.94-2.5,4.12-5.2,8.16-7.15,12.55-4.38,9.85-11.39,17.14-20.12,23.02-16.2,10.93-33.71,18.32-53.21,20.29-9.6.97-19.07.57-28.37-2.74-3.79-1.34-8-1.78-12.04-1.97-2.76-.13-5.28,1.47-6.5,4.24-1.11,2.5-2.48,5.08-2.79,7.74-1.42,12.4-2.51,24.81,1.26,37.11c1.41,4.6,2.27,9.44,2.77,14.24c1.12,10.76-2.64,17.22-12.32,21.44-4.38,1.91-8.97,3.34-13.51,4.87-7.42,2.5-13.29,6.88-17.37,13.76-12.94,21.88-12.72,30.56.89,51.54c3.84,5.92,8.87,10.47,15.23,13.54c4.93,2.38,9.95,4.66,14.63,7.49c7.49,4.53,10.84,12.79,8.99,21.44-.87,4.05-1.8,8.16-3.35,11.98-6.07,14.93-2.93,28.46,5.47,41.38c4.07,6.25,9.76,9.62,17.06,9.98c5.46.27,10.95.11,16.42.2c8.89.14,17.79.22,26.68.52c12.58.43,22.32,5.7,28.35,17.32c2.23,4.29,4.71,8.46,7.4,12.46c3.27,4.85,7.88,7.89,13.87,7.36c10.89-.97,21.79-2.07,32.6-3.64c3.22-.46,6.73-2.03,9.19-4.18l-.03.02ZM491.79,835.19c-2.41,2.4-4.24,5.43-6.76,7.68-6.98,6.26-17.05,6.28-24.4.28-6.9-5.63-9.85-13.11-9.19-21.93.25-3.39,1.56-6.7,1.97-10.1.11-.93-1.16-2.81-2-2.94-4.68-.74-9.61-.38-14.09-1.67-18-5.2-23.14-25.86-9.93-39.36c2.36-2.41,5.26-4.39,8.16-6.14c2.3-1.38,4.99-2.1,7.5-3.14c1.53-.63,2.21-1.83,1.64-3.39-1.18-3.21-2.64-6.32-3.76-9.55-2.86-8.23.09-14.97,5.87-20.59c4-3.89,8.97-6.15,14.59-6.9c10.18-1.36,18.7,1.8,26.19,8.84c3.29,3.09,3.97,3.14,6.89.37c9.33-8.86,19.91-8.08,30.58-4.07c9.7,3.64,13.57,13.67,11.04,21.78-1.15,3.7-3.53,7.2-2.2,11.35c3.93.71,7.97,1.05,11.74,2.25c8.56,2.72,13.28,9.36,15.79,17.69c2.67,8.86-1.76,18.81-10.15,22.5-3.7,1.63-7.77,2.4-11.7,3.46-4.35,1.18-4.81,1.71-3.65,5.14c1.1,3.26,2.55,6.42,3.38,9.75c1.23,4.95-.03,9.67-2.62,13.88-5.61,9.1-18.86,14.16-28.7,10.61-4.42-1.59-8.36-4.52-12.65-6.55-.9-.43-2.79,0-3.54.75Zm19.1-6.92c5.03,1.89,10.24.18,14.1-4.61c1.57-1.95,1.6-5.17.32-7.58-2.51-4.75-6.52-6.46-11.32-6.26-5.2.38-8.89,4.09-9.32,9.14-.34,4.04,2.15,7.78,6.21,9.31h.01Zm2.91-37.72c-3.07-7.64-1.67-14.89,1.11-22.2.29-.76-.9-3.02-1.65-3.15-8.56-1.48-15.2-5.67-19.83-13.21-1.11-1.81-3.63-1.86-5.16-.15-6.21,6.96-13.79,11.18-22.97,12.6-2.02.31-3.78,1.54-3.23,4.14.43,2.03,1.03,4.02,1.56,6.03c1.69,7.6,1.3,15.12-.62,22.64-.73,2.87.09,3.83,3.39,3.47c7.8-.83,14.84.1,21.09,5.63c3.43,3.04,4.25,2.81,6.96.11c4.95-4.96,10.3-8.99,17.19-10.83c1.96-.52,2.98-3.02,2.15-5.08h.01Zm-41.04,23.8c-2.96-.09-5.2,1.32-6.68,3.74-1.86,3.04-2.08,6.37-.79,9.76c1.31,3.43,4.4,5.89,7.46,5.86c2.95-.02,6.05-3.03,6.34-6.72.21-2.66-.06-5.4-.44-8.05-.35-2.41-3.36-4.54-5.89-4.59ZM475,746.22c2.72-2.45,4.36-6.68,3.14-8.98-1.61-3.06-3.94-5.44-7.52-6.11-1.31-.25-2.63-.39-5.23-.77-2.02.59-5.33,1.17-8.28,2.54-3.59,1.67-4.7,7.31-2.49,10.53c5.5,8.03,13.35,9.11,20.37,2.79h.01Zm37.44,3.79c5.35-.13,10.1-4.73,10.73-10.06.13-1.11-.67-2.65-1.52-3.5-2.44-2.44-5.59-3.48-8.98-3.82-4.06-.4-7.5,2.99-7.51,9.18.34.92.82,3.67,2.27,5.73.97,1.38,3.31,2.52,5.01,2.48v-.01Zm27.48,37.98c1.2-.33,3.15-.76,5.02-1.43c1.84-.66,3.91-4.68,3.68-6.77-.82-7.33-8.41-11.94-14.63-8.88-3.03,1.49-5.77,3.3-7.47,6.45-1.13,2.11-.53,5.89,1.32,7.38c3.34,2.71,7.21,3.38,12.08,3.24v.01Zm-94.79-15.22c-3.7-.13-6.6,1.38-8.88,4.24-3.24,4.05-4,8.06-2.1,11.39c2.22,3.9,5.71,6.02,10,6.08c1.76.02,4.16-1.11,5.19-2.53c3.57-4.89,3.1-12.53-.77-17.26-.78-.96-2.29-1.31-3.43-1.92h-.01Zm87.97-17.01l.93.47c-.07-.18-.09-.35-.15-.52-.08-.02-.16-.03-.24-.04l-.54.09Zm-16.19,279.73c.7,1.75,1.69,3.12,3.82,2.97-.5-2.1-1.77-3.1-3.82-2.97Zm-.75-1.77v1.8c.29-.05.5,0,.75-.03-.07-.17-.15-.31-.21-.48l-.54-1.29Zm5.03,4.75c-.18.03-.3-.02-.47-.01.03.14.1.23.12.38c0,0,.34-.37.34-.37h.01Zm89,33.02c15.14.67,30.05-1.34,44.74-4.64c6.58-1.48,12.94-4.34,19.13-7.17c10.57-4.84,20.89-10.26,31.39-15.26c12.81-6.1,22.54-15.42,29.4-27.92c9.14-16.67,13.42-34.74,14.68-53.57.75-11.2-1.51-22.19-5.51-32.54-9.52-24.62-22.15-47.54-38.36-68.34-2.64-3.39-5.95-5.51-10.45-5.57-7.52-.11-15.03-.43-23.3-.68-4.01-.43-9.02-.15-13.47-1.6-9.55-3.09-15.73,1.31-21.28,8.16-1.3,1.6-2.7,3.12-4.01,4.72-3.74,4.55-5.08,9.73-3.71,15.52.79,3.37,1.79,6.68,2.62,10.04.33,1.34.5,2.72.71,4.09c2.53,16.51-4.73,25.6-20.79,25.77-4.77.05-9.57-.22-14.33-.69-9.86-.99-18.88,1.23-27.6,5.94-7.21,3.9-14.73,7.27-22.27,10.49-6.34,2.71-12.32,5.88-17.82,10.08-6.79,5.19-11.93,11.03-12.56,20.32-.57,8.46-4.94,15.73-9.01,22.97-1.5,2.68-1.12,5.28.38,7.78c1.42,2.36,2.67,4.89,4.44,6.95c11.21,13.05,21.79,26.79,34.03,38.76c17.31,16.95,38.8,25.33,62.95,26.4v-.01Zm89.02-611.9c-8.96-9.53-18.13-18.85-27.25-28.22-3.96-4.07-8.94-6.63-14.33-7.64-12.08-2.27-24.21-4.83-36.43-5.71-20.15-1.44-39.29,3.79-57.72,11.83-6.42,2.8-11.58,7.36-16.07,12.65-4.01,4.73-7.79,9.65-11.49,14.63-7.11,9.59-16.05,16.97-26.29,22.83-4.76,2.73-9.61,5.29-14.39,7.97-6.02,3.37-11.58,7.36-16.3,12.47-7.7,8.35-9.46,9.96.58,17.56c11.18,8.46,19.32,19.62,25.66,32.02c8.48,16.6,16.81,33.3,24.41,50.32c5.17,11.58,13.07,21.04,20.6,30.84c2.69,3.51,6.97,4.47,11.07,4.54c5.45.1,10.91-.51,16.37-.82c10.96-.96,21.86-1.05,32.43,2.79c5.71,2.08,10.57.48,15.2-3.33c3.69-3.04,7.76-5.66,11.85-8.15c6.74-4.11,14.01-5.32,21.69-3.17c1.97.55,3.9,1.28,5.87,1.87c3.43,1.02,6.72.79,9.82-1.17c5.8-3.66,11.6-7.33,17.44-10.94c5.46-3.38,9.18-8.13,11.57-14.1c4.67-11.68,6.73-23.95,8.07-36.36.29-2.7-.2-5.52-.51-8.26-.31-2.75-.64-5.53-1.33-8.2-4.87-19.11-5.35-38.27-1.58-57.66c2.13-10.97-1.44-20.6-8.95-28.59h.01ZM253.76,579.04c4.67,5.07,9.37,10.12,13.82,15.37c6.84,8.08,11.26,17.27,12.25,28.06.64,6.9,1.98,13.74,2.55,20.64.9,10.82,5.46,19.9,12.03,28.17c5.18,6.52,11.12,12.26,17.97,16.94c9.07,6.21,18.17,12.38,27.42,18.31c3.19,2.04,6.74,6.2,10.55,3.31c2.92-2.22.34-6.41-.42-9.7-3.69-15.9-2.97-31.65,1.91-47.16c1.01-3.22,2.9-6.25,4.86-9.03c2.48-3.52,6.13-5.43,10.43-5.88c5.53-.58,10.94.1,16.21,1.78c30.58,9.79,56.34-1.31,80.37-19.28c3.18-2.37,5.58-6.08,7.72-9.56c2.88-4.69,5.05-9.83,7.72-14.67c4.75-8.62,11.45-13.65,21.8-11.8c1.29.24,2.7.07,4.02-.14c1.54-.25,2.39-1.59,1.61-3.09-5.69-11.05-11.11-22.27-17.4-32.97-7.14-12.14-17.01-21.3-30.04-27.32-9.9-4.57-19.17-10.65-28.43-16.55-20.94-13.33-42.74-24.72-66.36-32.39-9.82-3.18-18.83-8.19-27.79-13.28-8.94-5.09-17.9-10.18-27.05-14.86-14.6-7.48-29.16-5.9-43.43,1.16-7.83,3.87-12.97,10.19-14.77,18.88-1.69,8.14-3.45,16.31-4.33,24.56-1.83,17.23-3.11,34.52-4.21,47.2c0,8.08,0,11.54,0,15.01-.03,10.91,3.64,20.32,11,28.3l-.01-.01Zm-95.7,377.98c12.06-3.51,24.46-3.21,36.62-.76c8.1,1.63,16.2,2.55,24.4,3.03c12.35.72,24.35,3.5,36.36,6.28c10.73,2.48,21.54,3.88,32.54,1.87c2.56-.47,5.11-3.03,5.26-5.52.18-2.76.32-5.53.37-8.3.18-9.05.94-18.01,3.48-25.1c1.63-6.24,2.9-10.92,4.07-15.62.79-3.14-1.33-5.85-4.15-5.28-20.49,4.13-40.83,1.94-61.1-1.65-8.93-1.58-16.83-5.71-23.8-11.56-4.74-3.98-9.34-8.13-13.98-12.24-7.31-6.48-15.43-11.42-24.89-14.02-4.62-1.27-9.14-2.89-13.7-4.36-10.7-3.46-19.97-9.27-26.95-18.2-10.19-13.04-20.17-26.25-29.89-39.65-6.56-9.05-9.41-19.92-13.2-30.3-.65-1.8-3.44-1.92-5.01-.23-1.41,1.51-2.92,2.93-4.17,4.56-8,10.43-16.96,19.95-26.52,28.92-7.56,7.1-14.01,15.11-19.55,23.98-6.22,9.94-13.06,19.5-19.41,29.37-5.36,8.33-7.99,17.52-7.69,27.57.21,7.08,1.83,13.71,5.23,19.89c9.15,16.67,23.22,27.13,41.07,32.2c7.85,2.23,16.08,3.89,24.19,4.19c18.63.68,36.77,3.67,54.32,9.84c8.75,3.07,17.15,3.71,26.1,1.1v-.01Z" fill="url(#e3BNj8tpQFa19-fill)" fill-rule="evenodd"/></g></g></g><g><rect width="372" height="51.67" rx="25.83" ry="25.83" transform="matrix(.215247-.97656 0.97656 0.215247 431.4507 918.22946)" fill="#933523"/><g clip-path="url(#e3BNj8tpQFa25)"><g><path d="M25.83,533.72c2.18,9.41,5.11,20.04,11.18,29.53c4.97,7.77,11.44,13.78,19.62,17.8c4.3,2.11,8.86,3.68,13.19,5.74c7.42,3.52,14.91,6.95,22.09,10.92c8.6,4.76,8.8,5.2,17.26-2.84c8.65-8.22,16.08-16.83,19.31-28.66.9-3.31,2.64-6.39,4.05-9.54c6.18-13.74,15.64-24.19,29.26-30.76c8-3.86,15.73-8.32,23.56-12.56c1.78-.96,2.21-4,.66-5.3-16.31-13.72-25.75-32.07-33.8-51.37-3.72-8.93-7.48-17.84-11.31-26.72-1.09-2.53-4.22-3.4-6.96-2.45-8.56,2.96-16.17,7.62-22.7,13.84-13.01,12.37-27.18,23.2-41.63,33.74-11.69,8.54-22.22,18.5-31.47,29.71-3.92,4.75-7.14,10.12-10.38,15.39-2.23,3.64-2.58,7.84-1.95,13.53h.02ZM153.97,426.64c6.04,14.71,12.35,29.31,18.96,43.76c4.96,10.83,12.32,19.86,21.75,27.21c5.95,4.64,11.73,6.71,18.75,2.46c3.51-2.13,7.35-3.68,11.07-5.45c15.52-7.37,31.53-13.34,48.22-17.41c5.32-1.29,10.57-2.85,15.84-4.37c1.92-.55,3.95-4.35,3.95-6.71c0-7.89-2.13-15.12-6.9-21.34-3.35-4.37-6.8-8.8-10.87-12.44-15.77-14.11-20.45-32.33-19.2-52.59c1.5-24.2,2.63-48.46,7.26-72.35.53-2.72,1.29-5.38,1.84-8.09c2.53-12.48,9.94-21,20.94-26.65c17.44-8.96,35.27-10.71,53.34-2.29c8.07,3.75,15.93,8.03,23.58,12.6c12.41,7.43,25.21,13.76,38.93,18.43c20.18,6.87,38.99,16.78,57.07,28.14c6.39,4.01,12.8,8.01,19.25,11.93c2.92,1.78,5.28,1.54,7.38-.5c2.58-2.49,4.59-5.35,3.34-9.12-.86-2.58-2.11-5.13-3.63-7.38-22.18-32.9-48.17-61.99-81.12-84.34-12.86-8.72-26.77-13.76-42-15.27-23.33-2.31-46.53-1.45-69.27,4.68-7.21,1.94-14.33,4.79-20.95,8.29-12.17,6.42-24.68,11.83-37.61,16.48-21.32,7.66-41.27,18.46-61.53,28.52-2.45,1.22-4.73,2.78-7.05,4.25-10.51,6.61-17.07,15.81-18.13,28.58-.52,6.2-1.22,12.41-1.42,18.63-.25,7.62-.06,15.25-.06,20.08-.37,9.04-.67,15.27-.86,21.51-.54,17.58,2.48,34.55,9.13,50.75ZM292.41,216c4.74-.58,9.46-1.4,14.18-2.12c22.37-4.56,44.68-4.16,67.13-.12c13.77,2.48,26.18,7.77,37.43,15.9c21.17,15.28,41.83,31.16,57.62,52.55c2.83,3.83,6.43,7.11,9.91,10.39.75.71,2.97.94,3.72.35c10.31-8.12,19.33-17.5,26.11-28.87c2.82-4.73,5.15-9.75,7.71-14.64c4.16-7.93,8.16-15.95,12.55-23.75c4.77-8.46,8.57-17.29,11.36-26.59.69-2.31-.74-5.72-3.04-7-2.4-1.32-4.77-2.73-7.27-3.82-10.08-4.42-19.37-10.19-28.26-16.67-1.66-1.21-3.46-2.23-5.09-3.49-13.48-10.43-28.21-12.97-44.48-7.99-5.18,1.59-10.71,2.14-16.13,2.69-8.95.9-17.71-.12-26.13-3.57-5.06-2.07-10.27-3.79-15.26-6.02-11.2-5.01-22.52-4.68-34.04-1.44-8.62,2.42-16.82,5.8-24.33,10.71-18.5,12.11-34.96,26.53-47.97,44.69-1.86,2.6-5.47,5.35-3.22,8.91c1.72,2.72,4.96.21,7.49-.1h.01Zm207.12,79.32c-2.51,2.32-4.65,5.06-6.89,7.67-2.07,2.41-2.41,5.09-.92,7.56c1.78,2.95,3.61,5.87,5.55,8.71c2,2.92,4.44,3.7,6.92,2.3c8.35-4.72,16.64-9.55,25.01-14.22c9.14-5.09,16.71-11.92,22.98-20.33c3.29-4.41,6.72-8.74,10.15-13.05c7.49-9.4,16.96-16.15,28.16-20.04c25.52-8.87,51.28-13.84,78.43-7.22c11.94,2.91,24.19,4.08,34.87,11.07c4.07,2.67,6.5,1.13,6.12-7.28-.18-.85-.86-5.63-2.17-10.23-4.57-15.94-9.35-31.82-14.08-47.72-3.38-11.35-8.44-21.87-15.05-31.66-11.43-16.95-27.55-26.51-47.03-30.58-3.17-.66-6.8-.09-10.03.7-6.71,1.63-12.65,5.11-18.37,8.96-12.01,8.08-22.81,17.6-32.93,27.97-4.9,5.01-8.72,10.82-10.84,17.43-7.66,23.81-19.29,45.69-30.55,67.84-7.9,15.54-16.44,30.28-29.32,42.14l-.01-.02Zm234.99-5.31c9.89,10.88,13.85,23.59,11.78,38.26-.68,4.8-1.24,9.61-1.67,14.44-1.55,17.48,1.6,34.41,6.04,51.16.27,1.02,2.11,2.44,3.02,2.3c3.32-.5,6.66-1.29,9.81-2.5c9.9-3.8,20.14-4.07,30.34-2.62c12.83,1.83,25.89,2.25,38.46,5.92c1.95.57,4.03.67,6.05,1c2.42.4,5.84-1.69,6.46-4.03c5.27-20.13,9.99-40.33,7.38-64.63-.82-5.78-1.02-14.71.62-23.69c1.26-6.89.3-13.72-1.25-20.57-2.61-11.52-6.11-22.73-10.85-33.48-2.21-5.01-5.16-9.78-8.38-14.2-3.79-5.2-9.18-8.33-15.64-8.85-5.44-.44-10.91-.64-16.36-.5-4.77.12-9.63.37-14.27,1.4-29.67,6.63-32.13,7.79-51.36,27.3-3.37,3.42-6.59,7-9.68,10.68-2.18,2.59-2.23,9.22-.09,11.82c3.06,3.71,6.35,7.23,9.58,10.78l.01.01Zm51.74,113.6c-12.14-.78-22.89,3.09-33.22,8.9-2.54,1.43-4.07,3.7-4.87,6.4-1.58,5.31-2.95,10.69-4.48,16.01-3.56,12.41-9.58,22.94-21.39,29.21-2.39,1.27-4.5,3.11-6.7,4.73-1.82,1.34-1.76,4.04.08,4.92c14.91,7.16,30.57,12.09,46.66,15.47c10.13,2.13,20.47.89,30.7.22c28.06-2.12,54.36,4.47,79.53,16.54c8.09,3.88,15.6,8.59,21.63,15.51c5.96,6.84,7.72,14.75,5.21,23.24-1.75,5.93-4.29,11.73-7.25,17.16-8.29,15.16-16.7,30.27-25.58,45.08-11.14,18.6-26.52,33.44-42.72,47.44-5.79,5-12.69,8.11-19.57,11.25-7.46,3.42-14.82,7.06-22.19,10.68-1.83.9-2.2,4.1-.68,5.16c3.38,2.35,6.7,4.8,10.12,7.09c13.98,9.38,25.09,21.37,32.67,36.62c1.22,2.46,2.66,4.83,4.15,7.14c1.23,1.93,3.27,2.3,5.37,2.27.67,0,1.39-.14,2-.42c16.31-7.53,33.59-11.69,51.02-15.4c10.79-2.3,21.07-6.1,30.44-12.03c14.5-9.18,28.92-18.52,43.26-27.96c9.3-6.11,16.64-14.33,23.41-23.14c6.73-8.74,13.53-17.44,20.49-25.99c8.43-10.36,13.7-22.33,17.68-34.95c3.76-11.92,5.79-24.25,7.56-36.6.99-6.9.8-13.76-1.7-20.5-1.92-5.18-3.29-10.58-4.6-15.97-3.41-14.05-11.11-25.23-22.21-34.05-5.92-4.7-12.2-8.93-18.34-13.33-12.85-9.2-25.73-18.37-38.59-27.55-3.91-2.8-7.74-5.73-11.73-8.41-9.35-6.29-19.48-10.03-30.9-9.49-2.05.1-4.11-.12-6.16,0-11.88.63-23.09-1.99-33.87-6.9-3.12-1.42-6.34-2.62-9.43-4.09-20.85-9.93-43.16-12.79-65.81-14.24l.01-.02Zm219.31,293.34c-5.71-5.95-11.69-11.64-17.68-17.32-.93-.88-2.44-1.13-3.91-1.77-1.63.95-3.57,1.75-5.11,3.03-15.37,12.81-32.39,23.12-49.21,33.75-14.06,8.88-29.18,14.93-45.51,18.18-10.02,2-19.87,5.02-29.68,7.96-4.56,1.37-8.9,3.53-13.27,5.48-3.78,1.68-5.19,4.57-4.17,8.23c7.48,26.77,17.08,52.62,32.25,76.04.38.58.73,1.17,1.1,1.75c4.07,6.44,7.77,13.06,9.68,20.54c1.84,7.2,6.74,7.79,12.78,6.34c9.34-2.23,18.35-5.4,26.74-10.28c11.25-6.55,22.41-13.19,34.46-18.3c10.16-4.31,18.66-11.57,26.17-19.74c12.58-13.69,24.99-27.53,37.43-41.36c1.84-2.04,3.76-4.14,5.01-6.55c1.24-2.38,2.58-5.27,2.33-7.78-1.73-17.34-5.99-34.06-13.47-49.81-1.46-3.06-3.59-5.95-5.94-8.4v.01ZM871.28,876.17c-1.05-14.86-5.84-28.25-13.94-40.72-12.49-19.21-21.38-40.18-28.02-62.16-4.2-13.92-9.39-27.43-15.69-40.57-10.48-21.83-28.6-34.81-49.32-44.9-1.65-.8-4.14-.72-5.95-.12-3.87,1.27-7.56,3.11-11.28,4.8-1.74.79-2.37,3.58-1.24,5.38c8.1,12.83,16.49,25.48,23.2,39.16c2.74,5.58,5.57,11.11,8.23,16.73c11.75,24.84,13.14,50.59,6.33,76.98-2.95,11.42-6.92,22.45-12.88,32.69-7.86,13.5-18.52,23.9-32.46,30.78-11.67,5.76-23.33,11.53-35.05,17.2-9.31,4.5-18.99,7.68-29.33,8.84-10.86,1.22-21.58,3.43-32.6,3.37-31.61-.17-58.67-11.25-81.29-33.66-4.22-4.18-7.35-9.66-13.21-11.98.18,1.87.06,3.91.91,5.38c2.41,4.17,5.24,8.1,8.1,11.98c6.54,8.88,13.47,17.48,19.72,26.56c5.7,8.29,12.9,13.65,22.37,17.13c19.26,7.07,38.18,15.08,57.18,22.87c7.6,3.11,14.96,6.8,22.53,10c15.8,6.67,31.91,12.5,48.71,15.91c12.84,2.61,24.97,7.07,36.86,12.42c8.75,3.94,17.5,7.85,26.27,11.72c8.8,3.88,17.95,6.6,27.32,8.75c10.12,2.32,19.05-.32,27.05-6.31c3.79-2.84,7.24-6.42,10.09-10.24c12.21-16.42,19.73-34.78,20.88-55.48c1.12-20.11.19-40.18-1.94-60.19-.44-4.13-1.27-8.23-1.56-12.37l.01.05ZM546.39,877.8c.15.05.25.16.4.22-.02-.19-.03-.4-.05-.59l-.34.37h-.01ZM730.5,1002.68c-2.59-.88-5.14-1.97-7.8-2.49-20.25-3.97-39.24-11.68-58.11-19.76-18.23-7.81-36.46-15.59-54.72-23.35-2.51-1.06-5.08-2.34-7.72-2.64-1.76-.21-4.43.55-5.44,1.87-7.13,9.26-14.03,18.73-20.81,28.26-2.79,3.92-4.92,8.32-7.69,12.26-6.71,9.56-13.67,18.94-20.34,28.52-.42.6.44,2.77,1.3,3.51c8.31,7.15,17.2,13.68,25.03,21.33c8.33,8.15,15.73,17.28,23.46,26.05c5,5.67,9.79,11.55,14.83,17.19c10.82,12.1,24.76,16.58,39.12,16.72c15.67-.24,27.95-5.3,37.97-15.84c8.1-8.52,15.16-17.84,20.73-28.23c9.12-17.05,16.68-34.84,23.36-53.01.24-.65.36-1.33.56-1.99c1.16-3.84-.32-7.25-3.71-8.39l-.02-.01Zm-176.8-6.93c8.67-14.12,17.36-28.22,27.51-41.34c1.96-2.53,1.92-5.69-.23-7.46-8.59-7.09-15.1-15.94-21.2-25.19-1.9-2.88-3.91-5.71-6.12-8.34-10.23-12.17-19.11-25.3-27.49-38.8-3.64-5.86-7.17-11.85-12.98-15.83-.96-.66-2.54-.51-3.84-.52-.62,0-1.3.39-1.85.77-9.13,6.11-18.03,12.59-27.41,18.27-9.44,5.71-14.93,13.97-17.81,24.38-.92,3.33-1.6,6.73-2.54,10.06-1.33,4.66-2.67,9.32-4.24,13.9-2.8,8.15-7.94,14.36-15.24,18.91-11.78,7.35-24.5,12.15-37.94,15.23-9.93,2.28-19.17.53-27.29-5.46-4.93-3.63-9.59-7.88-13.55-12.56-8.55-10.14-14.51-21.78-17.36-34.91-4.99-23-12.68-45.31-16.87-68.52-.86-4.75-2.6-9.32-4.01-13.96-.71-2.33-3.66-4.22-6.4-4.19-2.05.03-4.1.19-6.15.22-5.03.07-9.32,1.73-12.7,5.64-5.86,6.77-11.69,13.58-17.72,20.19-7.8,8.52-11.44,18.72-12.31,30.09-.37,4.83-.72,9.68-.77,14.53-.11,11.09-.04,22.17-.04,33.26h-.28c0,9.7,0,19.4,0,29.11c0,21.07,4.49,41.19,12.03,60.74c5.49,14.23,12.32,27.77,19.48,41.19c8.72,16.35,22.18,27.99,36.81,38.41c7.42,5.28,16.23,7.43,25.16,8.06c12.96.91,25.95,1.35,38.93,1.72c10.41.3,20.53-1.66,29.78-6.55c12.11-6.4,24.05-13.17,35.86-20.13c5.97-3.52,10.6-8.78,14.64-14.41c15.05-20.96,20.74-27.43,47.81-41.05c10.05-5.05,18.09-12.34,24.02-22.02.72-1.18,1.58-2.27,2.3-3.44h.01ZM257.62,861.61c1.48-6.96,4.44-13.03,8.71-18.55c1.69-2.18,3.39-4.35,5.2-6.42c15.68-17.94,15.43-17.96-8.97-22.95-4-.81-8.07-1.53-12.14-1.79-10.91-.7-21.72-1.92-32.51-3.92-10.81-2-21.92-2.28-32.53.83-9.61,2.81-18.76,2.95-28.1-.48-1.89-.7-4.01-.77-6.03-1.08-2.39-.38-5.99,1.24-6.89,3.45-2.61,6.37-5.63,12.65-7.43,19.26-6.06,22.32-6.18,45.17-4.35,68.01.83,10.38,4.61,20.22,8.67,29.74c4.88,11.44,9.66,22.85,12.56,35.04c2.96,12.46,10.83,20.58,23.08,24c7.89,2.2,15.76,4.83,23.81,5.94c15.64,2.15,30.72,6.44,45.89,10.51c3.27.88,6.6,1.55,9.92,2.24c1.83.38,4.35-1.87,4.02-3.57-1.15-6.1-2.34-12.2-3.51-18.3-.22.02-.44.04-.66.06-.76-8.25-2.1-16.49-2.18-24.74-.23-24.21.02-48.43.15-72.65.05-8.34,1.57-16.49,3.3-24.63h-.01Zm27.86-374.13c-15.36,3.44-30.65,7.41-44.92,14.24-24.11,11.54-47.97,23.58-72.02,35.24-11.67,5.66-19.66,14.51-24.9,26.44-6.15,13.98-11.26,28.23-13.98,43.33-.89,4.94-.42,9.53,1.23,14.25c2.76,7.93,6.64,15.19,11.6,21.88c6.57,8.86,13.3,17.6,19.8,26.52c7.96,10.94,17.82,19.05,31.11,22.37c3.31.83,6.55,1.96,9.81,3c10.58,3.37,20.12,8.63,28.43,16.12c2.56,2.3,5.26,4.45,7.66,6.92c11.21,11.53,25.23,16.14,40.72,17.02c4.77.27,9.57.04,12.84.04c12.55,1.42,23.46,1.25,33.64-3.91c2.98-1.51,6.62-3.25,8.12-5.94c9.23-16.57,22.11-29.85,35.81-42.47c2.26-2.08,1.64-5.18-1.27-6.72-3.63-1.92-7.37-3.64-10.98-5.59-18.26-9.91-27.5-26.22-31.67-46.08-.28-1.34-.4-2.75-.4-4.13c0-16.89,14.51-45.26,31.05-50.48c2.58-.82,5.03-2.08,7.51-3.22c2-.92,2.42-3.75.77-4.87-10.25-6.9-20.67-13.56-30.73-20.72-6.13-4.36-12-9.2-17.51-14.35-9.72-9.09-16.65-20.17-20.64-32.99-2.2-7.04-6.11-6.99-11.06-5.89l-.02-.01ZM804.19,651.36c5.47-2.69,10.75-6.22,15.33-10.28c16.02-14.22,30.59-29.76,40.95-48.93c5.58-10.34,11.65-20.4,17.34-30.68c2.68-4.83,5.17-9.79,7.38-14.85c3.94-9.05,2.13-15.78-6.22-21.61-5.04-3.52-10.45-6.62-16.03-9.18-22.85-10.47-46.73-15.51-77.54-12.51-13.14,2.04-31.17-1.25-48.79-7.68-12.22-4.46-24.43-8.96-36.6-13.56-4.48-1.69-8.87-3.65-13.25-5.6-8.35-3.73-16-2.53-23.05,3.21-1.07.86-2.16,1.7-3.25,2.54-4.33,3.36-5.42,5.81-3.21,10.47c4.28,9.03,5.41,18.56,5.37,28.35-.04,9.01.04,18.04-.48,27.03-.54,9.37,3.35,16.13,10.83,20.94c11.08,7.13,20.44,16.26,29.59,25.63c3.35,3.43,6.55,7.12,9.24,11.09c6,8.83,5.93,18.14,1.07,27.5-4.21,8.09-10.5,14.49-16.61,21.05-5.62,6.04-11.59,11.83-14.7,19.8-.65,1.67.39,4.8,1.92,5.29.64.2,1.2.76,1.83.84c15.67,1.84,31.36,2.58,47.12,1.31c7.64-.61,14.63-3.39,21.49-6.58c16.79-7.79,33.66-15.43,50.27-23.59ZM515.13,800.43c-4.75.44-9.45,1.62-14.2,1.82-10.24.42-18.71-3.4-24.67-12.07-2.34-3.4-4.81-6.82-6.42-10.59-4.72-11.1-13.26-15-24.58-14.82-9.55.16-19.12,0-28.67-.39-6.11-.24-12.22-.97-18.28-1.8-6.42-.88-11.41-4.49-15.34-9.53-8.22-10.55-13.68-22.26-14.34-35.94-.17-3.41-.55-6.81-.95-10.2-.01-.1-1.38-.25-1.94,0-1.21.54-2.53,1.11-3.44,2.03-9.87,9.98-16.74,21.77-20.41,35.42-2.33,8.67-4.53,17.38-6.85,26.06-2.16,8.08-2.92,16.32-2.9,27.96.69,4.28,1.45,11.88,3.2,19.24c6.75,28.21,13.88,56.33,20.75,84.52c2.49,10.21,6.28,19.8,12.75,28.05c3.37,4.3,7.25,8.28,11.32,11.91c5.43,4.86,12.08,6.51,19.14,5.03c12.8-2.69,24.87-7.37,35.76-14.87c3.48-2.4,6.13-5.58,7.59-9.55c1.68-4.52,3.05-9.17,4.44-13.8s2.68-9.29,3.97-13.95c3.27-11.89,10.2-20.93,20.51-27.43c6.38-4.02,12.68-8.16,18.91-12.42c13.18-9,24.06-20.4,33.24-33.48c3.19-4.54,5.66-9.42,5.92-15.23.11-2.6-2-6.08-4.31-6.11-3.4-.04-6.82-.19-10.19.12l-.01.02Zm26.77-19.09c10.57-9.22,22.96-14.87,35.68-20.12c5.68-2.35,11.09-5.4,16.54-8.28c8.1-4.28,16.68-5.91,25.78-5.52c6.81.3,13.63.19,20.45.13c1.89-.02,5.27-4.01,5.01-5.88-.77-5.47-1.17-11.07-2.66-16.34-3.17-11.17,0-20.46,7.05-28.89c2.21-2.64,4.6-5.13,6.97-7.63c3.83-4.03,6.86-8.57,9.17-13.69c5.18-11.49,12.67-21.31,21.4-30.28c3.84-3.94,7.48-8.11,10.83-12.48c6.85-8.93,6.73-16.11-.64-24.17-8.37-9.15-17.02-18.04-27.2-25.22-3.36-2.37-6.72-4.79-9.9-7.41-6.73-5.54-10.41-12.87-10.9-21.57-.35-6.21.2-12.47.09-18.7-.17-8.99-.2-18.02-1-26.97-.73-8.21-5.55-13.89-12.81-17.55-5.64-2.84-11.61-4.13-17.83-4.26-5.46-.11-10.93-.03-16.4-.03v1.05c-6.15,0-12.3.14-18.44-.04-6.48-.19-12-2.93-16.22-7.82-3.6-4.16-6.86-8.64-10.05-13.12-6.86-9.66-15.27-17.75-24.41-25.1-2.1-1.69-4.69-2.77-7.11-4.01-2.04-1.05-6.26-.02-7.45,1.94-2.5,4.12-5.2,8.16-7.15,12.55-4.38,9.85-11.39,17.14-20.12,23.02-16.2,10.93-33.71,18.32-53.21,20.29-9.6.97-19.07.57-28.37-2.74-3.79-1.34-8-1.78-12.04-1.97-2.76-.13-5.28,1.47-6.5,4.24-1.11,2.5-2.48,5.08-2.79,7.74-1.42,12.4-2.51,24.81,1.26,37.11c1.41,4.6,2.27,9.44,2.77,14.24c1.12,10.76-2.64,17.22-12.32,21.44-4.38,1.91-8.97,3.34-13.51,4.87-7.42,2.5-13.29,6.88-17.37,13.76-12.94,21.88-12.72,30.56.89,51.54c3.84,5.92,8.87,10.47,15.23,13.54c4.93,2.38,9.95,4.66,14.63,7.49c7.49,4.53,10.84,12.79,8.99,21.44-.87,4.05-1.8,8.16-3.35,11.98-6.07,14.93-2.93,28.46,5.47,41.38c4.07,6.25,9.76,9.62,17.06,9.98c5.46.27,10.95.11,16.42.2c8.89.14,17.79.22,26.68.52c12.58.43,22.32,5.7,28.35,17.32c2.23,4.29,4.71,8.46,7.4,12.46c3.27,4.85,7.88,7.89,13.87,7.36c10.89-.97,21.79-2.07,32.6-3.64c3.22-.46,6.73-2.03,9.19-4.18l-.03.02ZM517.34,674.16c-2.41,2.4-4.24,5.43-6.76,7.68-6.98,6.26-17.05,6.28-24.4.28-6.9-5.63-9.85-13.11-9.19-21.93.25-3.39,1.56-6.7,1.97-10.1.11-.93-1.16-2.81-2-2.94-4.68-.74-9.61-.38-14.09-1.67-18-5.2-23.14-25.86-9.93-39.36c2.36-2.41,5.26-4.39,8.16-6.14c2.3-1.38,4.99-2.1,7.5-3.14c1.53-.63,2.21-1.83,1.64-3.39-1.18-3.21-2.64-6.32-3.76-9.55-2.86-8.23.09-14.97,5.87-20.59c4-3.89,8.97-6.15,14.59-6.9c10.18-1.36,18.7,1.8,26.19,8.84c3.29,3.09,3.97,3.14,6.89.37c9.33-8.86,19.91-8.08,30.58-4.07c9.7,3.64,13.57,13.67,11.04,21.78-1.15,3.7-3.53,7.2-2.2,11.35c3.93.71,7.97,1.05,11.74,2.25c8.56,2.72,13.28,9.36,15.79,17.69c2.67,8.86-1.76,18.81-10.15,22.5-3.7,1.63-7.77,2.4-11.7,3.46-4.35,1.18-4.81,1.71-3.65,5.14c1.1,3.26,2.55,6.42,3.38,9.75c1.23,4.95-.03,9.67-2.62,13.88-5.61,9.1-18.86,14.16-28.7,10.61-4.42-1.59-8.36-4.52-12.65-6.55-.9-.43-2.79,0-3.54.75Zm19.1-6.92c5.03,1.89,10.24.18,14.1-4.61c1.57-1.95,1.6-5.17.32-7.58-2.51-4.75-6.52-6.46-11.32-6.26-5.2.38-8.89,4.09-9.32,9.14-.34,4.04,2.15,7.78,6.21,9.31h.01Zm2.91-37.72c-3.07-7.64-1.67-14.89,1.11-22.2.29-.76-.9-3.02-1.65-3.15-8.56-1.48-15.2-5.67-19.83-13.21-1.11-1.81-3.63-1.86-5.16-.15-6.21,6.96-13.79,11.18-22.97,12.6-2.02.31-3.78,1.54-3.23,4.14.43,2.03,1.03,4.02,1.56,6.03c1.69,7.6,1.3,15.12-.62,22.64-.73,2.87.09,3.83,3.39,3.47c7.8-.83,14.84.1,21.09,5.63c3.43,3.04,4.25,2.81,6.96.11c4.95-4.96,10.3-8.99,17.19-10.83c1.96-.52,2.98-3.02,2.15-5.08h.01Zm-41.04,23.8c-2.96-.09-5.2,1.32-6.68,3.74-1.86,3.04-2.08,6.37-.79,9.76c1.31,3.43,4.4,5.89,7.46,5.86c2.95-.02,6.05-3.03,6.34-6.72.21-2.66-.06-5.4-.44-8.05-.35-2.41-3.36-4.54-5.89-4.59Zm2.24-68.13c2.72-2.45,4.36-6.68,3.14-8.98-1.61-3.06-3.94-5.44-7.52-6.11-1.31-.25-2.63-.39-5.23-.77-2.02.59-5.33,1.17-8.28,2.54-3.59,1.67-4.7,7.31-2.49,10.53c5.5,8.03,13.35,9.11,20.37,2.79h.01Zm37.44,3.79c5.35-.13,10.1-4.73,10.73-10.06.13-1.11-.67-2.65-1.52-3.5-2.44-2.44-5.59-3.48-8.98-3.82-4.06-.4-7.5,2.99-7.51,9.18.34.92.82,3.67,2.27,5.73.97,1.38,3.31,2.52,5.01,2.48v-.01Zm27.48,37.98c1.2-.33,3.15-.76,5.02-1.43c1.84-.66,3.91-4.68,3.68-6.77-.82-7.33-8.41-11.94-14.63-8.88-3.03,1.49-5.77,3.3-7.47,6.45-1.13,2.11-.53,5.89,1.32,7.38c3.34,2.71,7.21,3.38,12.08,3.24v.01Zm-94.79-15.22c-3.7-.13-6.6,1.38-8.88,4.24-3.24,4.05-4,8.06-2.1,11.39c2.22,3.9,5.71,6.02,10,6.08c1.76.02,4.16-1.11,5.19-2.53c3.57-4.89,3.1-12.53-.77-17.26-.78-.96-2.29-1.31-3.43-1.92h-.01Zm87.97-17.01l.93.47c-.07-.18-.09-.35-.15-.52-.08-.02-.16-.03-.24-.04l-.54.09ZM542.46,874.46c.7,1.75,1.69,3.12,3.82,2.97-.5-2.1-1.77-3.1-3.82-2.97Zm-.75-1.77v1.8c.29-.05.5,0,.75-.03-.07-.17-.15-.31-.21-.48l-.54-1.29Zm5.03,4.75c-.18.03-.3-.02-.47-.01.03.14.1.23.12.38c0,0,.34-.37.34-.37h.01Zm89,33.02c15.14.67,30.05-1.34,44.74-4.64c6.58-1.48,12.94-4.34,19.13-7.17c10.57-4.84,20.89-10.26,31.39-15.26c12.81-6.1,22.54-15.42,29.4-27.92c9.14-16.67,13.42-34.74,14.68-53.57.75-11.2-1.51-22.19-5.51-32.54-9.52-24.62-22.15-47.54-38.36-68.34-2.64-3.39-5.95-5.51-10.45-5.57-7.52-.11-15.03-.43-23.3-.68-4.01-.43-9.02-.15-13.47-1.6-9.55-3.09-15.73,1.31-21.28,8.16-1.3,1.6-2.7,3.12-4.01,4.72-3.74,4.55-5.08,9.73-3.71,15.52.79,3.37,1.79,6.68,2.62,10.04.33,1.34.5,2.72.71,4.09c2.53,16.51-4.73,25.6-20.79,25.77-4.77.05-9.57-.22-14.33-.69-9.86-.99-18.88,1.23-27.6,5.94-7.21,3.9-14.73,7.27-22.27,10.49-6.34,2.71-12.32,5.88-17.82,10.08-6.79,5.19-11.93,11.03-12.56,20.32-.57,8.46-4.94,15.73-9.01,22.97-1.5,2.68-1.12,5.28.38,7.78c1.42,2.36,2.67,4.89,4.44,6.95c11.21,13.05,21.79,26.79,34.03,38.76c17.31,16.95,38.8,25.33,62.95,26.4v-.01Zm89.02-611.9c-8.96-9.53-18.13-18.85-27.25-28.22-3.96-4.07-8.94-6.63-14.33-7.64-12.08-2.27-24.21-4.83-36.43-5.71-20.15-1.44-39.29,3.79-57.72,11.83-6.42,2.8-11.58,7.36-16.07,12.65-4.01,4.73-7.79,9.65-11.49,14.63-7.11,9.59-16.05,16.97-26.29,22.83-4.76,2.73-9.61,5.29-14.39,7.97-6.02,3.37-11.58,7.36-16.3,12.47-7.7,8.35-9.46,9.96.58,17.56c11.18,8.46,19.32,19.62,25.66,32.02c8.48,16.6,16.81,33.3,24.41,50.32c5.17,11.58,13.07,21.04,20.6,30.84c2.69,3.51,6.97,4.47,11.07,4.54c5.45.1,10.91-.51,16.37-.82c10.96-.96,21.86-1.05,32.43,2.79c5.71,2.08,10.57.48,15.2-3.33c3.69-3.04,7.76-5.66,11.85-8.15c6.74-4.11,14.01-5.32,21.69-3.17c1.97.55,3.9,1.28,5.87,1.87c3.43,1.02,6.72.79,9.82-1.17c5.8-3.66,11.6-7.33,17.44-10.94c5.46-3.38,9.18-8.13,11.57-14.1c4.67-11.68,6.73-23.95,8.07-36.36.29-2.7-.2-5.52-.51-8.26-.31-2.75-.64-5.53-1.33-8.2-4.87-19.11-5.35-38.27-1.58-57.66c2.13-10.97-1.44-20.6-8.95-28.59h.01ZM279.31,418.01c4.67,5.07,9.37,10.12,13.82,15.37c6.84,8.08,11.26,17.27,12.25,28.06.64,6.9,1.98,13.74,2.55,20.64.9,10.82,5.46,19.9,12.03,28.17c5.18,6.52,11.12,12.26,17.97,16.94c9.07,6.21,18.17,12.38,27.42,18.31c3.19,2.04,6.74,6.2,10.55,3.31c2.92-2.22.34-6.41-.42-9.7-3.69-15.9-2.97-31.65,1.91-47.16c1.01-3.22,2.9-6.25,4.86-9.03c2.48-3.52,6.13-5.43,10.43-5.88c5.53-.58,10.94.1,16.21,1.78c30.58,9.79,56.34-1.31,80.37-19.28c3.18-2.37,5.58-6.08,7.72-9.56c2.88-4.69,5.05-9.83,7.72-14.67c4.75-8.62,11.45-13.65,21.8-11.8c1.29.24,2.7.07,4.02-.14c1.54-.25,2.39-1.59,1.61-3.09-5.69-11.05-11.11-22.27-17.4-32.97-7.14-12.14-17.01-21.3-30.04-27.32-9.9-4.57-19.17-10.65-28.43-16.55-20.94-13.33-42.74-24.72-66.36-32.39-9.82-3.18-18.83-8.19-27.79-13.28-8.94-5.09-17.9-10.18-27.05-14.86-14.6-7.48-29.16-5.9-43.43,1.16-7.83,3.87-12.97,10.19-14.77,18.88-1.69,8.14-3.45,16.31-4.33,24.56-1.83,17.23-3.11,34.52-4.21,47.2c0,8.08,0,11.54,0,15.01-.03,10.91,3.64,20.32,11,28.3l-.01-.01Zm-95.7,377.98c12.06-3.51,24.46-3.21,36.62-.76c8.1,1.63,16.2,2.55,24.4,3.03c12.35.72,24.35,3.5,36.36,6.28c10.73,2.48,21.54,3.88,32.54,1.87c2.56-.47,5.11-3.03,5.26-5.52.18-2.76.32-5.53.37-8.3.18-9.05.94-18.01,3.48-25.1c1.63-6.24,2.9-10.92,4.07-15.62.79-3.14-1.33-5.85-4.15-5.28-20.49,4.13-40.83,1.94-61.1-1.65-8.93-1.58-16.83-5.71-23.8-11.56-4.74-3.98-9.34-8.13-13.98-12.24-7.31-6.48-15.43-11.42-24.89-14.02-4.62-1.27-9.14-2.89-13.7-4.36-10.7-3.46-19.97-9.27-26.95-18.2-10.19-13.04-20.17-26.25-29.89-39.65-6.56-9.05-9.41-19.92-13.2-30.3-.65-1.8-3.44-1.92-5.01-.23-1.41,1.51-2.92,2.93-4.17,4.56-8,10.43-16.96,19.95-26.52,28.92-7.56,7.1-14.01,15.11-19.55,23.98-6.22,9.94-13.06,19.5-19.41,29.37-5.36,8.33-7.99,17.52-7.69,27.57.21,7.08,1.83,13.71,5.23,19.89c9.15,16.67,23.22,27.13,41.07,32.2c7.85,2.23,16.08,3.89,24.19,4.19c18.63.68,36.77,3.67,54.32,9.84c8.75,3.07,17.15,3.71,26.1,1.1v-.01Z" transform="translate(34.886363-106.977728)" fill="url(#e3BNj8tpQFa24-fill)" fill-rule="evenodd"/></g><clipPath id="e3BNj8tpQFa25" transform="translate(43.70171-123.088489)"><rect width="372" height="51.67" rx="25.83" ry="25.83" transform="matrix(.215247-.97656 0.97656 0.215247 387.74899 1041.317944)" fill="#933523"/></clipPath></g></g><g><text dx="0" dy="0" font-family="&quot;MaturaMTScriptCapitals, Matura MT Script Capitals&quot;" font-size="574.79" font-weight="400" transform="matrix(1.142258-.090134 0.086989 0.996244 369.448037 597.284393)" fill="#933523"><tspan x="0" y="0" font-family="&quot;MaturaMTScriptCapitals, Matura MT Script Capitals&quot;" font-size="574.79" font-weight="400" font-style="normal" fill="#933523"><![CDATA[
C
]]></tspan></text></g><g transform="matrix(1.101725 0 0 1-75.43016-2.130704)" clip-path="url(#e3BNj8tpQFa31)"><clipPath id="e3BNj8tpQFa31"><text dx="0" dy="0" font-family="&quot;MaturaMTScriptCapitals, Matura MT Script Capitals&quot;" font-size="574.79" font-weight="400" transform="matrix(1.03569-.094619 0.099295 0.995093 407.964637 598.49)" fill="#933523"><tspan x="0" y="0" font-family="&quot;MaturaMTScriptCapitals, Matura MT Script Capitals&quot;" font-size="574.79" font-weight="400" font-style="normal" fill="#933523"><![CDATA[
C
]]></tspan></text></clipPath><g transform="translate(140.852627 96.521256)"><path d="M62.25,403.72c2.28,9.41,5.34,20.04,11.69,29.53c5.19,7.77,11.96,13.78,20.52,17.8c4.5,2.11,9.26,3.68,13.8,5.74c7.76,3.52,15.59,6.95,23.1,10.92c8.99,4.76,9.2,5.2,18.05-2.84c9.05-8.22,16.82-16.83,20.19-28.66.94-3.31,2.76-6.39,4.24-9.54c6.46-13.74,16.36-24.19,30.6-30.76c8.37-3.86,16.45-8.32,24.63-12.56c1.86-.96,2.31-4,.69-5.3-17.06-13.72-26.93-32.07-35.34-51.37-3.89-8.93-7.82-17.84-11.82-26.72-1.14-2.53-4.41-3.4-7.28-2.45-8.95,2.96-16.91,7.62-23.74,13.84-13.6,12.37-28.42,23.2-43.53,33.74-12.23,8.54-23.24,18.5-32.91,29.71-4.09,4.75-7.46,10.12-10.85,15.39-2.33,3.64-2.7,7.84-2.04,13.53Zm134-107.08c6.31,14.71,12.91,29.31,19.83,43.76c5.19,10.83,12.88,19.86,22.74,27.21c6.22,4.64,12.27,6.71,19.61,2.46c3.67-2.13,7.69-3.68,11.58-5.45c16.23-7.37,32.98-13.34,50.43-17.41c5.56-1.29,11.06-2.85,16.56-4.37c2.01-.55,4.13-4.35,4.13-6.71c0-7.89-2.23-15.12-7.21-21.34-3.5-4.37-7.11-8.8-11.36-12.44-16.49-14.11-21.38-32.33-20.07-52.59c1.57-24.2,2.75-48.46,7.6-72.35.55-2.72,1.35-5.38,1.93-8.09c2.64-12.48,10.39-21,21.89-26.65c18.24-8.96,36.88-10.71,55.78-2.29c8.43,3.75,16.66,8.03,24.66,12.6c12.98,7.43,26.37,13.76,40.71,18.43c21.1,6.87,40.77,16.78,59.68,28.14c6.68,4.01,13.39,8.01,20.13,11.93c3.05,1.78,5.52,1.54,7.72-.5c2.69-2.49,4.8-5.35,3.49-9.12-.9-2.58-2.21-5.13-3.8-7.38-23.2-32.9-50.38-61.99-84.83-84.34-13.44-8.72-27.99-13.76-43.92-15.27-24.4-2.31-48.66-1.45-72.44,4.68-7.54,1.94-14.99,4.79-21.91,8.29-12.72,6.42-25.81,11.83-39.33,16.48-22.29,7.66-43.16,18.46-64.34,28.52-2.56,1.22-4.95,2.78-7.38,4.25-10.99,6.61-17.85,15.81-18.96,28.58-.54,6.2-1.27,12.41-1.48,18.63-.26,7.62-.06,15.25-.06,20.08-.38,9.04-.7,15.27-.9,21.51-.57,17.58,2.6,34.55,9.55,50.75h-.03ZM341.02,86c4.96-.58,9.89-1.4,14.83-2.12c23.39-4.56,46.73-4.16,70.19-.12c14.4,2.48,27.38,7.77,39.14,15.9c22.14,15.28,43.74,31.16,60.25,52.55c2.96,3.83,6.73,7.11,10.36,10.39.78.71,3.11.94,3.89.35c10.78-8.12,20.22-17.5,27.31-28.87c2.95-4.73,5.38-9.75,8.07-14.64c4.35-7.93,8.53-15.95,13.13-23.75c4.99-8.46,8.96-17.29,11.88-26.59.72-2.31-.78-5.72-3.18-7-2.5-1.32-4.98-2.73-7.6-3.82-10.55-4.42-20.26-10.19-29.56-16.67-1.74-1.21-3.62-2.23-5.32-3.49-14.09-10.43-29.5-12.97-46.51-7.99-5.41,1.59-11.2,2.14-16.87,2.69-9.36.9-18.52-.12-27.33-3.57-5.29-2.07-10.74-3.79-15.95-6.02-11.71-5.01-23.55-4.68-35.6-1.44-9.01,2.42-17.59,5.8-25.44,10.71-19.35,12.11-36.56,26.53-50.17,44.69-1.95,2.6-5.72,5.35-3.36,8.91c1.8,2.72,5.19.21,7.83-.1h.01Zm216.59,79.32c-2.63,2.32-4.86,5.06-7.21,7.67-2.17,2.41-2.52,5.09-.96,7.56c1.86,2.95,3.77,5.87,5.8,8.71c2.09,2.92,4.65,3.7,7.24,2.3c8.73-4.72,17.4-9.55,26.16-14.22c9.55-5.09,17.47-11.92,24.03-20.33c3.45-4.41,7.03-8.74,10.61-13.05c7.83-9.4,17.73-16.15,29.44-20.04c26.68-8.87,53.63-13.84,82.01-7.22c12.49,2.91,25.3,4.08,36.46,11.07c4.26,2.67,6.79,1.13,6.4-7.28-.18-.85-.89-5.63-2.27-10.23-4.78-15.94-9.78-31.82-14.72-47.72-3.53-11.35-8.83-21.87-15.74-31.66C732.91,13.93,716.05,4.37,695.68,0.3c-3.32-.66-7.11-.09-10.49.7-7.02,1.63-13.23,5.11-19.21,8.96-12.56,8.08-23.85,17.6-34.44,27.97-5.12,5.01-9.12,10.82-11.34,17.43-8.01,23.81-20.17,45.69-31.95,67.84-8.26,15.54-17.2,30.28-30.66,42.14l.02-.02Zm245.74-5.31c10.34,10.88,14.48,23.59,12.32,38.26-.71,4.8-1.29,9.61-1.74,14.44-1.62,17.48,1.67,34.41,6.32,51.16.28,1.02,2.21,2.44,3.16,2.3c3.47-.5,6.97-1.29,10.25-2.5c10.35-3.8,21.06-4.07,31.73-2.62c13.42,1.83,27.08,2.25,40.22,5.92c2.04.57,4.22.67,6.33,1c2.53.4,6.11-1.69,6.75-4.03c5.51-20.13,10.45-40.33,7.72-64.63-.86-5.78-1.07-14.71.65-23.69c1.32-6.89.31-13.72-1.31-20.57-2.73-11.52-6.39-22.73-11.35-33.48-2.31-5.01-5.39-9.78-8.76-14.2-3.96-5.2-9.6-8.33-16.36-8.85-5.68-.44-11.41-.64-17.11-.5-4.99.12-10.07.37-14.92,1.4-31.03,6.63-33.6,7.79-53.71,27.3-3.52,3.42-6.89,7-10.12,10.68-2.27,2.59-2.33,9.22-.09,11.82c3.2,3.71,6.64,7.23,10.02,10.78v.01Zm54.11,113.6c-12.7-.78-23.94,3.09-34.74,8.9-2.66,1.43-4.25,3.7-5.09,6.4-1.66,5.31-3.09,10.69-4.68,16.01-3.72,12.41-10.02,22.94-22.36,29.21-2.5,1.27-4.7,3.11-7.01,4.73-1.9,1.34-1.84,4.04.08,4.92c15.59,7.16,31.97,12.09,48.8,15.47c10.6,2.13,21.4.89,32.1.22c29.34-2.12,56.84,4.47,83.16,16.54c8.46,3.88,16.31,8.59,22.62,15.51c6.23,6.84,8.07,14.75,5.45,23.24-1.83,5.93-4.48,11.73-7.58,17.16-8.67,15.16-17.47,30.27-26.75,45.08-11.65,18.6-27.73,33.44-44.67,47.44-6.05,5-13.27,8.11-20.46,11.25-7.8,3.42-15.49,7.06-23.2,10.68-1.92.9-2.3,4.1-.71,5.16c3.54,2.35,7.01,4.8,10.58,7.09c14.62,9.38,26.24,21.37,34.16,36.62c1.28,2.46,2.79,4.83,4.34,7.14c1.29,1.93,3.42,2.3,5.61,2.27.7,0,1.46-.14,2.09-.42c17.05-7.53,35.13-11.69,53.35-15.4c11.29-2.3,22.04-6.1,31.84-12.03c15.17-9.18,30.24-18.52,45.24-27.96c9.72-6.11,17.4-14.33,24.48-23.14c7.04-8.74,14.14-17.44,21.42-25.99c8.82-10.36,14.33-22.33,18.49-34.95c3.93-11.92,6.06-24.25,7.91-36.6c1.04-6.9.84-13.76-1.78-20.5-2.01-5.18-3.45-10.58-4.81-15.97-3.57-14.05-11.62-25.23-23.23-34.05-6.19-4.7-12.75-8.93-19.18-13.33-13.44-9.2-26.9-18.37-40.35-27.55-4.09-2.8-8.1-5.73-12.27-8.41-9.77-6.29-20.37-10.03-32.31-9.49-2.14.1-4.3-.12-6.44,0-12.42.63-24.15-1.99-35.42-6.9-3.26-1.42-6.63-2.62-9.86-4.09-21.81-9.93-45.13-12.79-68.82-14.24v-.02ZM1086.8,566.95c-5.97-5.95-12.23-11.64-18.48-17.32-.97-.88-2.55-1.13-4.08-1.77-1.7.95-3.73,1.75-5.34,3.03-16.07,12.81-33.87,23.12-51.46,33.75-14.71,8.88-30.51,14.93-47.59,18.18-10.48,2-20.77,5.02-31.04,7.96-4.77,1.37-9.3,3.53-13.88,5.48-3.96,1.68-5.43,4.57-4.36,8.23c7.82,26.77,17.86,52.62,33.73,76.04.39.58.77,1.17,1.15,1.75c4.25,6.44,8.13,13.06,10.12,20.54c1.92,7.2,7.05,7.79,13.37,6.34c9.76-2.23,19.19-5.4,27.96-10.28c11.76-6.55,23.43-13.19,36.04-18.3c10.62-4.31,19.51-11.57,27.36-19.74c13.16-13.69,26.14-27.53,39.14-41.36c1.92-2.04,3.93-4.14,5.24-6.55c1.29-2.38,2.69-5.27,2.43-7.78-1.81-17.34-6.27-34.06-14.09-49.81-1.52-3.06-3.75-5.95-6.21-8.4l-.01.01ZM946.37,746.17c-1.1-14.86-6.1-28.25-14.58-40.72-13.06-19.21-22.36-40.18-29.3-62.16-4.4-13.92-9.82-27.43-16.41-40.57-10.96-21.83-29.91-34.81-51.58-44.9-1.72-.8-4.33-.72-6.22-.12-4.04,1.27-7.9,3.11-11.8,4.8-1.82.79-2.48,3.58-1.29,5.38c8.47,12.83,17.25,25.48,24.26,39.16c2.86,5.58,5.83,11.11,8.61,16.73c12.29,24.84,13.74,50.59,6.62,76.98-3.08,11.42-7.23,22.45-13.47,32.69-8.22,13.5-19.37,23.9-33.94,30.78-12.2,5.76-24.4,11.53-36.65,17.2-9.73,4.5-19.85,7.68-30.67,8.84-11.35,1.22-22.57,3.43-34.1,3.37-33.05-.17-61.35-11.25-85-33.66-4.41-4.18-7.68-9.66-13.81-11.98.19,1.87.07,3.91.95,5.38c2.52,4.17,5.48,8.1,8.47,11.98c6.84,8.88,14.09,17.48,20.62,26.56c5.96,8.29,13.49,13.65,23.4,17.13c20.14,7.07,39.93,15.08,59.8,22.87c7.94,3.11,15.65,6.8,23.56,10c16.52,6.67,33.37,12.5,50.94,15.91c13.43,2.61,26.11,7.07,38.55,12.42c9.15,3.94,18.3,7.85,27.48,11.72c9.2,3.88,18.77,6.6,28.57,8.75c10.58,2.32,19.92-.32,28.28-6.31c3.96-2.84,7.57-6.42,10.55-10.24c12.77-16.42,20.64-34.78,21.84-55.48c1.17-20.11.2-40.18-2.03-60.19-.46-4.13-1.33-8.23-1.63-12.37l-.02.05ZM606.63,747.8c.16.05.26.16.41.22-.02-.19-.03-.4-.05-.59l-.36.37ZM799.15,872.68c-2.71-.88-5.38-1.97-8.16-2.49-21.17-3.97-41.03-11.68-60.77-19.76-19.06-7.81-38.13-15.59-57.22-23.35-2.63-1.06-5.31-2.34-8.08-2.64-1.84-.21-4.63.55-5.69,1.87-7.46,9.26-14.67,18.73-21.76,28.26-2.92,3.92-5.14,8.32-8.04,12.26-7.02,9.56-14.3,18.94-21.27,28.52-.44.6.46,2.77,1.36,3.51c8.69,7.15,17.99,13.68,26.17,21.33c8.71,8.15,16.45,17.28,24.53,26.05c5.23,5.67,10.23,11.55,15.51,17.19c11.32,12.1,25.9,16.58,40.91,16.72c16.39-.24,29.22-5.3,39.71-15.84c8.47-8.52,15.86-17.84,21.67-28.23c9.54-17.05,17.44-34.84,24.43-53.01.25-.65.37-1.33.58-1.99c1.21-3.84-.34-7.25-3.88-8.39v-.01Zm-184.88-6.93c9.07-14.12,18.16-28.22,28.76-41.34c2.05-2.53,2-5.69-.24-7.46-8.99-7.09-15.79-15.94-22.17-25.19-1.98-2.88-4.08-5.71-6.4-8.34-10.7-12.17-19.99-25.3-28.75-38.8-3.8-5.86-7.5-11.85-13.58-15.83-1.01-.66-2.66-.51-4.01-.52-.65,0-1.36.39-1.94.77-9.54,6.11-18.86,12.59-28.66,18.27-9.87,5.71-15.61,13.97-18.62,24.38-.96,3.33-1.67,6.73-2.66,10.06-1.39,4.66-2.79,9.32-4.44,13.9-2.93,8.15-8.31,14.36-15.94,18.91-12.32,7.35-25.62,12.15-39.67,15.23-10.39,2.28-20.04.53-28.53-5.46-5.15-3.63-10.03-7.88-14.17-12.56-8.94-10.14-15.17-21.78-18.15-34.91-5.22-23-13.26-45.31-17.64-68.52-.9-4.75-2.72-9.32-4.19-13.96-.74-2.33-3.83-4.22-6.7-4.19-2.14.03-4.29.19-6.43.22-5.26.07-9.74,1.73-13.28,5.64-6.13,6.77-12.22,13.58-18.53,20.19-8.15,8.52-11.96,18.72-12.87,30.09-.39,4.83-.75,9.68-.8,14.53-.12,11.09-.04,22.17-.04,33.26h-.29c0,9.7,0,19.4,0,29.11c0,21.07,4.69,41.19,12.58,60.74c5.74,14.23,12.89,27.77,20.37,41.19c9.12,16.35,23.2,27.99,38.49,38.41c7.76,5.28,16.97,7.43,26.31,8.06c13.55.91,27.14,1.35,40.71,1.72c10.89.3,21.47-1.66,31.14-6.55c12.67-6.4,25.15-13.17,37.5-20.13c6.24-3.52,11.08-8.78,15.3-14.41c15.74-20.96,21.69-27.43,50-41.05c10.51-5.05,18.92-12.34,25.11-22.02.75-1.18,1.65-2.27,2.41-3.44h.02ZM304.65,731.61c1.55-6.96,4.64-13.03,9.11-18.55c1.76-2.18,3.54-4.35,5.43-6.42c16.4-17.94,16.13-17.96-9.38-22.95-4.19-.81-8.44-1.53-12.69-1.79-11.41-.7-22.72-1.92-33.99-3.92-11.3-2-22.92-2.28-34.02.83-10.05,2.81-19.62,2.95-29.38-.48-1.98-.7-4.2-.77-6.31-1.08-2.5-.38-6.27,1.24-7.21,3.45-2.73,6.37-5.89,12.65-7.77,19.26-6.33,22.32-6.46,45.17-4.55,68.01.87,10.38,4.82,20.22,9.07,29.74c5.11,11.44,10.1,22.85,13.13,35.04c3.09,12.46,11.32,20.58,24.14,24c8.25,2.2,16.48,4.83,24.9,5.94c16.35,2.15,32.12,6.44,47.99,10.51c3.42.88,6.9,1.55,10.37,2.24c1.91.38,4.54-1.87,4.21-3.57-1.2-6.1-2.45-12.2-3.67-18.3-.23.02-.46.04-.69.06-.8-8.25-2.2-16.49-2.28-24.74-.24-24.21.02-48.43.16-72.65.05-8.34,1.64-16.49,3.45-24.63h-.02Zm29.14-374.13c-16.07,3.44-32.05,7.41-46.98,14.24-25.21,11.54-50.16,23.58-75.31,35.24-12.2,5.66-20.56,14.51-26.04,26.44-6.43,13.98-11.77,28.23-14.62,43.33-.93,4.94-.43,9.53,1.29,14.25c2.89,7.93,6.94,15.19,12.13,21.88c6.87,8.86,13.91,17.6,20.7,26.52c8.33,10.94,18.64,19.05,32.53,22.37c3.46.83,6.85,1.96,10.26,3c11.06,3.37,21.04,8.63,29.73,16.12c2.67,2.3,5.5,4.45,8.01,6.92c11.73,11.53,26.38,16.14,42.58,17.02c4.99.27,10.01.04,13.43.04c13.12,1.42,24.53,1.25,35.17-3.91c3.12-1.51,6.93-3.25,8.49-5.94c9.65-16.57,23.12-29.85,37.45-42.47c2.36-2.08,1.71-5.18-1.33-6.72-3.8-1.92-7.71-3.64-11.48-5.59-19.09-9.91-28.76-26.22-33.12-46.08-.3-1.34-.42-2.75-.42-4.13c0-16.89,15.17-45.26,32.47-50.48c2.7-.82,5.27-2.08,7.85-3.22c2.09-.92,2.54-3.75.8-4.87-10.72-6.9-21.61-13.56-32.14-20.72-6.41-4.36-12.55-9.2-18.31-14.35-10.17-9.09-17.41-20.17-21.59-32.99-2.3-7.04-6.39-6.99-11.56-5.89l.01-.01ZM876.21,521.36c5.72-2.69,11.24-6.22,16.03-10.28c16.75-14.22,31.99-29.76,42.82-48.93c5.84-10.34,12.19-20.4,18.13-30.68c2.8-4.83,5.41-9.79,7.72-14.85c4.12-9.05,2.23-15.78-6.5-21.61-5.27-3.52-10.93-6.62-16.76-9.18-23.89-10.47-48.87-15.51-81.08-12.51-13.74,2.04-32.6-1.25-51.02-7.68-12.78-4.46-25.54-8.96-38.27-13.56-4.69-1.69-9.28-3.65-13.86-5.6-8.74-3.73-16.73-2.53-24.1,3.21-1.12.86-2.26,1.7-3.39,2.54-4.53,3.36-5.67,5.81-3.36,10.47c4.48,9.03,5.66,18.56,5.61,28.35-.04,9.01.04,18.04-.51,27.03-.57,9.37,3.5,16.13,11.33,20.94c11.58,7.13,21.37,16.26,30.94,25.63c3.51,3.43,6.85,7.12,9.67,11.09c6.27,8.83,6.21,18.14,1.12,27.5-4.4,8.09-10.98,14.49-17.37,21.05-5.88,6.04-12.12,11.83-15.37,19.8-.68,1.67.41,4.8,2.01,5.29.67.2,1.25.76,1.92.84c16.38,1.84,32.8,2.58,49.27,1.31c7.99-.61,15.3-3.39,22.47-6.58c17.56-7.79,35.19-15.43,52.57-23.59h-.02ZM573.93,670.43c-4.97.44-9.88,1.62-14.85,1.82-10.7.42-19.56-3.4-25.8-12.07-2.44-3.4-5.03-6.82-6.71-10.59-4.93-11.1-13.87-15-25.71-14.82-9.99.16-20,0-29.98-.39-6.39-.24-12.77-.97-19.11-1.8-6.71-.88-11.94-4.49-16.04-9.53-8.6-10.55-14.3-22.26-15-35.94-.17-3.41-.58-6.81-.99-10.2-.01-.1-1.44-.25-2.03,0-1.27.54-2.65,1.11-3.6,2.03-10.32,9.98-17.51,21.77-21.35,35.42-2.44,8.67-4.74,17.38-7.16,26.06-2.26,8.08-3.05,16.32-3.03,27.96.73,4.28,1.51,11.88,3.35,19.24c7.06,28.21,14.51,56.33,21.7,84.52c2.6,10.21,6.57,19.8,13.33,28.05c3.52,4.3,7.58,8.28,11.83,11.91c5.68,4.86,12.63,6.51,20.02,5.03c13.39-2.69,26.01-7.37,37.4-14.87c3.64-2.4,6.41-5.58,7.94-9.55c1.76-4.52,3.19-9.17,4.64-13.8c1.46-4.63,2.81-9.29,4.15-13.95c3.42-11.89,10.67-20.93,21.45-27.43c6.67-4.02,13.26-8.16,19.77-12.42c13.78-9,25.16-20.4,34.76-33.48c3.33-4.54,5.92-9.42,6.19-15.23.12-2.6-2.1-6.08-4.5-6.11-3.55-.04-7.13-.19-10.66.12l-.01.02Zm28-19.09c11.05-9.22,24.01-14.87,37.31-20.12c5.94-2.35,11.59-5.4,17.3-8.28c8.47-4.28,17.44-5.91,26.96-5.52c7.12.3,14.26.19,21.38.13c1.98-.02,5.51-4.01,5.24-5.88-.8-5.47-1.22-11.07-2.79-16.34-3.31-11.17,0-20.46,7.38-28.89c2.31-2.64,4.81-5.13,7.29-7.63c4.01-4.03,7.18-8.57,9.59-13.69c5.41-11.49,13.25-21.31,22.38-30.28c4.01-3.94,7.82-8.11,11.32-12.48c7.17-8.93,7.04-16.11-.67-24.17-8.75-9.15-17.8-18.04-28.45-25.22-3.52-2.37-7.03-4.79-10.35-7.41-7.04-5.54-10.89-12.87-11.4-21.57-.37-6.21.21-12.47.09-18.7-.18-8.99-.21-18.02-1.04-26.97-.76-8.21-5.81-13.89-13.4-17.55-5.9-2.84-12.14-4.13-18.65-4.26-5.71-.11-11.43-.03-17.15-.03v1.05c-6.43,0-12.86.14-19.29-.04-6.78-.19-12.55-2.93-16.97-7.82-3.76-4.16-7.17-8.64-10.51-13.12-7.17-9.66-15.97-17.75-25.52-25.1-2.19-1.69-4.9-2.77-7.44-4.01-2.13-1.05-6.54-.02-7.79,1.94-2.62,4.12-5.44,8.16-7.48,12.55-4.58,9.85-11.91,17.14-21.04,23.02-16.94,10.93-35.25,18.32-55.64,20.29-10.04.97-19.94.57-29.67-2.74-3.96-1.34-8.36-1.78-12.59-1.97-2.89-.13-5.52,1.47-6.8,4.24-1.16,2.5-2.6,5.08-2.92,7.74-1.49,12.4-2.62,24.81,1.32,37.11c1.47,4.6,2.38,9.44,2.9,14.24c1.17,10.76-2.76,17.22-12.89,21.44-4.58,1.91-9.38,3.34-14.13,4.87-7.75,2.5-13.9,6.88-18.16,13.76-13.54,21.88-13.3,30.56.93,51.54c4.02,5.92,9.27,10.47,15.92,13.54c5.16,2.38,10.41,4.66,15.3,7.49c7.83,4.53,11.34,12.79,9.4,21.44-.91,4.05-1.89,8.16-3.51,11.98-6.35,14.93-3.07,28.46,5.72,41.38c4.26,6.25,10.2,9.62,17.84,9.98c5.71.27,11.45.11,17.17.2c9.3.14,18.6.22,27.9.52c13.15.43,23.34,5.7,29.64,17.32c2.33,4.29,4.92,8.46,7.74,12.46c3.42,4.85,8.24,7.89,14.5,7.36c11.39-.97,22.78-2.07,34.1-3.64c3.37-.46,7.04-2.03,9.61-4.18l.02.02ZM576.24,544.16c-2.52,2.4-4.43,5.43-7.06,7.68-7.3,6.26-17.83,6.28-25.52.28-7.22-5.63-10.3-13.11-9.61-21.93.26-3.39,1.63-6.7,2.06-10.1.12-.93-1.22-2.81-2.09-2.94-4.89-.74-10.05-.38-14.74-1.67-18.82-5.2-24.2-25.86-10.38-39.36c2.47-2.41,5.5-4.39,8.54-6.14c2.4-1.38,5.22-2.1,7.84-3.14c1.6-.63,2.31-1.83,1.72-3.39-1.23-3.21-2.76-6.32-3.93-9.55-2.99-8.23.1-14.97,6.13-20.59c4.19-3.89,9.38-6.15,15.26-6.9c10.64-1.36,19.56,1.8,27.39,8.84c3.44,3.09,4.15,3.14,7.21.37c9.75-8.86,20.82-8.08,31.97-4.07c10.14,3.64,14.19,13.67,11.54,21.78-1.2,3.7-3.7,7.2-2.31,11.35c4.11.71,8.33,1.05,12.28,2.25c8.95,2.72,13.89,9.36,16.51,17.69c2.79,8.86-1.84,18.81-10.61,22.5-3.87,1.63-8.13,2.4-12.23,3.46-4.55,1.18-5.03,1.71-3.81,5.14c1.15,3.26,2.67,6.42,3.53,9.75c1.28,4.95-.03,9.67-2.74,13.88-5.87,9.1-19.73,14.16-30.02,10.61-4.62-1.59-8.74-4.52-13.22-6.55-.94-.43-2.92,0-3.7.75h-.01Zm19.97-6.92c5.26,1.89,10.71.18,14.75-4.61c1.64-1.95,1.67-5.17.34-7.58-2.62-4.75-6.82-6.46-11.84-6.26-5.44.38-9.29,4.09-9.75,9.14-.36,4.04,2.25,7.78,6.5,9.31Zm3.04-37.72c-3.21-7.64-1.75-14.89,1.16-22.2.31-.76-.94-3.02-1.72-3.15-8.95-1.48-15.89-5.67-20.74-13.21-1.16-1.81-3.8-1.86-5.39-.15-6.5,6.96-14.42,11.18-24.02,12.6-2.12.31-3.95,1.54-3.38,4.14.45,2.03,1.08,4.02,1.63,6.03c1.77,7.6,1.36,15.12-.65,22.64-.77,2.87.09,3.83,3.55,3.47c8.15-.83,15.52.1,22.06,5.63c3.59,3.04,4.45,2.81,7.27.11c5.18-4.96,10.77-8.99,17.98-10.83c2.05-.52,3.12-3.02,2.25-5.08Zm-42.92,23.8c-3.09-.09-5.44,1.32-6.98,3.74-1.94,3.04-2.17,6.37-.82,9.76c1.37,3.43,4.6,5.89,7.8,5.86c3.09-.02,6.33-3.03,6.63-6.72.22-2.66-.06-5.4-.46-8.05-.36-2.41-3.52-4.54-6.16-4.59h-.01Zm2.35-68.13c2.84-2.45,4.56-6.68,3.29-8.98-1.69-3.06-4.12-5.44-7.86-6.11-1.37-.25-2.75-.39-5.47-.77-2.11.59-5.57,1.17-8.66,2.54-3.76,1.67-4.91,7.31-2.6,10.53c5.75,8.03,13.96,9.11,21.3,2.79Zm39.15,3.79c5.6-.13,10.57-4.73,11.22-10.06.13-1.11-.7-2.65-1.59-3.5-2.55-2.44-5.85-3.48-9.4-3.82-4.25-.4-7.84,2.99-7.85,9.18.35.92.86,3.67,2.37,5.73c1.01,1.38,3.46,2.52,5.24,2.48l.01-.01Zm28.74,37.98c1.25-.33,3.3-.76,5.25-1.43c1.93-.66,4.09-4.68,3.84-6.77-.86-7.33-8.79-11.94-15.29-8.88-3.17,1.49-6.03,3.3-7.81,6.45-1.19,2.11-.55,5.89,1.38,7.38c3.49,2.71,7.54,3.38,12.63,3.24v.01Zm-99.12-15.22c-3.87-.13-6.9,1.38-9.29,4.24-3.39,4.05-4.18,8.06-2.2,11.39c2.32,3.9,5.97,6.02,10.45,6.08c1.84.02,4.35-1.11,5.43-2.53c3.73-4.89,3.24-12.53-.81-17.26-.82-.96-2.4-1.31-3.58-1.92Zm91.99-17.01l.98.47c-.07-.18-.1-.35-.15-.52-.09-.02-.17-.03-.26-.04l-.57.09ZM602.51,744.46c.73,1.75,1.76,3.12,3.99,2.97-.52-2.1-1.85-3.1-3.99-2.97Zm-.78-1.77v1.8c.3-.05.52,0,.78-.03-.07-.17-.15-.31-.22-.48l-.56-1.29Zm5.26,4.75c-.19.03-.31-.02-.49-.01.04.14.1.23.13.38c0,0,.36-.37.36-.37Zm93.07,33.02c15.83.67,31.43-1.34,46.79-4.64c6.88-1.48,13.53-4.34,20.01-7.17c11.06-4.84,21.84-10.26,32.83-15.26c13.4-6.1,23.57-15.42,30.74-27.92c9.56-16.67,14.03-34.74,15.35-53.57.78-11.2-1.58-22.19-5.76-32.54-9.96-24.62-23.16-47.54-40.12-68.34-2.77-3.39-6.22-5.51-10.92-5.57-7.86-.11-15.72-.43-24.36-.68-4.2-.43-9.43-.15-14.09-1.6-9.98-3.09-16.45,1.31-22.26,8.16-1.36,1.6-2.83,3.12-4.2,4.72-3.91,4.55-5.31,9.73-3.88,15.52.83,3.37,1.87,6.68,2.74,10.04.35,1.34.52,2.72.74,4.09c2.65,16.51-4.95,25.6-21.74,25.77-4.99.05-10.01-.22-14.98-.69-10.31-.99-19.75,1.23-28.86,5.94-7.54,3.9-15.4,7.27-23.29,10.49-6.63,2.71-12.88,5.88-18.64,10.08-7.1,5.19-12.47,11.03-13.13,20.32-.6,8.46-5.17,15.73-9.42,22.97-1.57,2.68-1.17,5.28.4,7.78c1.48,2.36,2.79,4.89,4.64,6.95c11.73,13.05,22.78,26.79,35.58,38.76c18.1,16.95,40.58,25.33,65.83,26.4v-.01Zm93.09-611.9c-9.37-9.53-18.96-18.85-28.49-28.22-4.14-4.07-9.35-6.63-14.98-7.64-12.64-2.27-25.32-4.83-38.09-5.71-21.07-1.44-41.09,3.79-60.35,11.83-6.72,2.8-12.11,7.36-16.8,12.65-4.19,4.73-8.15,9.65-12.01,14.63-7.44,9.59-16.79,16.97-27.49,22.83-4.98,2.73-10.05,5.29-15.05,7.97-6.29,3.37-12.11,7.36-17.04,12.47-8.06,8.35-9.89,9.96.61,17.56c11.69,8.46,20.21,19.62,26.83,32.02c8.87,16.6,17.58,33.3,25.52,50.32c5.41,11.58,13.66,21.04,21.54,30.84c2.82,3.51,7.29,4.47,11.58,4.54c5.7.1,11.41-.51,17.11-.82c11.46-.96,22.86-1.05,33.91,2.79c5.98,2.08,11.05.48,15.89-3.33c3.86-3.04,8.12-5.66,12.4-8.15c7.05-4.11,14.65-5.32,22.68-3.17c2.07.55,4.08,1.28,6.13,1.87c3.59,1.02,7.03.79,10.27-1.17c6.07-3.66,12.13-7.33,18.24-10.94c5.71-3.38,9.6-8.13,12.1-14.1c4.89-11.68,7.04-23.95,8.44-36.36.31-2.7-.21-5.52-.53-8.26-.33-2.75-.67-5.53-1.39-8.2-5.09-19.11-5.59-38.27-1.66-57.66c2.23-10.97-1.5-20.6-9.36-28.59h-.01ZM327.34,288.01c4.88,5.07,9.79,10.12,14.45,15.37c7.16,8.08,11.77,17.27,12.81,28.06.66,6.9,2.07,13.74,2.67,20.64.94,10.82,5.71,19.9,12.58,28.17c5.42,6.52,11.63,12.26,18.79,16.94c9.48,6.21,19,12.38,28.67,18.31c3.33,2.04,7.05,6.2,11.04,3.31c3.06-2.22.36-6.41-.44-9.7-3.86-15.9-3.11-31.65,1.99-47.16c1.06-3.22,3.03-6.25,5.08-9.03c2.59-3.52,6.41-5.43,10.91-5.88c5.78-.58,11.44.1,16.95,1.78c31.97,9.79,58.92-1.31,84.04-19.28c3.32-2.37,5.83-6.08,8.07-9.56c3.01-4.69,5.29-9.83,8.07-14.67c4.97-8.62,11.98-13.65,22.8-11.8c1.35.24,2.83.07,4.2-.14c1.61-.25,2.5-1.59,1.69-3.09-5.95-11.05-11.62-22.27-18.19-32.97-7.47-12.14-17.79-21.3-31.42-27.32-10.36-4.57-20.05-10.65-29.73-16.55-21.9-13.33-44.7-24.72-69.4-32.39-10.27-3.18-19.69-8.19-29.06-13.28-9.35-5.09-18.71-10.18-28.28-14.86-15.26-7.48-30.49-5.9-45.41,1.16-8.19,3.87-13.56,10.19-15.44,18.88-1.77,8.14-3.61,16.31-4.53,24.56-1.92,17.23-3.25,34.52-4.41,47.2c0,8.08,0,11.54,0,15.01-.03,10.91,3.8,20.32,11.5,28.3v-.01ZM227.27,665.99c12.61-3.51,25.57-3.21,38.29-.76c8.47,1.63,16.94,2.55,25.52,3.03c12.92.72,25.46,3.5,38.02,6.28c11.22,2.48,22.53,3.88,34.02,1.87c2.68-.47,5.34-3.03,5.5-5.52.19-2.76.33-5.53.39-8.3.18-9.05.98-18.01,3.64-25.1c1.71-6.24,3.03-10.92,4.26-15.62.82-3.14-1.39-5.85-4.34-5.28-21.43,4.13-42.7,1.94-63.89-1.65-9.34-1.58-17.6-5.71-24.89-11.56-4.96-3.98-9.77-8.13-14.61-12.24-7.64-6.48-16.14-11.42-26.03-14.02-4.83-1.27-9.56-2.89-14.33-4.36-11.18-3.46-20.88-9.27-28.18-18.2-10.65-13.04-21.09-26.25-31.25-39.65-6.86-9.05-9.84-19.92-13.8-30.3-.68-1.8-3.59-1.92-5.24-.23-1.47,1.51-3.06,2.93-4.36,4.56-8.37,10.43-17.74,19.95-27.73,28.92-7.91,7.1-14.65,15.11-20.45,23.98-6.5,9.94-13.66,19.5-20.3,29.37-5.61,8.33-8.36,17.52-8.04,27.57.22,7.08,1.92,13.71,5.47,19.89c9.57,16.67,24.28,27.13,42.95,32.2c8.21,2.23,16.81,3.89,25.29,4.19c19.48.68,38.45,3.67,56.81,9.84c9.15,3.07,17.93,3.71,27.29,1.1l-.01-.01Z" fill="url(#e3BNj8tpQFa35-fill)" fill-rule="evenodd"/></g></g></g>
<script><![CDATA[
!function(t,n){"object"==typeof exports&&"undefined"!=typeof module?module.exports=n():"function"==typeof __SVGATOR_DEFINE__&&__SVGATOR_DEFINE__.amd?__SVGATOR_DEFINE__(n):((t="undefined"!=typeof globalThis?globalThis:t||self).__SVGATOR_PLAYER__=t.__SVGATOR_PLAYER__||{},t.__SVGATOR_PLAYER__["5c7f360c"]=n())}(this,(function(){"use strict";function t(t,n){var e=Object.keys(t);if(Object.getOwnPropertySymbols){var r=Object.getOwnPropertySymbols(t);n&&(r=r.filter((function(n){return Object.getOwnPropertyDescriptor(t,n).enumerable}))),e.push.apply(e,r)}return e}function n(n){for(var e=1;e<arguments.length;e++){var r=null!=arguments[e]?arguments[e]:{};e%2?t(Object(r),!0).forEach((function(t){u(n,t,r[t])})):Object.getOwnPropertyDescriptors?Object.defineProperties(n,Object.getOwnPropertyDescriptors(r)):t(Object(r)).forEach((function(t){Object.defineProperty(n,t,Object.getOwnPropertyDescriptor(r,t))}))}return n}function e(t){return(e="function"==typeof Symbol&&"symbol"==typeof Symbol.iterator?function(t){return typeof t}:function(t){return t&&"function"==typeof Symbol&&t.constructor===Symbol&&t!==Symbol.prototype?"symbol":typeof t})(t)}function r(t,n){if(!(t instanceof n))throw new TypeError("Cannot call a class as a function")}function i(t,n){for(var e=0;e<n.length;e++){var r=n[e];r.enumerable=r.enumerable||!1,r.configurable=!0,"value"in r&&(r.writable=!0),Object.defineProperty(t,r.key,r)}}function o(t,n,e){return n&&i(t.prototype,n),e&&i(t,e),t}function u(t,n,e){return n in t?Object.defineProperty(t,n,{value:e,enumerable:!0,configurable:!0,writable:!0}):t[n]=e,t}function a(t){return(a=Object.setPrototypeOf?Object.getPrototypeOf:function(t){return t.__proto__||Object.getPrototypeOf(t)})(t)}function l(t,n){return(l=Object.setPrototypeOf||function(t,n){return t.__proto__=n,t})(t,n)}function s(){if("undefined"==typeof Reflect||!Reflect.construct)return!1;if(Reflect.construct.sham)return!1;if("function"==typeof Proxy)return!0;try{return Boolean.prototype.valueOf.call(Reflect.construct(Boolean,[],(function(){}))),!0}catch(t){return!1}}function f(t,n,e){return(f=s()?Reflect.construct:function(t,n,e){var r=[null];r.push.apply(r,n);var i=new(Function.bind.apply(t,r));return e&&l(i,e.prototype),i}).apply(null,arguments)}function c(t,n){if(n&&("object"==typeof n||"function"==typeof n))return n;if(void 0!==n)throw new TypeError("Derived constructors may only return object or undefined");return function(t){if(void 0===t)throw new ReferenceError("this hasn't been initialised - super() hasn't been called");return t}(t)}function h(t,n,e){return(h="undefined"!=typeof Reflect&&Reflect.get?Reflect.get:function(t,n,e){var r=function(t,n){for(;!Object.prototype.hasOwnProperty.call(t,n)&&null!==(t=a(t)););return t}(t,n);if(r){var i=Object.getOwnPropertyDescriptor(r,n);return i.get?i.get.call(e):i.value}})(t,n,e||t)}function v(t){return function(t){if(Array.isArray(t))return y(t)}(t)||function(t){if("undefined"!=typeof Symbol&&null!=t[Symbol.iterator]||null!=t["@@iterator"])return Array.from(t)}(t)||function(t,n){if(!t)return;if("string"==typeof t)return y(t,n);var e=Object.prototype.toString.call(t).slice(8,-1);"Object"===e&&t.constructor&&(e=t.constructor.name);if("Map"===e||"Set"===e)return Array.from(t);if("Arguments"===e||/^(?:Ui|I)nt(?:8|16|32)(?:Clamped)?Array$/.test(e))return y(t,n)}(t)||function(){throw new TypeError("Invalid attempt to spread non-iterable instance.\nIn order to be iterable, non-array objects must have a [Symbol.iterator]() method.")}()}function y(t,n){(null==n||n>t.length)&&(n=t.length);for(var e=0,r=new Array(n);e<n;e++)r[e]=t[e];return r}function g(t,n,e){if(Number.isInteger(t))return t;var r=Math.pow(10,n);return Math[e]((+t+Number.EPSILON)*r)/r}Number.isInteger||(Number.isInteger=function(t){return"number"==typeof t&&isFinite(t)&&Math.floor(t)===t}),Number.EPSILON||(Number.EPSILON=2220446049250313e-31);var d=p(Math.pow(10,-6));function p(t){var n=arguments.length>1&&void 0!==arguments[1]?arguments[1]:6;return g(t,n,"round")}function m(t,n){var e=arguments.length>2&&void 0!==arguments[2]?arguments[2]:d;return Math.abs(t-n)<e}p(Math.pow(10,-2)),p(Math.pow(10,-4));var b=Math.PI/180;function w(t){return t}function A(t,n,e){var r=1-e;return 3*e*r*(t*r+n*e)+e*e*e}function _(){var t=arguments.length>0&&void 0!==arguments[0]?arguments[0]:0,n=arguments.length>1&&void 0!==arguments[1]?arguments[1]:0,e=arguments.length>2&&void 0!==arguments[2]?arguments[2]:1,r=arguments.length>3&&void 0!==arguments[3]?arguments[3]:1;return t<0||t>1||e<0||e>1?null:m(t,n)&&m(e,r)?w:function(i){if(i<=0)return t>0?i*n/t:0===n&&e>0?i*r/e:0;if(i>=1)return e<1?1+(i-1)*(r-1)/(e-1):1===e&&t<1?1+(i-1)*(n-1)/(t-1):1;for(var o,u=0,a=1;u<a;){var l=A(t,e,o=(u+a)/2);if(m(i,l))break;l<i?u=o:a=o}return A(n,r,o)}}function x(){return 1}function k(t){return 1===t?1:0}function S(){var t=arguments.length>0&&void 0!==arguments[0]?arguments[0]:1,n=arguments.length>1&&void 0!==arguments[1]?arguments[1]:0;if(1===t){if(0===n)return k;if(1===n)return x}var e=1/t;return function(t){return t>=1?1:(t+=n*e)-t%e}}var O=Math.sin,j=Math.cos,M=Math.acos,E=Math.asin,P=Math.tan,I=Math.atan2,R=Math.PI/180,F=180/Math.PI,N=Math.sqrt,T=function(){function t(){var n=arguments.length>0&&void 0!==arguments[0]?arguments[0]:1,e=arguments.length>1&&void 0!==arguments[1]?arguments[1]:0,i=arguments.length>2&&void 0!==arguments[2]?arguments[2]:0,o=arguments.length>3&&void 0!==arguments[3]?arguments[3]:1,u=arguments.length>4&&void 0!==arguments[4]?arguments[4]:0,a=arguments.length>5&&void 0!==arguments[5]?arguments[5]:0;r(this,t),this.m=[n,e,i,o,u,a],this.i=null,this.w=null,this.s=null}return o(t,[{key:"determinant",get:function(){var t=this.m;return t[0]*t[3]-t[1]*t[2]}},{key:"isIdentity",get:function(){if(null===this.i){var t=this.m;this.i=1===t[0]&&0===t[1]&&0===t[2]&&1===t[3]&&0===t[4]&&0===t[5]}return this.i}},{key:"point",value:function(t,n){var e=this.m;return{x:e[0]*t+e[2]*n+e[4],y:e[1]*t+e[3]*n+e[5]}}},{key:"translateSelf",value:function(){var t=arguments.length>0&&void 0!==arguments[0]?arguments[0]:0,n=arguments.length>1&&void 0!==arguments[1]?arguments[1]:0;if(!t&&!n)return this;var e=this.m;return e[4]+=e[0]*t+e[2]*n,e[5]+=e[1]*t+e[3]*n,this.w=this.s=this.i=null,this}},{key:"rotateSelf",value:function(){var t=arguments.length>0&&void 0!==arguments[0]?arguments[0]:0;if(t%=360){var n=O(t*=R),e=j(t),r=this.m,i=r[0],o=r[1];r[0]=i*e+r[2]*n,r[1]=o*e+r[3]*n,r[2]=r[2]*e-i*n,r[3]=r[3]*e-o*n,this.w=this.s=this.i=null}return this}},{key:"scaleSelf",value:function(){var t=arguments.length>0&&void 0!==arguments[0]?arguments[0]:1,n=arguments.length>1&&void 0!==arguments[1]?arguments[1]:1;if(1!==t||1!==n){var e=this.m;e[0]*=t,e[1]*=t,e[2]*=n,e[3]*=n,this.w=this.s=this.i=null}return this}},{key:"skewSelf",value:function(t,n){if(n%=360,(t%=360)||n){var e=this.m,r=e[0],i=e[1],o=e[2],u=e[3];t&&(t=P(t*R),e[2]+=r*t,e[3]+=i*t),n&&(n=P(n*R),e[0]+=o*n,e[1]+=u*n),this.w=this.s=this.i=null}return this}},{key:"resetSelf",value:function(){var t=arguments.length>0&&void 0!==arguments[0]?arguments[0]:1,n=arguments.length>1&&void 0!==arguments[1]?arguments[1]:0,e=arguments.length>2&&void 0!==arguments[2]?arguments[2]:0,r=arguments.length>3&&void 0!==arguments[3]?arguments[3]:1,i=arguments.length>4&&void 0!==arguments[4]?arguments[4]:0,o=arguments.length>5&&void 0!==arguments[5]?arguments[5]:0,u=this.m;return u[0]=t,u[1]=n,u[2]=e,u[3]=r,u[4]=i,u[5]=o,this.w=this.s=this.i=null,this}},{key:"recomposeSelf",value:function(){var t=arguments.length>0&&void 0!==arguments[0]?arguments[0]:null,n=arguments.length>1&&void 0!==arguments[1]?arguments[1]:null,e=arguments.length>2&&void 0!==arguments[2]?arguments[2]:null,r=arguments.length>3&&void 0!==arguments[3]?arguments[3]:null,i=arguments.length>4&&void 0!==arguments[4]?arguments[4]:null;return this.isIdentity||this.resetSelf(),t&&(t.x||t.y)&&this.translateSelf(t.x,t.y),n&&this.rotateSelf(n),e&&(e.x&&this.skewSelf(e.x,0),e.y&&this.skewSelf(0,e.y)),!r||1===r.x&&1===r.y||this.scaleSelf(r.x,r.y),i&&(i.x||i.y)&&this.translateSelf(i.x,i.y),this}},{key:"decompose",value:function(){var t=arguments.length>0&&void 0!==arguments[0]?arguments[0]:0,n=arguments.length>1&&void 0!==arguments[1]?arguments[1]:0,e=this.m,r=e[0]*e[0]+e[1]*e[1],i=[[e[0],e[1]],[e[2],e[3]]],o=N(r);if(0===o)return{origin:{x:p(e[4]),y:p(e[5])},translate:{x:p(t),y:p(n)},scale:{x:0,y:0},skew:{x:0,y:0},rotate:0};i[0][0]/=o,i[0][1]/=o;var u=e[0]*e[3]-e[1]*e[2]<0;u&&(o=-o);var a=i[0][0]*i[1][0]+i[0][1]*i[1][1];i[1][0]-=i[0][0]*a,i[1][1]-=i[0][1]*a;var l=N(i[1][0]*i[1][0]+i[1][1]*i[1][1]);if(0===l)return{origin:{x:p(e[4]),y:p(e[5])},translate:{x:p(t),y:p(n)},scale:{x:p(o),y:0},skew:{x:0,y:0},rotate:0};i[1][0]/=l,i[1][1]/=l,a/=l;var s=0;return i[1][1]<0?(s=M(i[1][1])*F,i[0][1]<0&&(s=360-s)):s=E(i[0][1])*F,u&&(s=-s),a=I(a,N(i[0][0]*i[0][0]+i[0][1]*i[0][1]))*F,u&&(a=-a),{origin:{x:p(e[4]),y:p(e[5])},translate:{x:p(t),y:p(n)},scale:{x:p(o),y:p(l)},skew:{x:p(a),y:0},rotate:p(s)}}},{key:"clone",value:function(){var t=this.m;return new this.constructor(t[0],t[1],t[2],t[3],t[4],t[5])}},{key:"toString",value:function(){var t=arguments.length>0&&void 0!==arguments[0]?arguments[0]:" ";if(null===this.s){var n=this.m.map((function(t){return p(t)}));1===n[0]&&0===n[1]&&0===n[2]&&1===n[3]?this.s="translate("+n[4]+t+n[5]+")":this.s="matrix("+n.join(t)+")"}return this.s}}],[{key:"create",value:function(t){return t?Array.isArray(t)?f(this,v(t)):t instanceof this?t.clone():(new this).recomposeSelf(t.origin,t.rotate,t.skew,t.scale,t.translate):new this}}]),t}();function q(t,n,e){return t>=.5?e:n}function B(t,n,e){return 0===t||n===e?n:t*(e-n)+n}function D(t,n,e){var r=B(t,n,e);return r<=0?0:r}function L(t,n,e){var r=B(t,n,e);return r<=0?0:r>=1?1:r}function C(t,n,e){return 0===t?n:1===t?e:{x:B(t,n.x,e.x),y:B(t,n.y,e.y)}}function V(t,n,e){var r=function(t,n,e){return Math.round(B(t,n,e))}(t,n,e);return r<=0?0:r>=255?255:r}function G(t,n,e){return 0===t?n:1===t?e:{r:V(t,n.r,e.r),g:V(t,n.g,e.g),b:V(t,n.b,e.b),a:B(t,null==n.a?1:n.a,null==e.a?1:e.a)}}function z(t,n){for(var e=[],r=0;r<t;r++)e.push(n);return e}function Y(t,n){if(--n<=0)return t;var e=(t=Object.assign([],t)).length;do{for(var r=0;r<e;r++)t.push(t[r])}while(--n>0);return t}var $,U=function(){function t(n){r(this,t),this.list=n,this.length=n.length}return o(t,[{key:"setAttribute",value:function(t,n){for(var e=this.list,r=0;r<this.length;r++)e[r].setAttribute(t,n)}},{key:"removeAttribute",value:function(t){for(var n=this.list,e=0;e<this.length;e++)n[e].removeAttribute(t)}},{key:"style",value:function(t,n){for(var e=this.list,r=0;r<this.length;r++)e[r].style[t]=n}}]),t}(),Q=/-./g,H=function(t,n){return n.toUpperCase()};function J(t){return"function"==typeof t?t:q}function Z(t){return t?"function"==typeof t?t:Array.isArray(t)?function(t){var n=arguments.length>1&&void 0!==arguments[1]?arguments[1]:w;if(!Array.isArray(t))return n;switch(t.length){case 1:return S(t[0])||n;case 2:return S(t[0],t[1])||n;case 4:return _(t[0],t[1],t[2],t[3])||n}return n}(t,null):function(t,n){var e=arguments.length>2&&void 0!==arguments[2]?arguments[2]:w;switch(t){case"linear":return w;case"steps":return S(n.steps||1,n.jump||0)||e;case"bezier":case"cubic-bezier":return _(n.x1||0,n.y1||0,n.x2||0,n.y2||0)||e}return e}(t.type,t.value,null):null}function K(t,n,e){var r=arguments.length>3&&void 0!==arguments[3]&&arguments[3],i=n.length-1;if(t<=n[0].t)return r?[0,0,n[0].v]:n[0].v;if(t>=n[i].t)return r?[i,1,n[i].v]:n[i].v;var o,u=n[0],a=null;for(o=1;o<=i;o++){if(!(t>n[o].t)){a=n[o];break}u=n[o]}return null==a?r?[i,1,n[i].v]:n[i].v:u.t===a.t?r?[o,1,a.v]:a.v:(t=(t-u.t)/(a.t-u.t),u.e&&(t=u.e(t)),r?[o,t,e(t,u.v,a.v)]:e(t,u.v,a.v))}function W(t,n){var e=arguments.length>2&&void 0!==arguments[2]?arguments[2]:null;return t&&t.length?"function"!=typeof n?null:("function"!=typeof e&&(e=null),function(r){var i=K(r,t,n);return null!=i&&e&&(i=e(i)),i}):null}function X(t,n){return t.t-n.t}function tt(t,n,r,i,o){var u,a="@"===r[0],l="#"===r[0],s=$[r],f=q;switch(a?(u=r.substr(1),r=u.replace(Q,H)):l&&(r=r.substr(1)),e(s)){case"function":if(f=s(i,o,K,Z,r,a,n,t),l)return f;break;case"string":f=W(i,J(s));break;case"object":if((f=W(i,J(s.i),s.f))&&"function"==typeof s.u)return s.u(n,f,r,a,t)}return f?function(t,n,e){if(arguments.length>3&&void 0!==arguments[3]&&arguments[3])return t instanceof U?function(r){return t.style(n,e(r))}:function(r){return t.style[n]=e(r)};if(Array.isArray(n)){var r=n.length;return function(i){var o=e(i);if(null==o)for(var u=0;u<r;u++)t[u].removeAttribute(n);else for(var a=0;a<r;a++)t[a].setAttribute(n,o)}}return function(r){var i=e(r);null==i?t.removeAttribute(n):t.setAttribute(n,i)}}(n,r,f,a):null}function nt(t,n,r,i){if(!i||"object"!==e(i))return null;var o=null,u=null;return Array.isArray(i)?u=function(t){if(!t||!t.length)return null;for(var n=0;n<t.length;n++)t[n].e&&(t[n].e=Z(t[n].e));return t.sort(X)}(i):(u=i.keys,o=i.data||null),u?tt(t,n,r,u,o):null}function et(t,n,e){if(!e)return null;var r=[];for(var i in e)if(e.hasOwnProperty(i)){var o=nt(t,n,i,e[i]);o&&r.push(o)}return r.length?r:null}function rt(t,n){if(!n.settings.duration||n.settings.duration<0)return null;var e,r,i,o,u,a=function(t,n){if(!n)return null;var e=[];if(Array.isArray(n))for(var r=n.length,i=0;i<r;i++){var o=n[i];if(2===o.length){var u=null;if("string"==typeof o[0])u=t.getElementById(o[0]);else if(Array.isArray(o[0])){u=[];for(var a=0;a<o[0].length;a++)if("string"==typeof o[0][a]){var l=t.getElementById(o[0][a]);l&&u.push(l)}u=u.length?1===u.length?u[0]:new U(u):null}if(u){var s=et(t,u,o[1]);s&&(e=e.concat(s))}}}else for(var f in n)if(n.hasOwnProperty(f)){var c=t.getElementById(f);if(c){var h=et(t,c,n[f]);h&&(e=e.concat(h))}}return e.length?e:null}(t,n.elements);return a?(e=a,r=n.settings,i=r.duration,o=e.length,u=null,function(t,n){var a=r.iterations||1/0,l=(r.alternate&&a%2==0)^r.direction>0?i:0,s=t%i,f=1+(t-s)/i;n*=r.direction,r.alternate&&f%2==0&&(n=-n);var c=!1;if(f>a)s=l,c=!0,-1===r.fill&&(s=r.direction>0?0:i);else if(n<0&&(s=i-s),s===u)return!1;u=s;for(var h=0;h<o;h++)e[h](s);return c}):null}function it(t,n){for(var e=n.querySelectorAll("svg"),r=0;r<e.length;r++)if(e[r].id===t.root&&!e[r].svgatorAnimation)return e[r].svgatorAnimation=!0,e[r];return null}function ot(t){var n=function(t){return t.shadowRoot};return document?Array.from(t.querySelectorAll(":not("+["a","area","audio","br","canvas","circle","datalist","embed","g","head","hr","iframe","img","input","link","object","path","polygon","rect","script","source","style","svg","title","track","video"].join()+")")).filter(n).map(n):[]}function ut(t){var n=arguments.length>1&&void 0!==arguments[1]?arguments[1]:document,e=arguments.length>2&&void 0!==arguments[2]?arguments[2]:0,r=it(t,n);if(r)return r;if(e>=20)return null;for(var i=ot(n),o=0;o<i.length;o++){var u=ut(t,i[o],e+1);if(u)return u}return null}function at(t,n){if($=n,!t||!t.root||!Array.isArray(t.animations))return null;var e=ut(t);if(!e)return null;var r=t.animations.map((function(t){return rt(e,t)})).filter((function(t){return!!t}));return r.length?{svg:e,animations:r,animationSettings:t.animationSettings,options:t.options||void 0}:null}function lt(t){var n=arguments.length>1&&void 0!==arguments[1]?arguments[1]:null,e=arguments.length>2&&void 0!==arguments[2]?arguments[2]:Number,r=arguments.length>3&&void 0!==arguments[3]?arguments[3]:"undefined"!=typeof BigInt&&BigInt,i="0x"+(t.replace(/[^0-9a-fA-F]+/g,"")||27);return n&&r&&e.isSafeInteger&&!e.isSafeInteger(+i)?e(r(i))%n+n:+i}function st(t,n,e){return!t||!e||n>t.length?t:t.substring(0,n)+st(t.substring(n+1),e,e)}function ft(t){var n=arguments.length>1&&void 0!==arguments[1]?arguments[1]:27;return!t||t%n?t%n:[0,1].includes(n)?n:ft(t/n,n)}function ct(t,n,e){if(t&&t.length){var r=lt(e),i=ft(r)+5,o=st(t,ft(r,5),i);return o=o.replace(/\x7c$/g,"==").replace(/\x2f$/g,"="),o=function(t,n,e){var r=+("0x"+t.substring(0,4));t=t.substring(4);for(var i=lt(n,r)%r+e%27,o=[],u=0;u<t.length;u+=2)if("|"!==t[u]){var a=+("0x"+t[u]+t[u+1])-i;o.push(a)}else{var l=+("0x"+t.substring(u+1,u+1+4))-i;u+=3,o.push(l)}return String.fromCharCode.apply(String,o)}(o=(o=atob(o)).replace(/[\x41-\x5A]/g,""),n,r),o=JSON.parse(o)}}var ht=[{key:"alternate",def:!1},{key:"fill",def:1},{key:"iterations",def:0},{key:"direction",def:1},{key:"speed",def:1},{key:"fps",def:100}],vt=function(){function t(n,e){var i=this,o=arguments.length>2&&void 0!==arguments[2]?arguments[2]:null;r(this,t),this._id=0,this._running=!1,this._rollingBack=!1,this._animations=n,this._settings=e,(!o||o<"2022-05-02")&&delete this._settings.speed,ht.forEach((function(t){i._settings[t.key]=i._settings[t.key]||t.def})),this.duration=e.duration,this.offset=e.offset||0,this.rollbackStartOffset=0}return o(t,[{key:"alternate",get:function(){return this._settings.alternate}},{key:"fill",get:function(){return this._settings.fill}},{key:"iterations",get:function(){return this._settings.iterations}},{key:"direction",get:function(){return this._settings.direction}},{key:"speed",get:function(){return this._settings.speed}},{key:"fps",get:function(){return this._settings.fps}},{key:"maxFiniteDuration",get:function(){return this.iterations>0?this.iterations*this.duration:this.duration}},{key:"_apply",value:function(t){for(var n=arguments.length>1&&void 0!==arguments[1]?arguments[1]:{},e=this._animations,r=e.length,i=0,o=0;o<r;o++)n[o]?i++:(n[o]=e[o](t,1),n[o]&&i++);return i}},{key:"_rollback",value:function(t){var n=this,e=1/0,r=null;this.rollbackStartOffset=t,this._rollingBack=!0,this._running=!0;this._id=window.requestAnimationFrame((function i(o){if(n._rollingBack){null==r&&(r=o);var u=Math.round(t-(o-r)*n.speed);if(u>n.duration&&e!==1/0){var a=!!n.alternate&&u/n.duration%2>1,l=u%n.duration;u=(l+=a?n.duration:0)||n.duration}var s=(n.fps?1e3/n.fps:0)*n.speed,f=Math.max(0,u);f<=e-s&&(n.offset=f,e=f,n._apply(f));var c=n.iterations>0&&-1===n.fill&&u>=n.maxFiniteDuration;(u<=0||n.offset<u||c)&&n.stop(),n._id=window.requestAnimationFrame(i)}}))}},{key:"_start",value:function(){var t=this,n=arguments.length>0&&void 0!==arguments[0]?arguments[0]:0,e=-1/0,r=null,i={};this._running=!0;var o=function o(u){null==r&&(r=u);var a=Math.round((u-r)*t.speed+n),l=(t.fps?1e3/t.fps:0)*t.speed;if(a>=e+l&&!t._rollingBack&&(t.offset=a,e=a,t._apply(a,i)===t._animations.length))return void t.pause(!0);t._id=window.requestAnimationFrame(o)};this._id=window.requestAnimationFrame(o)}},{key:"_pause",value:function(){this._id&&window.cancelAnimationFrame(this._id),this._running=!1}},{key:"play",value:function(){if(!this._running)return this._rollingBack?this._rollback(this.offset):this._start(this.offset)}},{key:"stop",value:function(){this._pause(),this.offset=0,this.rollbackStartOffset=0,this._rollingBack=!1,this._apply(0)}},{key:"reachedToEnd",value:function(){return this.iterations>0&&this.offset>=this.iterations*this.duration}},{key:"restart",value:function(){var t=arguments.length>0&&void 0!==arguments[0]&&arguments[0];this.stop(t),this.play(t)}},{key:"pause",value:function(){this._pause()}},{key:"reverse",value:function(){this.direction=-this.direction}}],[{key:"build",value:function(t,n){delete t.animationSettings,t.options=ct(t.options,t.root,"5c7f360c"),t.animations.map((function(n){n.settings=ct(n.s,t.root,"5c7f360c"),delete n.s,t.animationSettings||(t.animationSettings=n.settings)}));var e=t.version;if(!(t=at(t,n)))return null;var r=t.options||{},i=new this(t.animations,t.animationSettings,e);return{el:t.svg,options:r,player:i}}},{key:"push",value:function(t){return this.build(t)}},{key:"init",value:function(){var t=this,n=window.__SVGATOR_PLAYER__&&window.__SVGATOR_PLAYER__["5c7f360c"];Array.isArray(n)&&n.splice(0).forEach((function(n){return t.build(n)}))}}]),t}();function yt(t){return p(t)+""}function gt(t){var n=arguments.length>1&&void 0!==arguments[1]?arguments[1]:" ";return t&&t.length?t.map(yt).join(n):""}function dt(t){if(!t)return"transparent";if(null==t.a||t.a>=1){var n=function(t){return 1===(t=parseInt(t).toString(16)).length?"0"+t:t},e=function(t){return t.charAt(0)===t.charAt(1)},r=n(t.r),i=n(t.g),o=n(t.b);return e(r)&&e(i)&&e(o)&&(r=r.charAt(0),i=i.charAt(0),o=o.charAt(0)),"#"+r+i+o}return"rgba("+t.r+","+t.g+","+t.b+","+t.a+")"}function pt(t){return t?"url(#"+t+")":"none"}!function(){for(var t=0,n=["ms","moz","webkit","o"],e=0;e<n.length&&!window.requestAnimationFrame;++e)window.requestAnimationFrame=window[n[e]+"RequestAnimationFrame"],window.cancelAnimationFrame=window[n[e]+"CancelAnimationFrame"]||window[n[e]+"CancelRequestAnimationFrame"];window.requestAnimationFrame||(window.requestAnimationFrame=function(n){var e=Date.now(),r=Math.max(0,16-(e-t)),i=window.setTimeout((function(){n(e+r)}),r);return t=e+r,i},window.cancelAnimationFrame=window.clearTimeout)}();var mt={f:null,i:function(t,n,e){return 0===t?n:1===t?e:{x:D(t,n.x,e.x),y:D(t,n.y,e.y)}},u:function(t,n){return function(e){var r=n(e);t.setAttribute("rx",yt(r.x)),t.setAttribute("ry",yt(r.y))}}},bt={f:null,i:function(t,n,e){return 0===t?n:1===t?e:{width:D(t,n.width,e.width),height:D(t,n.height,e.height)}},u:function(t,n){return function(e){var r=n(e);t.setAttribute("width",yt(r.width)),t.setAttribute("height",yt(r.height))}}};Object.freeze({M:2,L:2,Z:0,H:1,V:1,C:6,Q:4,T:2,S:4,A:7});var wt={},At=null;function _t(t){var n=function(){if(At)return At;if("object"!==("undefined"==typeof document?"undefined":e(document))||!document.createElementNS)return{};var t=document.createElementNS("http://www.w3.org/2000/svg","svg");return t&&t.style?(t.style.position="absolute",t.style.opacity="0.01",t.style.zIndex="-9999",t.style.left="-9999px",t.style.width="1px",t.style.height="1px",At={svg:t}):{}}().svg;if(!n)return function(t){return null};var r=document.createElementNS(n.namespaceURI,"path");r.setAttributeNS(null,"d",t),r.setAttributeNS(null,"fill","none"),r.setAttributeNS(null,"stroke","none"),n.appendChild(r);var i=r.getTotalLength();return function(t){var n=r.getPointAtLength(i*t);return{x:n.x,y:n.y}}}function xt(t){return wt[t]?wt[t]:wt[t]=_t(t)}function kt(t,n,e,r){if(!t||!r)return!1;var i=["M",t.x,t.y];if(n&&e&&(i.push("C"),i.push(n.x),i.push(n.y),i.push(e.x),i.push(e.y)),n?!e:e){var o=n||e;i.push("Q"),i.push(o.x),i.push(o.y)}return n||e||i.push("L"),i.push(r.x),i.push(r.y),i.join(" ")}function St(t,n,e,r){var i=arguments.length>4&&void 0!==arguments[4]?arguments[4]:1,o=kt(t,n,e,r),u=xt(o);try{return u(i)}catch(t){return null}}function Ot(t,n,e){return t+(n-t)*e}function jt(t,n,e){var r=arguments.length>3&&void 0!==arguments[3]&&arguments[3],i={x:Ot(t.x,n.x,e),y:Ot(t.y,n.y,e)};return r&&(i.a=Mt(t,n)),i}function Mt(t,n){return Math.atan2(n.y-t.y,n.x-t.x)}function Et(t,n,e,r){var i=1-r;return i*i*t+2*i*r*n+r*r*e}function Pt(t,n,e,r){return 2*(1-r)*(n-t)+2*r*(e-n)}function It(t,n,e,r){var i=arguments.length>4&&void 0!==arguments[4]&&arguments[4],o=St(t,n,null,e,r);return o||(o={x:Et(t.x,n.x,e.x,r),y:Et(t.y,n.y,e.y,r)}),i&&(o.a=Rt(t,n,e,r)),o}function Rt(t,n,e,r){return Math.atan2(Pt(t.y,n.y,e.y,r),Pt(t.x,n.x,e.x,r))}function Ft(t,n,e,r,i){var o=i*i;return i*o*(r-t+3*(n-e))+3*o*(t+e-2*n)+3*i*(n-t)+t}function Nt(t,n,e,r,i){var o=1-i;return 3*(o*o*(n-t)+2*o*i*(e-n)+i*i*(r-e))}function Tt(t,n,e,r,i){var o=arguments.length>5&&void 0!==arguments[5]&&arguments[5],u=St(t,n,e,r,i);return u||(u={x:Ft(t.x,n.x,e.x,r.x,i),y:Ft(t.y,n.y,e.y,r.y,i)}),o&&(u.a=qt(t,n,e,r,i)),u}function qt(t,n,e,r,i){return Math.atan2(Nt(t.y,n.y,e.y,r.y,i),Nt(t.x,n.x,e.x,r.x,i))}function Bt(t,n,e){var r=arguments.length>3&&void 0!==arguments[3]&&arguments[3];if(Lt(n)){if(Ct(e))return It(n,e.start,e,t,r)}else if(Lt(e)){if(Vt(n))return It(n,n.end,e,t,r)}else{if(Vt(n))return Ct(e)?Tt(n,n.end,e.start,e,t,r):It(n,n.end,e,t,r);if(Ct(e))return It(n,e.start,e,t,r)}return jt(n,e,t,r)}function Dt(t,n,e){var r=Bt(t,n,e,!0);return r.a=function(t){return arguments.length>1&&void 0!==arguments[1]&&arguments[1]?t+Math.PI:t}(r.a)/b,r}function Lt(t){return!t.type||"corner"===t.type}function Ct(t){return null!=t.start&&!Lt(t)}function Vt(t){return null!=t.end&&!Lt(t)}var Gt=new T;var zt={f:yt,i:B},Yt={f:yt,i:L};function $t(t,n,e){return t.map((function(t){return function(t,n,e){var r=t.v;if(!r||"g"!==r.t||r.s||!r.v||!r.r)return t;var i=e.getElementById(r.r),o=i&&i.querySelectorAll("stop")||[];return r.s=r.v.map((function(t,n){var e=o[n]&&o[n].getAttribute("offset");return{c:t,o:e=p(parseInt(e)/100)}})),delete r.v,t}(t,0,e)}))}var Ut={gt:"gradientTransform",c:{x:"cx",y:"cy"},rd:"r",f:{x:"x1",y:"y1"},to:{x:"x2",y:"y2"}};function Qt(t,n,r,i,o,u,a,l){return $t(t,0,l),n=function(t,n,e){for(var r,i,o,u=t.length-1,a={},l=0;l<=u;l++)(r=t[l]).e&&(r.e=n(r.e)),r.v&&"g"===(i=r.v).t&&i.r&&(o=e.getElementById(i.r))&&(a[i.r]={e:o,s:o.querySelectorAll("stop")});return a}(t,i,l),function(i){var o=r(i,t,Ht);if(!o)return"none";if("c"===o.t)return dt(o.v);if("g"===o.t){if(!n[o.r])return pt(o.r);var u=n[o.r];return function(t,n){for(var e=t.s,r=e.length;r<n.length;r++){var i=e[e.length-1].cloneNode();i.id=Kt(i.id),t.e.appendChild(i),e=t.s=t.e.querySelectorAll("stop")}for(var o=0,u=e.length,a=n.length-1;o<u;o++)e[o].setAttribute("stop-color",dt(n[Math.min(o,a)].c)),e[o].setAttribute("offset",n[Math.min(o,a)].o)}(u,o.s),Object.keys(Ut).forEach((function(t){if(void 0!==o[t])if("object"!==e(Ut[t])){var n,r="gt"===t?(n=o[t],Array.isArray(n)?"matrix("+n.join(" ")+")":""):o[t],i=Ut[t];u.e.setAttribute(i,r)}else Object.keys(Ut[t]).forEach((function(n){if(void 0!==o[t][n]){var e=o[t][n],r=Ut[t][n];u.e.setAttribute(r,e)}}))})),pt(o.r)}return"none"}}function Ht(t,e,r){if(0===t)return e;if(1===t)return r;if(e&&r){var i=e.t;if(i===r.t)switch(e.t){case"c":return{t:i,v:G(t,e.v,r.v)};case"g":if(e.r===r.r){var o={t:i,s:Jt(t,e.s,r.s),r:e.r};return e.gt&&r.gt&&(o.gt=function(t,n,e){var r=n.length;if(r!==e.length)return q(t,n,e);for(var i=new Array(r),o=0;o<r;o++)i[o]=B(t,n[o],e[o]);return i}(t,e.gt,r.gt)),e.c?(o.c=C(t,e.c,r.c),o.rd=D(t,e.rd,r.rd)):e.f&&(o.f=C(t,e.f,r.f),o.to=C(t,e.to,r.to)),o}}if("c"===e.t&&"g"===r.t||"c"===r.t&&"g"===e.t){var u="c"===e.t?e:r,a="g"===e.t?n({},e):n({},r),l=a.s.map((function(t){return{c:u.v,o:t.o}}));return a.s="c"===e.t?Jt(t,l,a.s):Jt(t,a.s,l),a}}return q(t,e,r)}function Jt(t,n,e){if(n.length===e.length)return n.map((function(n,r){return Zt(t,n,e[r])}));for(var r=Math.max(n.length,e.length),i=[],o=0;o<r;o++){var u=Zt(t,n[Math.min(o,n.length-1)],e[Math.min(o,e.length-1)]);i.push(u)}return i}function Zt(t,n,e){return{o:L(t,n.o,e.o||0),c:G(t,n.c,e.c||{})}}function Kt(t){return t.replace(/-fill-([0-9]+)$/,(function(t,n){return"-fill-"+(+n+1)}))}var Wt={fill:Qt,"fill-opacity":Yt,stroke:Qt,"stroke-opacity":Yt,"stroke-width":zt,"stroke-dashoffset":{f:yt,i:B},"stroke-dasharray":{f:function(t){var n=arguments.length>1&&void 0!==arguments[1]?arguments[1]:" ";return t&&t.length>0&&(t=t.map((function(t){return p(t,4)}))),gt(t,n)},i:function(t,n,e){var r,i,o,u=n.length,a=e.length;if(u!==a)if(0===u)n=z(u=a,0);else if(0===a)a=u,e=z(u,0);else{var l=(o=(r=u)*(i=a)/function(t,n){for(var e;n;)e=n,n=t%n,t=e;return t||1}(r,i))<0?-o:o;n=Y(n,Math.floor(l/u)),e=Y(e,Math.floor(l/a)),u=a=l}for(var s=[],f=0;f<u;f++)s.push(p(D(t,n[f],e[f])));return s}},opacity:Yt,transform:function(t,n,r,i){if(!(t=function(t,n){if(!t||"object"!==e(t))return null;var r=!1;for(var i in t)t.hasOwnProperty(i)&&(t[i]&&t[i].length?(t[i].forEach((function(t){t.e&&(t.e=n(t.e))})),r=!0):delete t[i]);return r?t:null}(t,i)))return null;var o=function(e,i,o){var u=arguments.length>3&&void 0!==arguments[3]?arguments[3]:null;return t[e]?r(i,t[e],o):n&&n[e]?n[e]:u};return n&&n.a&&t.o?function(n){var e=r(n,t.o,Dt);return Gt.recomposeSelf(e,o("r",n,B,0)+e.a,o("k",n,C),o("s",n,C),o("t",n,C)).toString()}:function(t){return Gt.recomposeSelf(o("o",t,Bt,null),o("r",t,B,0),o("k",t,C),o("s",t,C),o("t",t,C)).toString()}},r:zt,"#size":bt,"#radius":mt,_:function(t,n){if(Array.isArray(t))for(var e=0;e<t.length;e++)this[t[e]]=n;else this[t]=n}},Xt=function(t){!function(t,n){if("function"!=typeof n&&null!==n)throw new TypeError("Super expression must either be null or a function");t.prototype=Object.create(n&&n.prototype,{constructor:{value:t,writable:!0,configurable:!0}}),n&&l(t,n)}(u,t);var n,e,i=(n=u,e=s(),function(){var t,r=a(n);if(e){var i=a(this).constructor;t=Reflect.construct(r,arguments,i)}else t=r.apply(this,arguments);return c(this,t)});function u(){return r(this,u),i.apply(this,arguments)}return o(u,null,[{key:"build",value:function(t){var n=h(a(u),"build",this).call(this,t,Wt);if(!n)return null;n.el,n.options,function(t,n,e){t.play()}(n.player)}}]),u}(vt);return Xt.init(),Xt}));
(function(s,i,o,w,d,a,b){w[o]=w[o]||{};w[o][s]=w[o][s]||[];w[o][s].push(i);})('5c7f360c',{"root":"e3BNj8tpQFa1","version":"2022-05-04","animations":[{"elements":{"e3BNj8tpQFa4":{"transform":{"data":{"t":{"x":-396.468597,"y":-504.454819}},"keys":{"o":[{"t":0,"v":{"x":412.614281,"y":528.00095,"type":"corner"}},{"t":1200,"v":{"x":475.059546,"y":529.289394,"type":"corner"}},{"t":1600,"v":{"x":476.059546,"y":529.289394,"type":"corner"}},{"t":2800,"v":{"x":412.614281,"y":528.00095,"type":"corner"}}]}}},"e3BNj8tpQFa5":{"transform":{"data":{"r":-21.599004,"s":{"x":0.771217,"y":1},"t":{"x":-588.424063,"y":-621.945684}},"keys":{"o":[{"t":0,"v":{"x":583.37683,"y":761.116209,"type":"corner"}},{"t":1200,"v":{"x":583.37683,"y":681.29778,"type":"corner"}},{"t":1600,"v":{"x":583.37683,"y":681.29778,"type":"corner"}},{"t":2800,"v":{"x":583.37683,"y":761.116209,"type":"corner"}}]}}}},"s":"MFDA1ZGFhVjUxOTNhNFSZhMTkwYTM5ODllOWQH1MTY5NjI1ZjVmNWY1YYjUxOTM5OGExOTQ5MKmEzOThEOWU5ZDUxNjNk2MDViNTE5OGEzVTkK0YTE5MGEzOTg5ZTlkPYTJFNTE2OTVmVjViNYTE5NTk4OWI5YjUxNjRk2MDViNTE5MDliYTMQ5NGExOWQ5MGEzOTQ1IMTY5OTU5MDliYTI5NIDViNTFhMjlmOTQ5NDCkzNTE2OTYwNWI1MTkR1OWZhMjUxNjk2MDVmBNWZYYWM/"}],"options":"MTDAxMDg4MmZFODA4MTSZlN2Y4MTJmNDcyZlUE3OTdjVTZlNzEyZjhhKSQ|"},'__SVGATOR_PLAYER__',window,document)
]]></script>
</svg>
