<svg id="eNWQLRAlxfj1" xmlns="http://www.w3.org/2000/svg" xmlns:xlink="http://www.w3.org/1999/xlink" viewBox="0 0 210 297" shape-rendering="geometricPrecision" text-rendering="geometricPrecision"><defs><radialGradient id="eNWQLRAlxfj7-fill" cx="0" cy="0" r="419.14" spreadMethod="pad" gradientUnits="userSpaceOnUse" gradientTransform="matrix(0.264583 0 0 0.264583 115.24 159.082)"><stop id="eNWQLRAlxfj7-fill-0" offset="0%" stop-color="#fff"/><stop id="eNWQLRAlxfj7-fill-1" offset="17%" stop-color="#ffece7"/><stop id="eNWQLRAlxfj7-fill-2" offset="47%" stop-color="#ffd0c3"/><stop id="eNWQLRAlxfj7-fill-3" offset="71%" stop-color="#ffbfad"/><stop id="eNWQLRAlxfj7-fill-4" offset="87%" stop-color="#ffb9a6"/></radialGradient></defs><g><g transform="matrix(.264583 0 0 0.264583 44.993 49.537)"><path id="eNWQLRAlxfj4" d="M35.61,348.41c.55,13.09,1.78,26.09,1.61,39.2.39.78.63,1.69.64,2.74s.01,2.1.02,3.15c.03.13.09.24.12.38.11.59.19,1.17.28,1.75h.02c0,.07,0,.14.01.21.37,2.53.53,5.03.58,7.61c3.54,2.35,6.89,5.06,10.08,7.97c9.01,7.14,17.51,15.08,25.37,23.59c2.1,1.78,4.1,3.58,5.97,5.26c5.02,4.53,10.28,9.53,14.77,15.03c28.15-39.95,45.77-95,44.25-143.02-1.8-56.8-25.03-101.9-58.87-128.29-3.37,2.53-6.8,4.99-10.3,7.34-6.54,6.24-12.68,13.01-19.85,18.4-.66.5-1.38.73-2.11.77-2.89,4.62-5,9.61-5.88,15.1-.21,1.33-.81,2.26-1.6,2.85.14.75.1,1.5-.14,2.26-.04.11-.09.21-.13.31.07.39.11.8.11,1.24-.03,4.49-2.24,8.55-2.06,13.08.04,1.11-.17,2.08-.56,2.91-.03,1.4-.09,2.79-.1,4.19c0,.73-.12,1.39-.32,2c.34,2.63-.09,5.38-.5,8.1.03,7.27-.67,14.49-1.19,21.75-.51,7.14.39,14.21-.61,21.33-.09.66-.28,1.23-.51,1.75.21.62.34,1.31.34,2.07.08,13.03,0,25.96.56,39v-.03Z" fill="#ffbfce"/><path id="eNWQLRAlxfj5" d="M329.7,440.06c.27,0,.53.02.78.05.65-.34,1.41-.55,2.3-.56c4.08-.06,7.97-1.29,11.96-1.99c3.03-.54,6.08-.97,9.14-1.32-24.14-35.6-85.9-62.29-137.61-61.9-53.46.41-93.85,24.1-110.54,56.88c1.12.21,1.99.77,2.61,1.51.42.05.86.16,1.33.36c12.82,5.3,26.62,5.77,40.02,8.65.36-.14.74-.22,1.13-.24.66-.15,1.33-.12,1.99.09.08.03.15.06.23.09.3-.04.61-.07.94-.06c3.4.09,6.43,1.69,9.86,1.64.84-.01,1.57.15,2.19.44c1.06.04,2.11.11,3.17.13.55.01,1.05.11,1.51.25c1.99-.19,4.07.15,6.12.48c5.5.09,10.95.7,16.44,1.18c5.4.47,10.76-.04,16.13.77.5.07.92.21,1.31.38.47-.14,1-.21,1.57-.2c9.86.16,19.64.41,29.51.24c9.92-.17,19.77-.82,29.68-.48.6-.26,1.29-.41,2.09-.4.79,0,1.59.02,2.38.04.1-.02.18-.06.29-.07.45-.07.89-.11,1.33-.16v0c.05-.02.11-.02.16-.02c2.22-.25,4.38-.31,6.65-.28c5.3-.32,10.66-.86,15.86-1.42c4.14-.44,8.25-1.13,12.4-1.55.04,0,.09,0,.13-.01.53-.2,1.13-.31,1.8-.31.03,0,.05,0,.08,0c.68-.4,1.51-.65,2.49-.65.27,0,.53.02.77.06.25-.04.52-.06.8-.06.05,0,.1,0,.15,0c.66-.35,1.44-.55,2.35-.55.47,0,.9.07,1.3.17.7-.44,1.57-.7,2.61-.7.17,0,.32.02.48.03.59-.26,1.28-.41,2.06-.41.25,0,.49.02.72.05.4-.1.84-.16,1.31-.16l.02.01Z" fill="#ffe477"/></g><path d="M47.453327,78.96656h28.452095v94.89402h-28.452095v-94.89402Z" transform="matrix(.986079 0.16628-.16628 0.986079 0-.000001)" fill="#fff" stroke-width="0"/><path d="M158.57337,184.03529c10.69711-5.1382,15.50459-7.21254,16.66875-7.40833.18257-.0317,1.02659-.14287,1.5875-.79375.4445-.51594.50536-1.12977.52917-1.32291.26194-2.16165,1.59808-4.05342,2.38125-6.08542.6985-1.8124,2.159-5.34723,5.55625-12.96458-4.47675,1.06627-10.83998,2.55058-18.52083,4.23333-9.13342,2.00289-14.859,3.25702-21.96042,4.49792-7.27869,1.27264-14.17373,2.4765-23.28333,3.175-2.48709.1905-16.52323,1.19062-34.395836-1.05834-6.937375-.87312-9.757833-1.64571-12.7-3.175-8.852958-4.6011-12.771437-12.91166-13.758333-15.08125-2.082271-4.57729-2.590271-8.48519-2.910417-11.1125-.248708-2.02671-.867833-8.32114,1.058333-16.13958c2.354792-9.55146,7.138459-15.79827,8.466667-17.4625c6.910917-8.659813,15.295562-12.207876,21.43125-14.816667c5.558896-2.362729,10.271125-3.378729,11.906246-3.704167c2.07434-.415396,4.83659-.965729,8.46667-1.058333c1.29381-.03175,1.41023.02646,5.29167,0c2.6035-.01587,3.53218-.05027,5.29166,0c2.9554.08467,4.4503.134937,5.29167.529167c1.51871.714375,1.80181,1.629833,4.23333,4.497916c1.40229,1.653646,1.63513,1.735667,3.70417,3.96875c1.71979,1.857375,4.75985,5.254625,9.525,11.112504-.24342-10.506608-.35454-18.441462-.26458-24.077087.008-.465667.0847-5.069417-.79375-10.847917-.38365-2.521479-.75936-4.03225-1.32292-5.55625-.77788-2.106083-1.57956-3.336395-3.43958-6.349999-.99484-1.611313-2.55059-4.148667-4.49792-7.408334-3.19881.267229-7.37129.785813-12.17083,1.852084-.49213.108479-2.51354.568854-5.4319,1.431395-.0767.03175-.15875.05556-.24606.07408-.0185.0053-.0344.01058-.0529.01587-.0582.02117-.11641.03969-.17991.05556-.0926.0291-.18521.05556-.28046.08467-.0397.01588-.0767.03175-.11642.04762c0,0-.005,0-.005,0-.0265.0053-.0529.0079-.0794.01058-3.79412,1.161521-8.83443,2.934229-13.98058,5.423959C77.116393,69.483926,63.233706,88.840843,62.529914,89.843613c-2.8575,4.071938-11.808354,17.520707-15.610416,37.306247-3.357563,17.48367-.981605,30.99329,0,35.71875c2.553229,12.31106,6.641041,18.15571,7.672916,19.57916c1.42875,1.9738,6.347354,8.39523,15.345833,12.96459c6.027209,3.06123,11.541125,4.10369,15.08125,4.49791-5.998104,19.4019-11.993562,38.80644-17.991666,58.20834-.07673.42862-.179917,1.06891-.264584,1.85208-.235479,2.14842-.357187,3.25967,0,4.49792.142875.49477.555625,1.92616,1.852084,2.91041c1.711854,1.29911,3.876145.94192,4.7625.79375c5.278437-.87841,7.934854-7.51152,8.202083-8.20208c3.378729-10.5754,6.731-21.15873,10.054166-31.75c2.931584-9.33979,5.842-18.69017,8.73125-28.04583.51065.0132,1.04246.0132,1.5875,0c0,0,1.67746-.0397,3.43958-.26459c6.83948-.87047,15.08125-2.91041,15.08125-2.91041c5.34723-1.32292,8.73125-2.16165,13.49375-3.70417c4.36034-1.41023,8.03011-2.81517,10.84792-3.96875c7.40833,23.46061,14.81667,46.91856,22.225,70.37917.14817.54504.38894,1.28852.79375,2.11666.27517.56357,1.27265,2.49502,3.43958,4.23334c1.20386.96573,2.61673,2.10079,4.7625,2.38125.87842.11377,2.72786.35718,4.23334-.79375c1.27529-.97367,1.62189-2.42359,1.85208-3.43959.60325-2.66964-.082-4.96623-.26458-5.55625-11.53055-37.16866-23.28334-74.6125-23.28334-74.6125l-.00029.00002Z" fill="url(#eNWQLRAlxfj7-fill)" stroke-width="0.264583"/><g transform="matrix(.264583 0 0 0.264583 44.993 49.537)"><path d="M104.32,425.42c-.66-.35-1.31-.72-1.92-1.16-.38-.28-.76-.57-1.13-.87-.03-.02-.06-.04-.1-.06-.12-.07-.23-.16-.34-.23-.92-.34-1.68-.9-2.23-1.63-1.2-.75-2.35-1.53-3.45-2.45-.03-.02-.05-.06-.08-.08-.2-.11-.41-.21-.61-.33-.07-.04-.12-.09-.18-.14-2.79,6.16-8.04,14.61-17.51,19.37-4.73,2.38-8.92,3.04-15,4-7.87,1.24-14.58.83-28,0-11.91-.74-17.92-1.14-21-3-1.3-.78-2.63-1.77-4.08-2.57.32.69.47,1.45.48,2.22.45.84.66,1.8.63,2.77.26.68.38,1.42.35,2.16.6.86.91,1.92.92,2.99.28.54.45,1.13.53,1.74.79,1.04,1.14,2.39,1.03,3.71.78.92,1.19,2.13,1.2,3.36c2.21.28,6.04.58,13.42,1.12c15.93,1.16,20.09,1.35,26,1c4.2-.25,7.65-.67,10-1c3.21-.6,5.94-.87,8-1c5.02-.31,6.26.2,7,1c.91.99,1.05,2.35,1,4-.19,5.74-2.61,10.27-3,11-2.84,5.39-3.56,10.92-5,22-.74,5.7-.88,10.57-1,15-.12,4.46-.08,8.22,0,11-.46.84-1.65,2.72-4,4-3.13,1.71-6.16,1.18-7,1-1.19-.07-2.33,0-3.41.19.12.23.22.47.31.71.34.25.61.56.86.89c1.09.37,1.89,1.1,2.41,2c.99.42,1.71,1.16,2.18,2.04c1.63.36,2.7,1.47,3.23,2.82c1.59.32,2.67,1.35,3.24,2.61.83.13,1.53.43,2.09.86.68.34,1.21.85,1.62,1.44.98.39,1.7,1.08,2.18,1.91c1.29.25,2.25.95,2.87,1.87c1.31.24,2.28.94,2.92,1.87.28.12.54.28.78.45c1.44.14,2.51.81,3.23,1.74c1.12.3,1.95.97,2.52,1.81c1.3.19,2.29.83,2.95,1.7.6.05,1.15.18,1.62.39-2.99-9.4-4.41-17.6-5.09-23.79-1.33-12.07-.55-21.66,0-28c.9-10.39,2.59-18.17,3-20c1.31-5.87,1.51-5.05,4-15c2.95-11.8,2.77-13.4,5-19c1.41-3.53,3.33-7.54,5-11c1.17-2.44,2.22-4.54,3.1-6.25-.63-.28-1.15-.68-1.56-1.17l.02-.01Z" fill="#a14534"/><path d="M518.95,800.86c-.18-1.58-.34-3.16-.63-4.73-.3-1.63-.34-2.82-.8-3.93-.26-.63-.32-1.28-.22-1.93-.45-1.02-.7-2.05-1-3.16-.16-.6-.42-1.16-.58-1.76-.05-.19-.1-.39-.14-.58-.37-.58-.58-1.2-.64-1.84-.27-.53-.47-1.11-.55-1.71-.01-.06-.02-.13-.03-.19-.17-.45-.28-.92-.33-1.4-.47-.73-.76-1.57-.82-2.45-9.02,6.26-17.06,18.93-19.41,22.65-3.2,5.06-8.82,13.97-11.18,22.8.23.24.43.5.6.79.49.18.97.43,1.43.79-1.55-1.23,2.03.99,2.39,1.2.07.04.13.09.2.13c1.21.23,2.42.46,3.64.62.75.12,1.41.48,1.96.98c2.91.72,5.88.83,8.93.74.25,0,.49,0,.72.03c2.38-.72,5.47-1.2,7.83-2.45.51-.77,1.25-1.4,2.22-1.74.06-.07.13-.14.19-.22.23-.32.49-.61.77-.87.23-.81.64-1.6,1.19-2.31.9-1.15,1.32-1.44,2.02-2.89-.38.78.25-1.1.22-.76.18-.99.21-1.99.52-2.96.18-.58.47-1.1.81-1.56.02-.16.02-.32.04-.47.36-2.16.38-5.03.38-7.51c0-.78.2-1.51.54-2.17-.11-.37-.2-.76-.24-1.15l-.03.01Z" fill="#a14534"/><path d="M503.65,746.49c-.24-.66-.45-1.33-.65-2.01-.11-.37-.22-.74-.34-1.11-.08-.24-.72-1.8-.2-.65-.19-.42-.31-.83-.41-1.25-.34-.46-.58-.98-.7-1.55-.33-1.62-.62-2.08-1.23-3.51-.38-.89-.74-1.84-.71-2.83-.1-.16-.19-.32-.31-.47-.53-.73-.74-1.58-.72-2.45-10.74-3.72-21.97-7.96-33.61-12.82-11.57-4.83-22.43-9.81-32.57-14.8.63.89,1.06,1.99,1.29,3c.15.65.58,2.35.38,2.85.15.28.27.58.37.9.66,2.25,1.28,4.56,1.88,6.88c1.41,1.15,1.98,3.09,1.7,4.88.02.17.05.33.06.5c12.13,5.95,22.65,10.47,30.9,13.79c6.44,2.59,25.03,10.06,35.22,12.2-.19-.5-.31-1.02-.36-1.56l.01.01Z" fill="#a14534"/><path d="M472.9,649.16c-1.04-3.79-1.78-7.73-3.3-11.38-.06-.14-.09-.27-.13-.41-8.65,2.3-18.23,4.25-28.69,5.48-9.89,1.16-19.06,1.49-27.34,1.34.11.23.21.48.29.75.87,2.87,1.51,5.83,2.43,8.68.65,2.02,1.34,3.87,1.83,5.83c13.48.34,24.46-.83,32.3-2.09c6.27-1,15.51-2.54,23.64-5.93-.44-.68-.79-1.42-1.02-2.25l-.01-.02Z" fill="#a14534"/><path d="M170.17,694.37c1.02-3.54,2.1-7.09,3.04-10.64.53-1.99,1.01-3.94,2.02-5.65-9.47,5.94-20.71,11.68-30.45,7.76-5.65-2.28-10.98-7.88-13-10-5.04-5.29-7.71-10.32-9.9-13.71-.02.09-.03.17-.06.26-.06.22-.27.73-.5,1.27c0,1.09-.29,2.18-.9,3.06-.22.75-.49,1.53-.74,2.39-1.18,3.95-2.15,7.97-3.27,11.94c7.84,10.45,17.6,17.34,26.87,19.28c7,1.46,13.85,2.9,21,0c1.62-.66,3.09-1.47,4.7-2.08.31-1.27.79-2.52,1.18-3.89l.01.01Z" fill="#a14534"/><path d="M434.8,421.87c-2.14.69-4.34.93-6.53,1.31-.28.11-.58.21-.91.27-.94.18-1.86.35-2.79.61-.44.12-.86.18-1.26.2-.86.65-1.78.92-2.67.92-.03,1.84.12,4.18.64,7.17.67,3.89,1.9,8.62,2,9c.64,2.44,1.08,3.83,1,6-.06,1.49-.2,4.12-2,6-1.38,1.44-3.15,1.83-4,2-8.64,1.73-18,1-18,1-7.75-.6-12.69-.99-18,0-6.5,1.21-9.73,3.77-17,8-14.5,8.44-14.85,5.95-27,13-17.78,10.31-15.86,14.96-29,20-1.28.49-9.18,1.99-25,5-12.96,2.46-17.09,3.09-22,1-5.33-2.27-8.53-6.45-12-11-5.77-7.55-4.08-9.48-9-16-1.63-2.16-8.59-10.93-20-14-4.68-1.26-8.41-1.1-11-1-28.2,1.09-42.45,1.57-50-2-4.92-2.33-11.36-7.39-16.39-19.73-.3-.08-.57-.19-.83-.32-.3.05-.61.09-.94.09-1.19,0-2.16-.34-2.91-.9-.22.03-.44.04-.68.04-1.05,0-1.92-.27-2.63-.71-.14.01-.28.02-.43.01h-.11c-.28,0-.55-.03-.82-.08-.85-.06-1.58-.31-2.18-.69-.05,0-.1.01-.16.01-1.04,0-1.91-.26-2.61-.7-1.16,0-2.11-.34-2.85-.89-.63-.04-1.21-.15-1.71-.36.75,2.68,2.37,6.17,4.24,10.22c3.35,7.23,7.12,12.47,10,16c3.71,4.54,5.64,6.9,9,9c4.46,2.79,8.48,3.28,17,4c15.83,1.35,23.74,2.02,30,2c6.09-.02,10.39.32,19,1c3.65.29,6.17.54,9,2c4.02,2.07,6.17,5.26,9,10c8.35,13.98,7.89,16.73,12,21c2.66,2.77,7.38,6.31,16,8c9.37.14,16.86-.44,22-1c7.51-.82,12.42-1.86,15,1c1.71,1.89,1.84,4.88,1,9-2.44,12.01-11.08,23.72-17.49,31.17.37-.08.78-.13,1.21-.13.14,0,.26.01.39.02.64-.33,1.4-.52,2.29-.52.1,0,.2.01.3.02.49-.38,1.06-.64,1.69-.73c5.36-.73,10.53-3.62,15.99-3.73c3.58-5.18,5.52-9.77,6.63-13.09c1.25-3.74,2.12-7.85,3-12c1.43-6.75,1.17-7.43,2-10c1.27-3.97,3.67-7.93,9-13c8.47-8.06,16.17-11.13,35-21c15.79-8.27,17.03-9.6,23-11c10.55-2.48,22.37-2.03,23-2c8.76.38,12.25,1.84,19,0c3.18-.87,8.52-2.32,12-7c2.9-3.91,2.94-7.95,3-16c.07-8.72-1.52-7.3-3-22-.18-1.73-.31-3.2-.48-4.47v-.01Z" fill="#a14534"/><path d="M84.07,196.66c-8.55-11.65-13.08-17.84-19.58-30.15-.74-1.41-.86-1.68-3.44-6.92-.24.59-.6,1.12-1.06,1.57-.3.73-.75,1.38-1.38,1.88-.07.22-.14.43-.23.64-.81,1.86-2.24,3.51-3.23,5.3-.51.92-1.22,1.74-1.85,2.59-.22.56-.53,1.08-.93,1.52-.05.12-.11.23-.16.35-.06.16-.14.32-.21.48-.25.87-.7,1.67-1.38,2.27-.13.32-.27.64-.46.93c4.78,5.18,7.36,8,9.46,10.49c5.2,6.15,9.31,11.53,12.16,15.39c2.58,3.3,4.73,6.1,6.53,8.5.48-.95,1.07-1.87,1.76-2.77c1.07-1.39,2.28-2.7,3.44-4.02.13-.14.32-.34.53-.55.34-.8.87-1.51,1.61-2.02.2-.73.61-1.35,1.16-1.86-.81-1.01-1.7-2.2-2.75-3.63l.01.01Z" fill="#a14534"/><path d="M138.02,131.52c-7.36,8.41-10.69,24.58-6.21,30.76.27.37.58.68.91.95.55-.5,1.25-.87,2.08-1.05.66-.9,1.66-1.57,2.98-1.77.65-.62,1.52-1.04,2.59-1.18.27-.24.59-.44.93-.62.41-.43.93-.76,1.52-.99-7.65-16.13,11.74-24.15,25.01-20.46c3.37.94,6.75,2.57,8.53,5.59c2.05-.68,4.11-1.33,6.13-1.9.32-.09.63-.12.92-.12.25-.17.53-.32.84-.43c1.94-.7,4.04-1.28,6.04-1.7.91-.19,1.77-.39,2.63-.54.38-.4.83-.73,1.36-.98-12.58-10.48-42.22-21.61-56.26-5.57v.01Z" fill="#a14534"/><path d="M367.14,148.87c-.14-1.58-.49-3.16-.45-4.75.02-.79.14-1.65.32-2.42.07-.3.08-.51.08-.6-.02-.12-.04-.24-.05-.35-3.16.93-8.06,1.74-12.75-.4-2.97-1.35-4.62-3.32-8-8-7.62-10.54-11.67-16.13-17-27-.78-1.59-.68-1.49-5-11-6.67-14.67-10-22-10-22-6.91-15.34-7.05-16.07-10-22-.82-1.65-3.76-7.53-8-15-3.21-5.67-5.61-9.49-8-13-2.41-3.54-4.42-6.2-7-9-1.57-1.71-2.97-3.05-4-4-4.63,1.03-9.26,2.06-13.89,3.09-.43.26-.94.43-1.49.55-.43.2-.92.33-1.45.39-.25.11-.5.21-.75.32c14.06,11.56,20.42,20.45,23.58,26.65c1.12,2.2,2.62,5.58,6,12c2.43,4.62,4.61,9.36,7,14c2.13,4.13,3.79,7.24,3,11-.25,1.18-.6,2.85-2,4-1.23,1.01-2.64,1.09-11,1-2.76-.03-2.76-.04-3,0-3.65.63-6.26,3.65-9,8-2.96,4.7-3.99,7.66-6,12-4.41,9.54-7.5,16.21-14,21-4.54,3.34-8.19,3.89-8,5c.21,1.22,4.87,2.09,23,1c3.08-3.11,4.91-5.99,6-8c2.18-4.03,2.09-5.85,5-11c1.02-1.8,2.01-3.2,4-6c3.1-4.36,4.33-5.49,6-6c1.21-.37,2.46-.35,4,0c6.08,1.39,11.24,6.79,17,13c5.27,5.68,7.9,8.52,10,11c4.76,5.63,8.46,10.51,11,14c4.08,5.24,6.96,9.14,9,12c1.15,1.6,2.49,3.51,5,5c2.45,1.45,4.73,1.75,7,2c3.61.4,8.44.81,14.29.98-.31-2.47-.21-4.95-.44-7.45v-.01Z" fill="#a14534"/></g><path d="M142.37558,103.91417c-.24342-10.506603-.35454-18.441457-.26458-24.077082.008-.465667.0847-5.069417-.79375-10.847917-.38365-2.521479-.75936-4.03225-1.32292-5.55625-.77787-2.106083-1.57956-3.336395-3.43958-6.349999-.99484-1.611313-2.55059-4.148667-4.49792-7.408334-3.19881.267229-7.37129.785813-12.17083,1.852084-1.14565.254-10.56746,2.39977-20.372918,7.14375C77.057895,69.531567,63.175207,88.888484,62.471416,89.891254c-2.8575,4.071938-11.808354,17.520706-15.610417,37.306246-3.357562,17.48367-.981604,30.9933,0,35.71875c2.553229,12.31107,6.641042,18.15571,7.672917,19.57917c1.42875,1.97379,6.347354,8.39523,15.345833,12.96458c6.027208,3.06123,11.541125,4.10369,15.08125,4.49792-5.998104,19.4019-11.993563,38.80644-17.991667,58.20833-.07673.42863-.179916,1.06892-.264583,1.85209-.235479,2.14841-.357187,3.25966,0,4.49791.142875.49477.555625,1.92617,1.852083,2.91042c1.711855,1.2991,3.876146.94192,4.7625.79375c5.278438-.87842,7.934854-7.51152,8.202084-8.20208c3.378729-10.5754,6.730999-21.15873,10.054166-31.75c2.931583-9.3398,5.842-18.69017,8.731248-28.04584.51065.0132,1.04246.0132,1.5875,0c0,0,1.67746-.0397,3.43959-.26458c6.83947-.87048,15.08125-2.91042,15.08125-2.91042c5.34722-1.32291,8.73124-2.16164,13.49374-3.70416c4.36034-1.41023,8.03011-2.81517,10.84792-3.96875c7.40833,23.4606,14.81667,46.91856,22.225,70.37916.14817.54504.38894,1.28852.79375,2.11667.27517.56356,1.27265,2.49502,3.43958,4.23333c1.20386.96573,2.61673,2.10079,4.7625,2.38125.87842.11377,2.72786.35719,4.23334-.79375c1.27529-.97366,1.62189-2.42358,1.85208-3.43958.60325-2.66965-.082-4.96623-.26458-5.55625-11.53054-37.16867-23.28334-74.6125-23.28334-74.6125c10.69711-5.13821,15.50459-7.21254,16.66875-7.40833.18257-.0317,1.02659-.14288,1.5875-.79375.4445-.51594.50536-1.12977.52917-1.32292.26194-2.16165,1.59808-4.05342,2.38125-6.08542.6985-1.81239,2.159-5.34723,5.55625-12.96458-4.47675,1.06627-10.83998,2.55058-18.52083,4.23333-9.13342,2.0029-14.859,3.25702-21.96042,4.49792-7.27869,1.27265-14.17373,2.4765-23.28333,3.175-2.48708.1905-16.52323,1.19063-34.395835-1.05833-6.937374-.87313-9.757833-1.64571-12.699999-3.175-8.852959-4.60111-12.771438-12.91167-13.758334-15.08125-2.08227-4.57729-2.59027-8.48519-2.910416-11.1125-.248708-2.02671-.867833-8.32115,1.058333-16.13959c2.354792-9.55145,7.138458-15.79827,8.466667-17.4625c6.910916-8.659808,15.295562-12.207871,21.431249-14.816662c5.558896-2.362729,10.271125-3.378729,11.906255-3.704167c2.07433-.415396,4.83658-.965729,8.46666-1.058333c1.29381-.03175,1.41023.02646,5.29167,0c2.6035-.01587,3.53219-.05027,5.29167,0c2.95539.08467,4.45029.134937,5.29166.529167c1.51871.714375,1.80181,1.629833,4.23333,4.497916c1.4023,1.653646,1.63513,1.735667,3.70417,3.96875c1.71979,1.857375,4.75986,5.254625,9.525,11.112499Z" fill="none" stroke="#000" stroke-width="0.264583" stroke-miterlimit="10"/></g>
<script><![CDATA[
!function(t,n){"object"==typeof exports&&"undefined"!=typeof module?module.exports=n():"function"==typeof __SVGATOR_DEFINE__&&__SVGATOR_DEFINE__.amd?__SVGATOR_DEFINE__(n):((t="undefined"!=typeof globalThis?globalThis:t||self).__SVGATOR_PLAYER__=t.__SVGATOR_PLAYER__||{},t.__SVGATOR_PLAYER__["5c7f360c"]=n())}(this,(function(){"use strict";function t(t,n){var e=Object.keys(t);if(Object.getOwnPropertySymbols){var r=Object.getOwnPropertySymbols(t);n&&(r=r.filter((function(n){return Object.getOwnPropertyDescriptor(t,n).enumerable}))),e.push.apply(e,r)}return e}function n(n){for(var e=1;e<arguments.length;e++){var r=null!=arguments[e]?arguments[e]:{};e%2?t(Object(r),!0).forEach((function(t){u(n,t,r[t])})):Object.getOwnPropertyDescriptors?Object.defineProperties(n,Object.getOwnPropertyDescriptors(r)):t(Object(r)).forEach((function(t){Object.defineProperty(n,t,Object.getOwnPropertyDescriptor(r,t))}))}return n}function e(t){return(e="function"==typeof Symbol&&"symbol"==typeof Symbol.iterator?function(t){return typeof t}:function(t){return t&&"function"==typeof Symbol&&t.constructor===Symbol&&t!==Symbol.prototype?"symbol":typeof t})(t)}function r(t,n){if(!(t instanceof n))throw new TypeError("Cannot call a class as a function")}function i(t,n){for(var e=0;e<n.length;e++){var r=n[e];r.enumerable=r.enumerable||!1,r.configurable=!0,"value"in r&&(r.writable=!0),Object.defineProperty(t,r.key,r)}}function o(t,n,e){return n&&i(t.prototype,n),e&&i(t,e),t}function u(t,n,e){return n in t?Object.defineProperty(t,n,{value:e,enumerable:!0,configurable:!0,writable:!0}):t[n]=e,t}function a(t){return(a=Object.setPrototypeOf?Object.getPrototypeOf:function(t){return t.__proto__||Object.getPrototypeOf(t)})(t)}function l(t,n){return(l=Object.setPrototypeOf||function(t,n){return t.__proto__=n,t})(t,n)}function s(){if("undefined"==typeof Reflect||!Reflect.construct)return!1;if(Reflect.construct.sham)return!1;if("function"==typeof Proxy)return!0;try{return Boolean.prototype.valueOf.call(Reflect.construct(Boolean,[],(function(){}))),!0}catch(t){return!1}}function f(t,n,e){return(f=s()?Reflect.construct:function(t,n,e){var r=[null];r.push.apply(r,n);var i=new(Function.bind.apply(t,r));return e&&l(i,e.prototype),i}).apply(null,arguments)}function c(t,n){if(n&&("object"==typeof n||"function"==typeof n))return n;if(void 0!==n)throw new TypeError("Derived constructors may only return object or undefined");return function(t){if(void 0===t)throw new ReferenceError("this hasn't been initialised - super() hasn't been called");return t}(t)}function h(t,n,e){return(h="undefined"!=typeof Reflect&&Reflect.get?Reflect.get:function(t,n,e){var r=function(t,n){for(;!Object.prototype.hasOwnProperty.call(t,n)&&null!==(t=a(t)););return t}(t,n);if(r){var i=Object.getOwnPropertyDescriptor(r,n);return i.get?i.get.call(e):i.value}})(t,n,e||t)}function v(t){return function(t){if(Array.isArray(t))return y(t)}(t)||function(t){if("undefined"!=typeof Symbol&&null!=t[Symbol.iterator]||null!=t["@@iterator"])return Array.from(t)}(t)||function(t,n){if(!t)return;if("string"==typeof t)return y(t,n);var e=Object.prototype.toString.call(t).slice(8,-1);"Object"===e&&t.constructor&&(e=t.constructor.name);if("Map"===e||"Set"===e)return Array.from(t);if("Arguments"===e||/^(?:Ui|I)nt(?:8|16|32)(?:Clamped)?Array$/.test(e))return y(t,n)}(t)||function(){throw new TypeError("Invalid attempt to spread non-iterable instance.\nIn order to be iterable, non-array objects must have a [Symbol.iterator]() method.")}()}function y(t,n){(null==n||n>t.length)&&(n=t.length);for(var e=0,r=new Array(n);e<n;e++)r[e]=t[e];return r}function g(t,n,e){if(Number.isInteger(t))return t;var r=Math.pow(10,n);return Math[e]((+t+Number.EPSILON)*r)/r}Number.isInteger||(Number.isInteger=function(t){return"number"==typeof t&&isFinite(t)&&Math.floor(t)===t}),Number.EPSILON||(Number.EPSILON=2220446049250313e-31);var d=p(Math.pow(10,-6));function p(t){var n=arguments.length>1&&void 0!==arguments[1]?arguments[1]:6;return g(t,n,"round")}function m(t,n){var e=arguments.length>2&&void 0!==arguments[2]?arguments[2]:d;return Math.abs(t-n)<e}p(Math.pow(10,-2)),p(Math.pow(10,-4));var b=Math.PI/180;function w(t){return t}function A(t,n,e){var r=1-e;return 3*e*r*(t*r+n*e)+e*e*e}function _(){var t=arguments.length>0&&void 0!==arguments[0]?arguments[0]:0,n=arguments.length>1&&void 0!==arguments[1]?arguments[1]:0,e=arguments.length>2&&void 0!==arguments[2]?arguments[2]:1,r=arguments.length>3&&void 0!==arguments[3]?arguments[3]:1;return t<0||t>1||e<0||e>1?null:m(t,n)&&m(e,r)?w:function(i){if(i<=0)return t>0?i*n/t:0===n&&e>0?i*r/e:0;if(i>=1)return e<1?1+(i-1)*(r-1)/(e-1):1===e&&t<1?1+(i-1)*(n-1)/(t-1):1;for(var o,u=0,a=1;u<a;){var l=A(t,e,o=(u+a)/2);if(m(i,l))break;l<i?u=o:a=o}return A(n,r,o)}}function x(){return 1}function k(t){return 1===t?1:0}function S(){var t=arguments.length>0&&void 0!==arguments[0]?arguments[0]:1,n=arguments.length>1&&void 0!==arguments[1]?arguments[1]:0;if(1===t){if(0===n)return k;if(1===n)return x}var e=1/t;return function(t){return t>=1?1:(t+=n*e)-t%e}}var O=Math.sin,j=Math.cos,M=Math.acos,E=Math.asin,P=Math.tan,I=Math.atan2,R=Math.PI/180,F=180/Math.PI,N=Math.sqrt,T=function(){function t(){var n=arguments.length>0&&void 0!==arguments[0]?arguments[0]:1,e=arguments.length>1&&void 0!==arguments[1]?arguments[1]:0,i=arguments.length>2&&void 0!==arguments[2]?arguments[2]:0,o=arguments.length>3&&void 0!==arguments[3]?arguments[3]:1,u=arguments.length>4&&void 0!==arguments[4]?arguments[4]:0,a=arguments.length>5&&void 0!==arguments[5]?arguments[5]:0;r(this,t),this.m=[n,e,i,o,u,a],this.i=null,this.w=null,this.s=null}return o(t,[{key:"determinant",get:function(){var t=this.m;return t[0]*t[3]-t[1]*t[2]}},{key:"isIdentity",get:function(){if(null===this.i){var t=this.m;this.i=1===t[0]&&0===t[1]&&0===t[2]&&1===t[3]&&0===t[4]&&0===t[5]}return this.i}},{key:"point",value:function(t,n){var e=this.m;return{x:e[0]*t+e[2]*n+e[4],y:e[1]*t+e[3]*n+e[5]}}},{key:"translateSelf",value:function(){var t=arguments.length>0&&void 0!==arguments[0]?arguments[0]:0,n=arguments.length>1&&void 0!==arguments[1]?arguments[1]:0;if(!t&&!n)return this;var e=this.m;return e[4]+=e[0]*t+e[2]*n,e[5]+=e[1]*t+e[3]*n,this.w=this.s=this.i=null,this}},{key:"rotateSelf",value:function(){var t=arguments.length>0&&void 0!==arguments[0]?arguments[0]:0;if(t%=360){var n=O(t*=R),e=j(t),r=this.m,i=r[0],o=r[1];r[0]=i*e+r[2]*n,r[1]=o*e+r[3]*n,r[2]=r[2]*e-i*n,r[3]=r[3]*e-o*n,this.w=this.s=this.i=null}return this}},{key:"scaleSelf",value:function(){var t=arguments.length>0&&void 0!==arguments[0]?arguments[0]:1,n=arguments.length>1&&void 0!==arguments[1]?arguments[1]:1;if(1!==t||1!==n){var e=this.m;e[0]*=t,e[1]*=t,e[2]*=n,e[3]*=n,this.w=this.s=this.i=null}return this}},{key:"skewSelf",value:function(t,n){if(n%=360,(t%=360)||n){var e=this.m,r=e[0],i=e[1],o=e[2],u=e[3];t&&(t=P(t*R),e[2]+=r*t,e[3]+=i*t),n&&(n=P(n*R),e[0]+=o*n,e[1]+=u*n),this.w=this.s=this.i=null}return this}},{key:"resetSelf",value:function(){var t=arguments.length>0&&void 0!==arguments[0]?arguments[0]:1,n=arguments.length>1&&void 0!==arguments[1]?arguments[1]:0,e=arguments.length>2&&void 0!==arguments[2]?arguments[2]:0,r=arguments.length>3&&void 0!==arguments[3]?arguments[3]:1,i=arguments.length>4&&void 0!==arguments[4]?arguments[4]:0,o=arguments.length>5&&void 0!==arguments[5]?arguments[5]:0,u=this.m;return u[0]=t,u[1]=n,u[2]=e,u[3]=r,u[4]=i,u[5]=o,this.w=this.s=this.i=null,this}},{key:"recomposeSelf",value:function(){var t=arguments.length>0&&void 0!==arguments[0]?arguments[0]:null,n=arguments.length>1&&void 0!==arguments[1]?arguments[1]:null,e=arguments.length>2&&void 0!==arguments[2]?arguments[2]:null,r=arguments.length>3&&void 0!==arguments[3]?arguments[3]:null,i=arguments.length>4&&void 0!==arguments[4]?arguments[4]:null;return this.isIdentity||this.resetSelf(),t&&(t.x||t.y)&&this.translateSelf(t.x,t.y),n&&this.rotateSelf(n),e&&(e.x&&this.skewSelf(e.x,0),e.y&&this.skewSelf(0,e.y)),!r||1===r.x&&1===r.y||this.scaleSelf(r.x,r.y),i&&(i.x||i.y)&&this.translateSelf(i.x,i.y),this}},{key:"decompose",value:function(){var t=arguments.length>0&&void 0!==arguments[0]?arguments[0]:0,n=arguments.length>1&&void 0!==arguments[1]?arguments[1]:0,e=this.m,r=e[0]*e[0]+e[1]*e[1],i=[[e[0],e[1]],[e[2],e[3]]],o=N(r);if(0===o)return{origin:{x:p(e[4]),y:p(e[5])},translate:{x:p(t),y:p(n)},scale:{x:0,y:0},skew:{x:0,y:0},rotate:0};i[0][0]/=o,i[0][1]/=o;var u=e[0]*e[3]-e[1]*e[2]<0;u&&(o=-o);var a=i[0][0]*i[1][0]+i[0][1]*i[1][1];i[1][0]-=i[0][0]*a,i[1][1]-=i[0][1]*a;var l=N(i[1][0]*i[1][0]+i[1][1]*i[1][1]);if(0===l)return{origin:{x:p(e[4]),y:p(e[5])},translate:{x:p(t),y:p(n)},scale:{x:p(o),y:0},skew:{x:0,y:0},rotate:0};i[1][0]/=l,i[1][1]/=l,a/=l;var s=0;return i[1][1]<0?(s=M(i[1][1])*F,i[0][1]<0&&(s=360-s)):s=E(i[0][1])*F,u&&(s=-s),a=I(a,N(i[0][0]*i[0][0]+i[0][1]*i[0][1]))*F,u&&(a=-a),{origin:{x:p(e[4]),y:p(e[5])},translate:{x:p(t),y:p(n)},scale:{x:p(o),y:p(l)},skew:{x:p(a),y:0},rotate:p(s)}}},{key:"clone",value:function(){var t=this.m;return new this.constructor(t[0],t[1],t[2],t[3],t[4],t[5])}},{key:"toString",value:function(){var t=arguments.length>0&&void 0!==arguments[0]?arguments[0]:" ";if(null===this.s){var n=this.m.map((function(t){return p(t)}));1===n[0]&&0===n[1]&&0===n[2]&&1===n[3]?this.s="translate("+n[4]+t+n[5]+")":this.s="matrix("+n.join(t)+")"}return this.s}}],[{key:"create",value:function(t){return t?Array.isArray(t)?f(this,v(t)):t instanceof this?t.clone():(new this).recomposeSelf(t.origin,t.rotate,t.skew,t.scale,t.translate):new this}}]),t}();function q(t,n,e){return t>=.5?e:n}function B(t,n,e){return 0===t||n===e?n:t*(e-n)+n}function D(t,n,e){var r=B(t,n,e);return r<=0?0:r}function L(t,n,e){var r=B(t,n,e);return r<=0?0:r>=1?1:r}function C(t,n,e){return 0===t?n:1===t?e:{x:B(t,n.x,e.x),y:B(t,n.y,e.y)}}function V(t,n,e){var r=function(t,n,e){return Math.round(B(t,n,e))}(t,n,e);return r<=0?0:r>=255?255:r}function G(t,n,e){return 0===t?n:1===t?e:{r:V(t,n.r,e.r),g:V(t,n.g,e.g),b:V(t,n.b,e.b),a:B(t,null==n.a?1:n.a,null==e.a?1:e.a)}}function z(t,n){for(var e=[],r=0;r<t;r++)e.push(n);return e}function Y(t,n){if(--n<=0)return t;var e=(t=Object.assign([],t)).length;do{for(var r=0;r<e;r++)t.push(t[r])}while(--n>0);return t}var $,U=function(){function t(n){r(this,t),this.list=n,this.length=n.length}return o(t,[{key:"setAttribute",value:function(t,n){for(var e=this.list,r=0;r<this.length;r++)e[r].setAttribute(t,n)}},{key:"removeAttribute",value:function(t){for(var n=this.list,e=0;e<this.length;e++)n[e].removeAttribute(t)}},{key:"style",value:function(t,n){for(var e=this.list,r=0;r<this.length;r++)e[r].style[t]=n}}]),t}(),Q=/-./g,H=function(t,n){return n.toUpperCase()};function J(t){return"function"==typeof t?t:q}function Z(t){return t?"function"==typeof t?t:Array.isArray(t)?function(t){var n=arguments.length>1&&void 0!==arguments[1]?arguments[1]:w;if(!Array.isArray(t))return n;switch(t.length){case 1:return S(t[0])||n;case 2:return S(t[0],t[1])||n;case 4:return _(t[0],t[1],t[2],t[3])||n}return n}(t,null):function(t,n){var e=arguments.length>2&&void 0!==arguments[2]?arguments[2]:w;switch(t){case"linear":return w;case"steps":return S(n.steps||1,n.jump||0)||e;case"bezier":case"cubic-bezier":return _(n.x1||0,n.y1||0,n.x2||0,n.y2||0)||e}return e}(t.type,t.value,null):null}function K(t,n,e){var r=arguments.length>3&&void 0!==arguments[3]&&arguments[3],i=n.length-1;if(t<=n[0].t)return r?[0,0,n[0].v]:n[0].v;if(t>=n[i].t)return r?[i,1,n[i].v]:n[i].v;var o,u=n[0],a=null;for(o=1;o<=i;o++){if(!(t>n[o].t)){a=n[o];break}u=n[o]}return null==a?r?[i,1,n[i].v]:n[i].v:u.t===a.t?r?[o,1,a.v]:a.v:(t=(t-u.t)/(a.t-u.t),u.e&&(t=u.e(t)),r?[o,t,e(t,u.v,a.v)]:e(t,u.v,a.v))}function W(t,n){var e=arguments.length>2&&void 0!==arguments[2]?arguments[2]:null;return t&&t.length?"function"!=typeof n?null:("function"!=typeof e&&(e=null),function(r){var i=K(r,t,n);return null!=i&&e&&(i=e(i)),i}):null}function X(t,n){return t.t-n.t}function tt(t,n,r,i,o){var u,a="@"===r[0],l="#"===r[0],s=$[r],f=q;switch(a?(u=r.substr(1),r=u.replace(Q,H)):l&&(r=r.substr(1)),e(s)){case"function":if(f=s(i,o,K,Z,r,a,n,t),l)return f;break;case"string":f=W(i,J(s));break;case"object":if((f=W(i,J(s.i),s.f))&&"function"==typeof s.u)return s.u(n,f,r,a,t)}return f?function(t,n,e){if(arguments.length>3&&void 0!==arguments[3]&&arguments[3])return t instanceof U?function(r){return t.style(n,e(r))}:function(r){return t.style[n]=e(r)};if(Array.isArray(n)){var r=n.length;return function(i){var o=e(i);if(null==o)for(var u=0;u<r;u++)t[u].removeAttribute(n);else for(var a=0;a<r;a++)t[a].setAttribute(n,o)}}return function(r){var i=e(r);null==i?t.removeAttribute(n):t.setAttribute(n,i)}}(n,r,f,a):null}function nt(t,n,r,i){if(!i||"object"!==e(i))return null;var o=null,u=null;return Array.isArray(i)?u=function(t){if(!t||!t.length)return null;for(var n=0;n<t.length;n++)t[n].e&&(t[n].e=Z(t[n].e));return t.sort(X)}(i):(u=i.keys,o=i.data||null),u?tt(t,n,r,u,o):null}function et(t,n,e){if(!e)return null;var r=[];for(var i in e)if(e.hasOwnProperty(i)){var o=nt(t,n,i,e[i]);o&&r.push(o)}return r.length?r:null}function rt(t,n){if(!n.settings.duration||n.settings.duration<0)return null;var e,r,i,o,u,a=function(t,n){if(!n)return null;var e=[];if(Array.isArray(n))for(var r=n.length,i=0;i<r;i++){var o=n[i];if(2===o.length){var u=null;if("string"==typeof o[0])u=t.getElementById(o[0]);else if(Array.isArray(o[0])){u=[];for(var a=0;a<o[0].length;a++)if("string"==typeof o[0][a]){var l=t.getElementById(o[0][a]);l&&u.push(l)}u=u.length?1===u.length?u[0]:new U(u):null}if(u){var s=et(t,u,o[1]);s&&(e=e.concat(s))}}}else for(var f in n)if(n.hasOwnProperty(f)){var c=t.getElementById(f);if(c){var h=et(t,c,n[f]);h&&(e=e.concat(h))}}return e.length?e:null}(t,n.elements);return a?(e=a,r=n.settings,i=r.duration,o=e.length,u=null,function(t,n){var a=r.iterations||1/0,l=(r.alternate&&a%2==0)^r.direction>0?i:0,s=t%i,f=1+(t-s)/i;n*=r.direction,r.alternate&&f%2==0&&(n=-n);var c=!1;if(f>a)s=l,c=!0,-1===r.fill&&(s=r.direction>0?0:i);else if(n<0&&(s=i-s),s===u)return!1;u=s;for(var h=0;h<o;h++)e[h](s);return c}):null}function it(t,n){for(var e=n.querySelectorAll("svg"),r=0;r<e.length;r++)if(e[r].id===t.root&&!e[r].svgatorAnimation)return e[r].svgatorAnimation=!0,e[r];return null}function ot(t){var n=function(t){return t.shadowRoot};return document?Array.from(t.querySelectorAll(":not("+["a","area","audio","br","canvas","circle","datalist","embed","g","head","hr","iframe","img","input","link","object","path","polygon","rect","script","source","style","svg","title","track","video"].join()+")")).filter(n).map(n):[]}function ut(t){var n=arguments.length>1&&void 0!==arguments[1]?arguments[1]:document,e=arguments.length>2&&void 0!==arguments[2]?arguments[2]:0,r=it(t,n);if(r)return r;if(e>=20)return null;for(var i=ot(n),o=0;o<i.length;o++){var u=ut(t,i[o],e+1);if(u)return u}return null}function at(t,n){if($=n,!t||!t.root||!Array.isArray(t.animations))return null;var e=ut(t);if(!e)return null;var r=t.animations.map((function(t){return rt(e,t)})).filter((function(t){return!!t}));return r.length?{svg:e,animations:r,animationSettings:t.animationSettings,options:t.options||void 0}:null}function lt(t){var n=arguments.length>1&&void 0!==arguments[1]?arguments[1]:null,e=arguments.length>2&&void 0!==arguments[2]?arguments[2]:Number,r=arguments.length>3&&void 0!==arguments[3]?arguments[3]:"undefined"!=typeof BigInt&&BigInt,i="0x"+(t.replace(/[^0-9a-fA-F]+/g,"")||27);return n&&r&&e.isSafeInteger&&!e.isSafeInteger(+i)?e(r(i))%n+n:+i}function st(t,n,e){return!t||!e||n>t.length?t:t.substring(0,n)+st(t.substring(n+1),e,e)}function ft(t){var n=arguments.length>1&&void 0!==arguments[1]?arguments[1]:27;return!t||t%n?t%n:[0,1].includes(n)?n:ft(t/n,n)}function ct(t,n,e){if(t&&t.length){var r=lt(e),i=ft(r)+5,o=st(t,ft(r,5),i);return o=o.replace(/\x7c$/g,"==").replace(/\x2f$/g,"="),o=function(t,n,e){var r=+("0x"+t.substring(0,4));t=t.substring(4);for(var i=lt(n,r)%r+e%27,o=[],u=0;u<t.length;u+=2)if("|"!==t[u]){var a=+("0x"+t[u]+t[u+1])-i;o.push(a)}else{var l=+("0x"+t.substring(u+1,u+1+4))-i;u+=3,o.push(l)}return String.fromCharCode.apply(String,o)}(o=(o=atob(o)).replace(/[\x41-\x5A]/g,""),n,r),o=JSON.parse(o)}}var ht=[{key:"alternate",def:!1},{key:"fill",def:1},{key:"iterations",def:0},{key:"direction",def:1},{key:"speed",def:1},{key:"fps",def:100}],vt=function(){function t(n,e){var i=this,o=arguments.length>2&&void 0!==arguments[2]?arguments[2]:null;r(this,t),this._id=0,this._running=!1,this._rollingBack=!1,this._animations=n,this._settings=e,(!o||o<"2022-05-02")&&delete this._settings.speed,ht.forEach((function(t){i._settings[t.key]=i._settings[t.key]||t.def})),this.duration=e.duration,this.offset=e.offset||0,this.rollbackStartOffset=0}return o(t,[{key:"alternate",get:function(){return this._settings.alternate}},{key:"fill",get:function(){return this._settings.fill}},{key:"iterations",get:function(){return this._settings.iterations}},{key:"direction",get:function(){return this._settings.direction}},{key:"speed",get:function(){return this._settings.speed}},{key:"fps",get:function(){return this._settings.fps}},{key:"maxFiniteDuration",get:function(){return this.iterations>0?this.iterations*this.duration:this.duration}},{key:"_apply",value:function(t){for(var n=arguments.length>1&&void 0!==arguments[1]?arguments[1]:{},e=this._animations,r=e.length,i=0,o=0;o<r;o++)n[o]?i++:(n[o]=e[o](t,1),n[o]&&i++);return i}},{key:"_rollback",value:function(t){var n=this,e=1/0,r=null;this.rollbackStartOffset=t,this._rollingBack=!0,this._running=!0;this._id=window.requestAnimationFrame((function i(o){if(n._rollingBack){null==r&&(r=o);var u=Math.round(t-(o-r)*n.speed);if(u>n.duration&&e!==1/0){var a=!!n.alternate&&u/n.duration%2>1,l=u%n.duration;u=(l+=a?n.duration:0)||n.duration}var s=(n.fps?1e3/n.fps:0)*n.speed,f=Math.max(0,u);f<=e-s&&(n.offset=f,e=f,n._apply(f));var c=n.iterations>0&&-1===n.fill&&u>=n.maxFiniteDuration;(u<=0||n.offset<u||c)&&n.stop(),n._id=window.requestAnimationFrame(i)}}))}},{key:"_start",value:function(){var t=this,n=arguments.length>0&&void 0!==arguments[0]?arguments[0]:0,e=-1/0,r=null,i={};this._running=!0;var o=function o(u){null==r&&(r=u);var a=Math.round((u-r)*t.speed+n),l=(t.fps?1e3/t.fps:0)*t.speed;if(a>=e+l&&!t._rollingBack&&(t.offset=a,e=a,t._apply(a,i)===t._animations.length))return void t.pause(!0);t._id=window.requestAnimationFrame(o)};this._id=window.requestAnimationFrame(o)}},{key:"_pause",value:function(){this._id&&window.cancelAnimationFrame(this._id),this._running=!1}},{key:"play",value:function(){if(!this._running)return this._rollingBack?this._rollback(this.offset):this._start(this.offset)}},{key:"stop",value:function(){this._pause(),this.offset=0,this.rollbackStartOffset=0,this._rollingBack=!1,this._apply(0)}},{key:"reachedToEnd",value:function(){return this.iterations>0&&this.offset>=this.iterations*this.duration}},{key:"restart",value:function(){var t=arguments.length>0&&void 0!==arguments[0]&&arguments[0];this.stop(t),this.play(t)}},{key:"pause",value:function(){this._pause()}},{key:"reverse",value:function(){this.direction=-this.direction}}],[{key:"build",value:function(t,n){delete t.animationSettings,t.options=ct(t.options,t.root,"5c7f360c"),t.animations.map((function(n){n.settings=ct(n.s,t.root,"5c7f360c"),delete n.s,t.animationSettings||(t.animationSettings=n.settings)}));var e=t.version;if(!(t=at(t,n)))return null;var r=t.options||{},i=new this(t.animations,t.animationSettings,e);return{el:t.svg,options:r,player:i}}},{key:"push",value:function(t){return this.build(t)}},{key:"init",value:function(){var t=this,n=window.__SVGATOR_PLAYER__&&window.__SVGATOR_PLAYER__["5c7f360c"];Array.isArray(n)&&n.splice(0).forEach((function(n){return t.build(n)}))}}]),t}();function yt(t){return p(t)+""}function gt(t){var n=arguments.length>1&&void 0!==arguments[1]?arguments[1]:" ";return t&&t.length?t.map(yt).join(n):""}function dt(t){if(!t)return"transparent";if(null==t.a||t.a>=1){var n=function(t){return 1===(t=parseInt(t).toString(16)).length?"0"+t:t},e=function(t){return t.charAt(0)===t.charAt(1)},r=n(t.r),i=n(t.g),o=n(t.b);return e(r)&&e(i)&&e(o)&&(r=r.charAt(0),i=i.charAt(0),o=o.charAt(0)),"#"+r+i+o}return"rgba("+t.r+","+t.g+","+t.b+","+t.a+")"}function pt(t){return t?"url(#"+t+")":"none"}!function(){for(var t=0,n=["ms","moz","webkit","o"],e=0;e<n.length&&!window.requestAnimationFrame;++e)window.requestAnimationFrame=window[n[e]+"RequestAnimationFrame"],window.cancelAnimationFrame=window[n[e]+"CancelAnimationFrame"]||window[n[e]+"CancelRequestAnimationFrame"];window.requestAnimationFrame||(window.requestAnimationFrame=function(n){var e=Date.now(),r=Math.max(0,16-(e-t)),i=window.setTimeout((function(){n(e+r)}),r);return t=e+r,i},window.cancelAnimationFrame=window.clearTimeout)}();var mt={f:null,i:function(t,n,e){return 0===t?n:1===t?e:{x:D(t,n.x,e.x),y:D(t,n.y,e.y)}},u:function(t,n){return function(e){var r=n(e);t.setAttribute("rx",yt(r.x)),t.setAttribute("ry",yt(r.y))}}},bt={f:null,i:function(t,n,e){return 0===t?n:1===t?e:{width:D(t,n.width,e.width),height:D(t,n.height,e.height)}},u:function(t,n){return function(e){var r=n(e);t.setAttribute("width",yt(r.width)),t.setAttribute("height",yt(r.height))}}};Object.freeze({M:2,L:2,Z:0,H:1,V:1,C:6,Q:4,T:2,S:4,A:7});var wt={},At=null;function _t(t){var n=function(){if(At)return At;if("object"!==("undefined"==typeof document?"undefined":e(document))||!document.createElementNS)return{};var t=document.createElementNS("http://www.w3.org/2000/svg","svg");return t&&t.style?(t.style.position="absolute",t.style.opacity="0.01",t.style.zIndex="-9999",t.style.left="-9999px",t.style.width="1px",t.style.height="1px",At={svg:t}):{}}().svg;if(!n)return function(t){return null};var r=document.createElementNS(n.namespaceURI,"path");r.setAttributeNS(null,"d",t),r.setAttributeNS(null,"fill","none"),r.setAttributeNS(null,"stroke","none"),n.appendChild(r);var i=r.getTotalLength();return function(t){var n=r.getPointAtLength(i*t);return{x:n.x,y:n.y}}}function xt(t){return wt[t]?wt[t]:wt[t]=_t(t)}function kt(t,n,e,r){if(!t||!r)return!1;var i=["M",t.x,t.y];if(n&&e&&(i.push("C"),i.push(n.x),i.push(n.y),i.push(e.x),i.push(e.y)),n?!e:e){var o=n||e;i.push("Q"),i.push(o.x),i.push(o.y)}return n||e||i.push("L"),i.push(r.x),i.push(r.y),i.join(" ")}function St(t,n,e,r){var i=arguments.length>4&&void 0!==arguments[4]?arguments[4]:1,o=kt(t,n,e,r),u=xt(o);try{return u(i)}catch(t){return null}}function Ot(t,n,e){return t+(n-t)*e}function jt(t,n,e){var r=arguments.length>3&&void 0!==arguments[3]&&arguments[3],i={x:Ot(t.x,n.x,e),y:Ot(t.y,n.y,e)};return r&&(i.a=Mt(t,n)),i}function Mt(t,n){return Math.atan2(n.y-t.y,n.x-t.x)}function Et(t,n,e,r){var i=1-r;return i*i*t+2*i*r*n+r*r*e}function Pt(t,n,e,r){return 2*(1-r)*(n-t)+2*r*(e-n)}function It(t,n,e,r){var i=arguments.length>4&&void 0!==arguments[4]&&arguments[4],o=St(t,n,null,e,r);return o||(o={x:Et(t.x,n.x,e.x,r),y:Et(t.y,n.y,e.y,r)}),i&&(o.a=Rt(t,n,e,r)),o}function Rt(t,n,e,r){return Math.atan2(Pt(t.y,n.y,e.y,r),Pt(t.x,n.x,e.x,r))}function Ft(t,n,e,r,i){var o=i*i;return i*o*(r-t+3*(n-e))+3*o*(t+e-2*n)+3*i*(n-t)+t}function Nt(t,n,e,r,i){var o=1-i;return 3*(o*o*(n-t)+2*o*i*(e-n)+i*i*(r-e))}function Tt(t,n,e,r,i){var o=arguments.length>5&&void 0!==arguments[5]&&arguments[5],u=St(t,n,e,r,i);return u||(u={x:Ft(t.x,n.x,e.x,r.x,i),y:Ft(t.y,n.y,e.y,r.y,i)}),o&&(u.a=qt(t,n,e,r,i)),u}function qt(t,n,e,r,i){return Math.atan2(Nt(t.y,n.y,e.y,r.y,i),Nt(t.x,n.x,e.x,r.x,i))}function Bt(t,n,e){var r=arguments.length>3&&void 0!==arguments[3]&&arguments[3];if(Lt(n)){if(Ct(e))return It(n,e.start,e,t,r)}else if(Lt(e)){if(Vt(n))return It(n,n.end,e,t,r)}else{if(Vt(n))return Ct(e)?Tt(n,n.end,e.start,e,t,r):It(n,n.end,e,t,r);if(Ct(e))return It(n,e.start,e,t,r)}return jt(n,e,t,r)}function Dt(t,n,e){var r=Bt(t,n,e,!0);return r.a=function(t){return arguments.length>1&&void 0!==arguments[1]&&arguments[1]?t+Math.PI:t}(r.a)/b,r}function Lt(t){return!t.type||"corner"===t.type}function Ct(t){return null!=t.start&&!Lt(t)}function Vt(t){return null!=t.end&&!Lt(t)}var Gt=new T;var zt={f:yt,i:B},Yt={f:yt,i:L};function $t(t,n,e){return t.map((function(t){return function(t,n,e){var r=t.v;if(!r||"g"!==r.t||r.s||!r.v||!r.r)return t;var i=e.getElementById(r.r),o=i&&i.querySelectorAll("stop")||[];return r.s=r.v.map((function(t,n){var e=o[n]&&o[n].getAttribute("offset");return{c:t,o:e=p(parseInt(e)/100)}})),delete r.v,t}(t,0,e)}))}var Ut={gt:"gradientTransform",c:{x:"cx",y:"cy"},rd:"r",f:{x:"x1",y:"y1"},to:{x:"x2",y:"y2"}};function Qt(t,n,r,i,o,u,a,l){return $t(t,0,l),n=function(t,n,e){for(var r,i,o,u=t.length-1,a={},l=0;l<=u;l++)(r=t[l]).e&&(r.e=n(r.e)),r.v&&"g"===(i=r.v).t&&i.r&&(o=e.getElementById(i.r))&&(a[i.r]={e:o,s:o.querySelectorAll("stop")});return a}(t,i,l),function(i){var o=r(i,t,Ht);if(!o)return"none";if("c"===o.t)return dt(o.v);if("g"===o.t){if(!n[o.r])return pt(o.r);var u=n[o.r];return function(t,n){for(var e=t.s,r=e.length;r<n.length;r++){var i=e[e.length-1].cloneNode();i.id=Kt(i.id),t.e.appendChild(i),e=t.s=t.e.querySelectorAll("stop")}for(var o=0,u=e.length,a=n.length-1;o<u;o++)e[o].setAttribute("stop-color",dt(n[Math.min(o,a)].c)),e[o].setAttribute("offset",n[Math.min(o,a)].o)}(u,o.s),Object.keys(Ut).forEach((function(t){if(void 0!==o[t])if("object"!==e(Ut[t])){var n,r="gt"===t?(n=o[t],Array.isArray(n)?"matrix("+n.join(" ")+")":""):o[t],i=Ut[t];u.e.setAttribute(i,r)}else Object.keys(Ut[t]).forEach((function(n){if(void 0!==o[t][n]){var e=o[t][n],r=Ut[t][n];u.e.setAttribute(r,e)}}))})),pt(o.r)}return"none"}}function Ht(t,e,r){if(0===t)return e;if(1===t)return r;if(e&&r){var i=e.t;if(i===r.t)switch(e.t){case"c":return{t:i,v:G(t,e.v,r.v)};case"g":if(e.r===r.r){var o={t:i,s:Jt(t,e.s,r.s),r:e.r};return e.gt&&r.gt&&(o.gt=function(t,n,e){var r=n.length;if(r!==e.length)return q(t,n,e);for(var i=new Array(r),o=0;o<r;o++)i[o]=B(t,n[o],e[o]);return i}(t,e.gt,r.gt)),e.c?(o.c=C(t,e.c,r.c),o.rd=D(t,e.rd,r.rd)):e.f&&(o.f=C(t,e.f,r.f),o.to=C(t,e.to,r.to)),o}}if("c"===e.t&&"g"===r.t||"c"===r.t&&"g"===e.t){var u="c"===e.t?e:r,a="g"===e.t?n({},e):n({},r),l=a.s.map((function(t){return{c:u.v,o:t.o}}));return a.s="c"===e.t?Jt(t,l,a.s):Jt(t,a.s,l),a}}return q(t,e,r)}function Jt(t,n,e){if(n.length===e.length)return n.map((function(n,r){return Zt(t,n,e[r])}));for(var r=Math.max(n.length,e.length),i=[],o=0;o<r;o++){var u=Zt(t,n[Math.min(o,n.length-1)],e[Math.min(o,e.length-1)]);i.push(u)}return i}function Zt(t,n,e){return{o:L(t,n.o,e.o||0),c:G(t,n.c,e.c||{})}}function Kt(t){return t.replace(/-fill-([0-9]+)$/,(function(t,n){return"-fill-"+(+n+1)}))}var Wt={fill:Qt,"fill-opacity":Yt,stroke:Qt,"stroke-opacity":Yt,"stroke-width":zt,"stroke-dashoffset":{f:yt,i:B},"stroke-dasharray":{f:function(t){var n=arguments.length>1&&void 0!==arguments[1]?arguments[1]:" ";return t&&t.length>0&&(t=t.map((function(t){return p(t,4)}))),gt(t,n)},i:function(t,n,e){var r,i,o,u=n.length,a=e.length;if(u!==a)if(0===u)n=z(u=a,0);else if(0===a)a=u,e=z(u,0);else{var l=(o=(r=u)*(i=a)/function(t,n){for(var e;n;)e=n,n=t%n,t=e;return t||1}(r,i))<0?-o:o;n=Y(n,Math.floor(l/u)),e=Y(e,Math.floor(l/a)),u=a=l}for(var s=[],f=0;f<u;f++)s.push(p(D(t,n[f],e[f])));return s}},opacity:Yt,transform:function(t,n,r,i){if(!(t=function(t,n){if(!t||"object"!==e(t))return null;var r=!1;for(var i in t)t.hasOwnProperty(i)&&(t[i]&&t[i].length?(t[i].forEach((function(t){t.e&&(t.e=n(t.e))})),r=!0):delete t[i]);return r?t:null}(t,i)))return null;var o=function(e,i,o){var u=arguments.length>3&&void 0!==arguments[3]?arguments[3]:null;return t[e]?r(i,t[e],o):n&&n[e]?n[e]:u};return n&&n.a&&t.o?function(n){var e=r(n,t.o,Dt);return Gt.recomposeSelf(e,o("r",n,B,0)+e.a,o("k",n,C),o("s",n,C),o("t",n,C)).toString()}:function(t){return Gt.recomposeSelf(o("o",t,Bt,null),o("r",t,B,0),o("k",t,C),o("s",t,C),o("t",t,C)).toString()}},r:zt,"#size":bt,"#radius":mt,_:function(t,n){if(Array.isArray(t))for(var e=0;e<t.length;e++)this[t[e]]=n;else this[t]=n}},Xt=function(t){!function(t,n){if("function"!=typeof n&&null!==n)throw new TypeError("Super expression must either be null or a function");t.prototype=Object.create(n&&n.prototype,{constructor:{value:t,writable:!0,configurable:!0}}),n&&l(t,n)}(u,t);var n,e,i=(n=u,e=s(),function(){var t,r=a(n);if(e){var i=a(this).constructor;t=Reflect.construct(r,arguments,i)}else t=r.apply(this,arguments);return c(this,t)});function u(){return r(this,u),i.apply(this,arguments)}return o(u,null,[{key:"build",value:function(t){var n=h(a(u),"build",this).call(this,t,Wt);if(!n)return null;n.el,n.options,function(t,n,e){t.play()}(n.player)}}]),u}(vt);return Xt.init(),Xt}));
(function(s,i,o,w,d,a,b){w[o]=w[o]||{};w[o][s]=w[o][s]||[];w[o][s].push(i);})('5c7f360c',{"root":"eNWQLRAlxfj1","version":"2022-05-04","animations":[{"elements":{"eNWQLRAlxfj4":{"transform":{"data":{"t":{"x":-87.065544,"y":-319.644974}},"keys":{"o":[{"t":0,"v":{"x":87.065544,"y":319.644974,"type":"corner"}},{"t":1500,"v":{"x":-2.195155,"y":331.609571,"type":"corner"}},{"t":3000,"v":{"x":87.065544,"y":319.644974,"type":"corner"}}]}}},"eNWQLRAlxfj5":{"transform":{"data":{"t":{"x":-229.805001,"y":-530.29915}},"keys":{"o":[{"t":0,"v":{"x":229.805001,"y":530.29915,"type":"corner"}},{"t":1500,"v":{"x":229.934998,"y":619.138154,"type":"corner"}},{"t":3000,"v":{"x":229.805001,"y":530.29915,"type":"corner"}}]}}}},"s":"MGDA1ZGNhNzFiM1FjNGKMxYjBjM1RiOGJlYmQK3MTg5ODI3ZjdmN2Y3HYjcxYjNiOGMxWGI0YMjJjM2I4YmViZDcxODMk4MDdiNzFVYjhjM2IQ0Q2MxYjBjM2I4YmViSZGMyNzE4OTgwN2I3MHWI1YjhWYmJiYjcxODUk4MDdiNzFiMGJiYzNGiNGMxYmRXYjBjM2I0ANzE4OWI1YjBiYmMyYJjQ3YkE3MWMyS2JmYjJRiNGIzNzE4OUg4MDdJiNzFiNUhiZmMyNzE4AOTgwN2Y3ZmNj"}],"options":"MDDAxMDg4MmY4MDgxNmKU3ZjgxVzJmNDcyZjcB5N2NONmU3MTJmOGE/P"},'__SVGATOR_PLAYER__',window,document)
]]></script>
</svg>
